<?xml version="1.0" encoding="iso-8859-1"?>
<!-- Generator: Adobe Illustrator 16.0.0, SVG Export Plug-In . SVG Version: 6.00 Build 0)  -->
<!DOCTYPE svg PUBLIC "-//W3C//DTD SVG 1.1//EN" "http://www.w3.org/Graphics/SVG/1.1/DTD/svg11.dtd">
<svg version="1.1" id="Capa_1" xmlns="http://www.w3.org/2000/svg" xmlns:xlink="http://www.w3.org/1999/xlink" x="0px" y="0px"
	 width="288.147px" height="288.147px" viewBox="0 0 288.147 288.147" style="enable-background:new 0 0 288.147 288.147;"
	 xml:space="preserve">
<g>
	<g>
		<path d="M142.45,174.613c-4.645,0-11.495-0.514-17.779-2.926l-50.271-19.366H49.774v30.162c0,9.274,6.9,19.802,15.405,23.499
			l60.872,26.496c8.505,3.691,22.312,3.707,30.826,0.036l61.536-26.574c8.508-3.671,15.41-14.183,15.41-23.457v-30.162h-27.175
			l-44.547,18.78C156.742,173.365,149.756,174.613,142.45,174.613z"/>
		<path d="M6.475,112.944l121.222,46.709c8.661,3.329,22.603,3.112,31.152-0.492l115.768-48.801v71.999l-7.151,23.866h20.682
			l-7.399-24.114V107.45h-0.208c4.997-3.449,3.832-7.747-3.567-10.393L159.196,55.146c-8.74-3.117-22.859-2.985-31.545,0.277
			L6.529,100.99C-2.157,104.258-2.178,109.612,6.475,112.944z"/>
	</g>
</g>
<g>
</g>
<g>
</g>
<g>
</g>
<g>
</g>
<g>
</g>
<g>
</g>
<g>
</g>
<g>
</g>
<g>
</g>
<g>
</g>
<g>
</g>
<g>
</g>
<g>
</g>
<g>
</g>
<g>
</g>
</svg>
