<?xml version="1.0" encoding="utf-8"?>
<!-- Generator: Adobe Illustrator 16.0.0, SVG Export Plug-In . SVG Version: 6.00 Build 0)  -->
<!DOCTYPE svg PUBLIC "-//W3C//DTD SVG 1.1//EN" "http://www.w3.org/Graphics/SVG/1.1/DTD/svg11.dtd">
<svg version="1.1" id="Layer_1" xmlns="http://www.w3.org/2000/svg" xmlns:xlink="http://www.w3.org/1999/xlink" x="0px" y="0px"
	 width="612px" height="792px" viewBox="0 0 612 792" enable-background="new 0 0 612 792" xml:space="preserve">
<g>
	<g>
		
			<linearGradient id="SVGID_1_" gradientUnits="userSpaceOnUse" x1="268.9585" y1="311.5264" x2="286.9637" y2="350.473" gradientTransform="matrix(0.4196 -0.9077 0.9077 0.4196 -211.3643 480.4648)">
			<stop  offset="0" style="stop-color:#EF4862"/>
			<stop  offset="1" style="stop-color:#ED2024"/>
		</linearGradient>
		
			<polygon fill="url(#SVGID_1_)" stroke="#FFFFFF" stroke-width="1.4795" stroke-linecap="round" stroke-linejoin="round" stroke-miterlimit="10" points="
			202.41,357.572 227.169,358.256 211.337,374.498 184.263,376.522 		"/>
		
			<linearGradient id="SVGID_2_" gradientUnits="userSpaceOnUse" x1="325.1035" y1="242.5498" x2="355.7782" y2="277.2876" gradientTransform="matrix(0.6619 -0.7496 0.7496 0.6619 -169.8316 438.1527)">
			<stop  offset="0" style="stop-color:#EF4862"/>
			<stop  offset="1" style="stop-color:#ED2024"/>
		</linearGradient>
		
			<polygon fill="url(#SVGID_2_)" stroke="#FFFFFF" stroke-width="1.4795" stroke-linecap="round" stroke-linejoin="round" stroke-miterlimit="10" points="
			249.985,345.612 273.513,353.359 253.693,364.386 227.169,358.575 		"/>
		<linearGradient id="SVGID_3_" gradientUnits="userSpaceOnUse" x1="192.5869" y1="342.2041" x2="227.1694" y2="342.2041">
			<stop  offset="0" style="stop-color:#EF4862"/>
			<stop  offset="1" style="stop-color:#ED2024"/>
		</linearGradient>
		
			<polygon fill="url(#SVGID_3_)" stroke="#FFFFFF" stroke-width="1.4795" stroke-linecap="round" stroke-linejoin="round" stroke-miterlimit="10" points="
			217.402,335.083 227.169,357.844 205.788,350.287 192.587,326.563 		"/>
		
			<linearGradient id="SVGID_4_" gradientUnits="userSpaceOnUse" x1="232.9971" y1="482.8203" x2="238.9124" y2="464.8957" gradientTransform="matrix(0.3134 0.9496 -0.9496 0.3134 612.6336 -36.0468)">
			<stop  offset="0" style="stop-color:#EF4862"/>
			<stop  offset="1" style="stop-color:#ED2024"/>
		</linearGradient>
		
			<polygon fill="url(#SVGID_4_)" stroke="#FFFFFF" stroke-width="1.4795" stroke-linecap="round" stroke-linejoin="round" stroke-miterlimit="10" points="
			245.724,341.438 227.169,357.844 227.648,335.168 246.044,315.201 		"/>
		
			<linearGradient id="SVGID_5_" gradientUnits="userSpaceOnUse" x1="211.9209" y1="478.6504" x2="227.0948" y2="469.0809" gradientTransform="matrix(0.8458 0.5334 -0.5334 0.8458 301.525 -137.5833)">
			<stop  offset="0" style="stop-color:#EF4862"/>
			<stop  offset="1" style="stop-color:#ED2024"/>
		</linearGradient>
		
			<polygon fill="url(#SVGID_5_)" stroke="#FFFFFF" stroke-width="1.4795" stroke-linecap="round" stroke-linejoin="round" stroke-miterlimit="10" points="
			243.394,378.29 239.512,402.754 225.456,384.955 226.942,357.844 		"/>
	</g>
	<g>
		<linearGradient id="SVGID_6_" gradientUnits="userSpaceOnUse" x1="242.7251" y1="373.9922" x2="285.6348" y2="373.9922">
			<stop  offset="0" style="stop-color:#5DC3AF"/>
			<stop  offset="1" style="stop-color:#56C2B7"/>
		</linearGradient>
		
			<polygon fill="url(#SVGID_6_)" stroke="#FFFFFF" stroke-width="1.4795" stroke-linecap="round" stroke-linejoin="round" stroke-miterlimit="10" points="
			260.875,364.519 285.635,365.204 269.799,381.443 242.725,383.465 		"/>
		<linearGradient id="SVGID_7_" gradientUnits="userSpaceOnUse" x1="285.6348" y1="361.9404" x2="331.9717" y2="361.9404">
			<stop  offset="0" style="stop-color:#5DC3AF"/>
			<stop  offset="1" style="stop-color:#56C2B7"/>
		</linearGradient>
		
			<polygon fill="url(#SVGID_7_)" stroke="#FFFFFF" stroke-width="1.4795" stroke-linecap="round" stroke-linejoin="round" stroke-miterlimit="10" points="
			308.447,352.555 331.972,360.303 312.154,371.327 285.635,365.518 		"/>
		<linearGradient id="SVGID_8_" gradientUnits="userSpaceOnUse" x1="251.0459" y1="349.1494" x2="285.6348" y2="349.1494">
			<stop  offset="0" style="stop-color:#5DC3AF"/>
			<stop  offset="1" style="stop-color:#56C2B7"/>
		</linearGradient>
		
			<polygon fill="url(#SVGID_8_)" stroke="#FFFFFF" stroke-width="1.4795" stroke-linecap="round" stroke-linejoin="round" stroke-miterlimit="10" points="
			275.864,342.025 285.635,364.792 264.247,357.23 251.046,333.507 		"/>
		<linearGradient id="SVGID_9_" gradientUnits="userSpaceOnUse" x1="285.6348" y1="343.4668" x2="304.5029" y2="343.4668">
			<stop  offset="0" style="stop-color:#5DC3AF"/>
			<stop  offset="1" style="stop-color:#56C2B7"/>
		</linearGradient>
		
			<polygon fill="url(#SVGID_9_)" stroke="#FFFFFF" stroke-width="1.4795" stroke-linecap="round" stroke-linejoin="round" stroke-miterlimit="10" points="
			304.188,348.38 285.635,364.792 286.107,342.109 304.503,322.142 		"/>
		<linearGradient id="SVGID_10_" gradientUnits="userSpaceOnUse" x1="283.9175" y1="387.2451" x2="301.8525" y2="387.2451">
			<stop  offset="0" style="stop-color:#5DC3AF"/>
			<stop  offset="1" style="stop-color:#56C2B7"/>
		</linearGradient>
		
			<polygon fill="url(#SVGID_10_)" stroke="#FFFFFF" stroke-width="1.4795" stroke-linecap="round" stroke-linejoin="round" stroke-miterlimit="10" points="
			301.853,385.232 297.974,409.699 283.917,391.898 285.407,364.792 		"/>
	</g>
	<g>
		<linearGradient id="SVGID_11_" gradientUnits="userSpaceOnUse" x1="228.8896" y1="340.9092" x2="271.7988" y2="340.9092">
			<stop  offset="0" style="stop-color:#70CFEE"/>
			<stop  offset="1" style="stop-color:#489AD4"/>
		</linearGradient>
		
			<polygon fill="url(#SVGID_11_)" stroke="#FFFFFF" stroke-width="1.4795" stroke-linecap="round" stroke-linejoin="round" stroke-miterlimit="10" points="
			247.04,331.433 271.799,332.119 255.963,348.358 228.89,350.385 		"/>
		<linearGradient id="SVGID_12_" gradientUnits="userSpaceOnUse" x1="271.7988" y1="328.8599" x2="318.1426" y2="328.8599">
			<stop  offset="0" style="stop-color:#70CFEE"/>
			<stop  offset="1" style="stop-color:#489AD4"/>
		</linearGradient>
		
			<polygon fill="url(#SVGID_12_)" stroke="#FFFFFF" stroke-width="1.4795" stroke-linecap="round" stroke-linejoin="round" stroke-miterlimit="10" points="
			294.608,319.473 318.143,327.22 298.319,338.247 271.799,332.435 		"/>
		<linearGradient id="SVGID_13_" gradientUnits="userSpaceOnUse" x1="237.2104" y1="316.0664" x2="271.7988" y2="316.0664">
			<stop  offset="0" style="stop-color:#70CFEE"/>
			<stop  offset="1" style="stop-color:#489AD4"/>
		</linearGradient>
		
			<polygon fill="url(#SVGID_13_)" stroke="#FFFFFF" stroke-width="1.4795" stroke-linecap="round" stroke-linejoin="round" stroke-miterlimit="10" points="
			262.026,308.941 271.799,331.708 250.408,324.148 237.21,300.424 		"/>
		<linearGradient id="SVGID_14_" gradientUnits="userSpaceOnUse" x1="271.7988" y1="310.3828" x2="290.6675" y2="310.3828">
			<stop  offset="0" style="stop-color:#70CFEE"/>
			<stop  offset="1" style="stop-color:#489AD4"/>
		</linearGradient>
		
			<polygon fill="url(#SVGID_14_)" stroke="#FFFFFF" stroke-width="1.4795" stroke-linecap="round" stroke-linejoin="round" stroke-miterlimit="10" points="
			290.353,315.299 271.799,331.708 272.272,309.029 290.667,289.057 		"/>
		<linearGradient id="SVGID_15_" gradientUnits="userSpaceOnUse" x1="270.082" y1="354.1621" x2="288.0171" y2="354.1621">
			<stop  offset="0" style="stop-color:#70CFEE"/>
			<stop  offset="1" style="stop-color:#489AD4"/>
		</linearGradient>
		
			<polygon fill="url(#SVGID_15_)" stroke="#FFFFFF" stroke-width="1.4795" stroke-linecap="round" stroke-linejoin="round" stroke-miterlimit="10" points="
			288.017,352.152 284.138,376.616 270.082,358.816 271.569,331.708 		"/>
	</g>
	<g>
		<linearGradient id="SVGID_16_" gradientUnits="userSpaceOnUse" x1="293.084" y1="335.502" x2="335.9961" y2="335.502">
			<stop  offset="0" style="stop-color:#70CFEE"/>
			<stop  offset="1" style="stop-color:#489AD4"/>
		</linearGradient>
		
			<polygon fill="url(#SVGID_16_)" stroke="#FFFFFF" stroke-width="1.4795" stroke-linecap="round" stroke-linejoin="round" stroke-miterlimit="10" points="
			311.234,326.028 335.996,326.713 320.161,342.951 293.084,344.976 		"/>
		<linearGradient id="SVGID_17_" gradientUnits="userSpaceOnUse" x1="335.9961" y1="323.4551" x2="382.3301" y2="323.4551">
			<stop  offset="0" style="stop-color:#70CFEE"/>
			<stop  offset="1" style="stop-color:#489AD4"/>
		</linearGradient>
		
			<polygon fill="url(#SVGID_17_)" stroke="#FFFFFF" stroke-width="1.4795" stroke-linecap="round" stroke-linejoin="round" stroke-miterlimit="10" points="
			358.807,314.068 382.33,321.815 362.511,332.842 335.996,327.033 		"/>
		<linearGradient id="SVGID_18_" gradientUnits="userSpaceOnUse" x1="301.4048" y1="310.6572" x2="335.9961" y2="310.6572">
			<stop  offset="0" style="stop-color:#70CFEE"/>
			<stop  offset="1" style="stop-color:#489AD4"/>
		</linearGradient>
		
			<polygon fill="url(#SVGID_18_)" stroke="#FFFFFF" stroke-width="1.4795" stroke-linecap="round" stroke-linejoin="round" stroke-miterlimit="10" points="
			326.227,303.535 335.996,326.3 314.605,318.744 301.405,295.014 		"/>
		<linearGradient id="SVGID_19_" gradientUnits="userSpaceOnUse" x1="335.9961" y1="304.9771" x2="354.8682" y2="304.9771">
			<stop  offset="0" style="stop-color:#70CFEE"/>
			<stop  offset="1" style="stop-color:#489AD4"/>
		</linearGradient>
		
			<polygon fill="url(#SVGID_19_)" stroke="#FFFFFF" stroke-width="1.4795" stroke-linecap="round" stroke-linejoin="round" stroke-miterlimit="10" points="
			354.548,309.89 335.996,326.3 336.469,303.625 354.868,283.654 		"/>
		<linearGradient id="SVGID_20_" gradientUnits="userSpaceOnUse" x1="334.2764" y1="348.7549" x2="352.2119" y2="348.7549">
			<stop  offset="0" style="stop-color:#70CFEE"/>
			<stop  offset="1" style="stop-color:#489AD4"/>
		</linearGradient>
		
			<polygon fill="url(#SVGID_20_)" stroke="#FFFFFF" stroke-width="1.4795" stroke-linecap="round" stroke-linejoin="round" stroke-miterlimit="10" points="
			352.212,346.748 348.333,371.21 334.276,353.407 335.767,326.3 		"/>
	</g>
	<g>
		<linearGradient id="SVGID_21_" gradientUnits="userSpaceOnUse" x1="259.5313" y1="418.8975" x2="302.4404" y2="418.8975">
			<stop  offset="0" style="stop-color:#70CFEE"/>
			<stop  offset="1" style="stop-color:#489AD4"/>
		</linearGradient>
		
			<polygon fill="url(#SVGID_21_)" stroke="#FFFFFF" stroke-width="1.4795" stroke-linecap="round" stroke-linejoin="round" stroke-miterlimit="10" points="
			277.681,409.42 302.44,410.107 286.602,426.347 259.531,428.375 		"/>
		<linearGradient id="SVGID_22_" gradientUnits="userSpaceOnUse" x1="302.4404" y1="406.8477" x2="348.7773" y2="406.8477">
			<stop  offset="0" style="stop-color:#70CFEE"/>
			<stop  offset="1" style="stop-color:#489AD4"/>
		</linearGradient>
		
			<polygon fill="url(#SVGID_22_)" stroke="#FFFFFF" stroke-width="1.4795" stroke-linecap="round" stroke-linejoin="round" stroke-miterlimit="10" points="
			325.253,397.463 348.777,405.207 328.964,416.231 302.44,410.424 		"/>
		<linearGradient id="SVGID_23_" gradientUnits="userSpaceOnUse" x1="267.8516" y1="394.0518" x2="302.4404" y2="394.0518">
			<stop  offset="0" style="stop-color:#70CFEE"/>
			<stop  offset="1" style="stop-color:#489AD4"/>
		</linearGradient>
		
			<polygon fill="url(#SVGID_23_)" stroke="#FFFFFF" stroke-width="1.4795" stroke-linecap="round" stroke-linejoin="round" stroke-miterlimit="10" points="
			292.67,386.93 302.44,409.693 281.053,402.135 267.852,378.411 		"/>
		<linearGradient id="SVGID_24_" gradientUnits="userSpaceOnUse" x1="302.4404" y1="388.3706" x2="321.3086" y2="388.3706">
			<stop  offset="0" style="stop-color:#70CFEE"/>
			<stop  offset="1" style="stop-color:#489AD4"/>
		</linearGradient>
		
			<polygon fill="url(#SVGID_24_)" stroke="#FFFFFF" stroke-width="1.4795" stroke-linecap="round" stroke-linejoin="round" stroke-miterlimit="10" points="
			320.998,393.282 302.44,409.693 302.917,387.018 321.309,367.048 		"/>
		<linearGradient id="SVGID_25_" gradientUnits="userSpaceOnUse" x1="300.7207" y1="432.1484" x2="318.6582" y2="432.1484">
			<stop  offset="0" style="stop-color:#70CFEE"/>
			<stop  offset="1" style="stop-color:#489AD4"/>
		</linearGradient>
		
			<polygon fill="url(#SVGID_25_)" stroke="#FFFFFF" stroke-width="1.4795" stroke-linecap="round" stroke-linejoin="round" stroke-miterlimit="10" points="
			318.658,430.142 314.777,454.603 300.721,436.798 302.213,409.693 		"/>
	</g>
	<g>
		
			<linearGradient id="SVGID_26_" gradientUnits="userSpaceOnUse" x1="305.0527" y1="412.6777" x2="323.0608" y2="451.6306" gradientTransform="matrix(0.4196 -0.9077 0.9077 0.4196 -211.3643 480.4648)">
			<stop  offset="0" style="stop-color:#EF4862"/>
			<stop  offset="1" style="stop-color:#ED2024"/>
		</linearGradient>
		
			<polygon fill="url(#SVGID_26_)" stroke="#FFFFFF" stroke-width="1.4795" stroke-linecap="round" stroke-linejoin="round" stroke-miterlimit="10" points="
			309.38,367.252 334.137,367.939 318.301,384.178 291.224,386.203 		"/>
		
			<linearGradient id="SVGID_27_" gradientUnits="userSpaceOnUse" x1="388.6465" y1="329.1392" x2="419.3218" y2="363.8777" gradientTransform="matrix(0.6619 -0.7496 0.7496 0.6619 -169.8316 438.1527)">
			<stop  offset="0" style="stop-color:#EF4862"/>
			<stop  offset="1" style="stop-color:#ED2024"/>
		</linearGradient>
		
			<polygon fill="url(#SVGID_27_)" stroke="#FFFFFF" stroke-width="1.4795" stroke-linecap="round" stroke-linejoin="round" stroke-miterlimit="10" points="
			356.949,355.295 380.48,363.039 360.654,374.065 334.137,368.256 		"/>
		<linearGradient id="SVGID_28_" gradientUnits="userSpaceOnUse" x1="299.5508" y1="351.8853" x2="334.1367" y2="351.8853">
			<stop  offset="0" style="stop-color:#EF4862"/>
			<stop  offset="1" style="stop-color:#ED2024"/>
		</linearGradient>
		
			<polygon fill="url(#SVGID_28_)" stroke="#FFFFFF" stroke-width="1.4795" stroke-linecap="round" stroke-linejoin="round" stroke-miterlimit="10" points="
			324.367,344.766 334.137,367.527 312.746,359.967 299.551,336.243 		"/>
		
			<linearGradient id="SVGID_29_" gradientUnits="userSpaceOnUse" x1="275.7158" y1="384.2739" x2="281.6292" y2="366.3553" gradientTransform="matrix(0.3134 0.9496 -0.9496 0.3134 612.6336 -36.0468)">
			<stop  offset="0" style="stop-color:#EF4862"/>
			<stop  offset="1" style="stop-color:#ED2024"/>
		</linearGradient>
		
			<polygon fill="url(#SVGID_29_)" stroke="#FFFFFF" stroke-width="1.4795" stroke-linecap="round" stroke-linejoin="round" stroke-miterlimit="10" points="
			352.691,351.118 334.137,367.527 334.612,344.849 353.005,324.88 		"/>
		
			<linearGradient id="SVGID_30_" gradientUnits="userSpaceOnUse" x1="307.5664" y1="429.7803" x2="322.737" y2="420.2128" gradientTransform="matrix(0.8458 0.5334 -0.5334 0.8458 301.525 -137.5833)">
			<stop  offset="0" style="stop-color:#EF4862"/>
			<stop  offset="1" style="stop-color:#ED2024"/>
		</linearGradient>
		
			<polygon fill="url(#SVGID_30_)" stroke="#FFFFFF" stroke-width="1.4795" stroke-linecap="round" stroke-linejoin="round" stroke-miterlimit="10" points="
			350.354,387.969 346.477,412.437 332.42,394.635 333.903,367.527 		"/>
	</g>
	<g>
		<linearGradient id="SVGID_31_" gradientUnits="userSpaceOnUse" x1="341.123" y1="372.0352" x2="384.0352" y2="372.0352">
			<stop  offset="0" style="stop-color:#5DC3AF"/>
			<stop  offset="1" style="stop-color:#56C2B7"/>
		</linearGradient>
		
			<polygon fill="url(#SVGID_31_)" stroke="#FFFFFF" stroke-width="1.4795" stroke-linecap="round" stroke-linejoin="round" stroke-miterlimit="10" points="
			359.275,362.561 384.035,363.246 368.199,379.484 341.123,381.509 		"/>
		<linearGradient id="SVGID_32_" gradientUnits="userSpaceOnUse" x1="384.0352" y1="359.9878" x2="430.375" y2="359.9878">
			<stop  offset="0" style="stop-color:#5DC3AF"/>
			<stop  offset="1" style="stop-color:#56C2B7"/>
		</linearGradient>
		
			<polygon fill="url(#SVGID_32_)" stroke="#FFFFFF" stroke-width="1.4795" stroke-linecap="round" stroke-linejoin="round" stroke-miterlimit="10" points="
			406.848,350.601 430.375,358.347 410.555,369.375 384.035,363.56 		"/>
		<linearGradient id="SVGID_33_" gradientUnits="userSpaceOnUse" x1="349.4434" y1="347.1914" x2="384.0352" y2="347.1914">
			<stop  offset="0" style="stop-color:#5DC3AF"/>
			<stop  offset="1" style="stop-color:#56C2B7"/>
		</linearGradient>
		
			<polygon fill="url(#SVGID_33_)" stroke="#FFFFFF" stroke-width="1.4795" stroke-linecap="round" stroke-linejoin="round" stroke-miterlimit="10" points="
			374.268,340.069 384.035,362.832 362.645,355.276 349.443,331.551 		"/>
		<linearGradient id="SVGID_34_" gradientUnits="userSpaceOnUse" x1="384.0352" y1="341.5078" x2="402.9004" y2="341.5078">
			<stop  offset="0" style="stop-color:#5DC3AF"/>
			<stop  offset="1" style="stop-color:#56C2B7"/>
		</linearGradient>
		
			<polygon fill="url(#SVGID_34_)" stroke="#FFFFFF" stroke-width="1.4795" stroke-linecap="round" stroke-linejoin="round" stroke-miterlimit="10" points="
			402.59,346.424 384.035,362.832 384.508,340.158 402.9,320.184 		"/>
		<linearGradient id="SVGID_35_" gradientUnits="userSpaceOnUse" x1="382.3184" y1="385.2891" x2="400.25" y2="385.2891">
			<stop  offset="0" style="stop-color:#5DC3AF"/>
			<stop  offset="1" style="stop-color:#56C2B7"/>
		</linearGradient>
		
			<polygon fill="url(#SVGID_35_)" stroke="#FFFFFF" stroke-width="1.4795" stroke-linecap="round" stroke-linejoin="round" stroke-miterlimit="10" points="
			400.25,383.279 396.371,407.746 382.318,389.941 383.805,362.832 		"/>
	</g>
	<g>
		<linearGradient id="SVGID_36_" gradientUnits="userSpaceOnUse" x1="317.9551" y1="410.8262" x2="360.8613" y2="410.8262">
			<stop  offset="0" style="stop-color:#5DC3AF"/>
			<stop  offset="1" style="stop-color:#56C2B7"/>
		</linearGradient>
		
			<polygon fill="url(#SVGID_36_)" stroke="#FFFFFF" stroke-width="1.4795" stroke-linecap="round" stroke-linejoin="round" stroke-miterlimit="10" points="
			336.105,401.351 360.861,402.035 345.033,418.275 317.955,420.303 		"/>
		<linearGradient id="SVGID_37_" gradientUnits="userSpaceOnUse" x1="360.8613" y1="398.7734" x2="407.2051" y2="398.7734">
			<stop  offset="0" style="stop-color:#5DC3AF"/>
			<stop  offset="1" style="stop-color:#56C2B7"/>
		</linearGradient>
		
			<polygon fill="url(#SVGID_37_)" stroke="#FFFFFF" stroke-width="1.4795" stroke-linecap="round" stroke-linejoin="round" stroke-miterlimit="10" points="
			383.678,389.388 407.205,397.139 387.385,408.16 360.861,402.352 		"/>
		<linearGradient id="SVGID_38_" gradientUnits="userSpaceOnUse" x1="326.2734" y1="385.9834" x2="360.8613" y2="385.9834">
			<stop  offset="0" style="stop-color:#5DC3AF"/>
			<stop  offset="1" style="stop-color:#56C2B7"/>
		</linearGradient>
		
			<polygon fill="url(#SVGID_38_)" stroke="#FFFFFF" stroke-width="1.4795" stroke-linecap="round" stroke-linejoin="round" stroke-miterlimit="10" points="
			351.098,378.862 360.861,401.625 339.475,394.063 326.273,370.342 		"/>
		<linearGradient id="SVGID_39_" gradientUnits="userSpaceOnUse" x1="360.8613" y1="380.2998" x2="379.7334" y2="380.2998">
			<stop  offset="0" style="stop-color:#5DC3AF"/>
			<stop  offset="1" style="stop-color:#56C2B7"/>
		</linearGradient>
		
			<polygon fill="url(#SVGID_39_)" stroke="#FFFFFF" stroke-width="1.4795" stroke-linecap="round" stroke-linejoin="round" stroke-miterlimit="10" points="
			379.422,385.213 360.861,401.625 361.341,378.949 379.733,358.975 		"/>
		<linearGradient id="SVGID_40_" gradientUnits="userSpaceOnUse" x1="359.1484" y1="424.0801" x2="377.083" y2="424.0801">
			<stop  offset="0" style="stop-color:#5DC3AF"/>
			<stop  offset="1" style="stop-color:#56C2B7"/>
		</linearGradient>
		
			<polygon fill="url(#SVGID_40_)" stroke="#FFFFFF" stroke-width="1.4795" stroke-linecap="round" stroke-linejoin="round" stroke-miterlimit="10" points="
			377.083,422.072 373.205,446.534 359.148,428.729 360.641,401.625 		"/>
	</g>
	<g>
		
			<linearGradient id="SVGID_41_" gradientUnits="userSpaceOnUse" x1="233.3438" y1="350.7061" x2="251.349" y2="389.6527" gradientTransform="matrix(0.4196 -0.9077 0.9077 0.4196 -211.3643 480.4648)">
			<stop  offset="0" style="stop-color:#EF4862"/>
			<stop  offset="1" style="stop-color:#ED2024"/>
		</linearGradient>
		
			<polygon fill="url(#SVGID_41_)" stroke="#FFFFFF" stroke-width="1.4795" stroke-linecap="round" stroke-linejoin="round" stroke-miterlimit="10" points="
			223.029,406.34 247.789,407.024 231.954,423.262 204.883,425.289 		"/>
		
			<linearGradient id="SVGID_42_" gradientUnits="userSpaceOnUse" x1="302.1968" y1="290.2832" x2="332.8676" y2="325.0166" gradientTransform="matrix(0.6619 -0.7496 0.7496 0.6619 -169.8316 438.1527)">
			<stop  offset="0" style="stop-color:#EF4862"/>
			<stop  offset="1" style="stop-color:#ED2024"/>
		</linearGradient>
		
			<polygon fill="url(#SVGID_42_)" stroke="#FFFFFF" stroke-width="1.4795" stroke-linecap="round" stroke-linejoin="round" stroke-miterlimit="10" points="
			270.604,394.38 294.126,402.129 274.309,413.148 247.789,407.345 		"/>
		<linearGradient id="SVGID_43_" gradientUnits="userSpaceOnUse" x1="213.2036" y1="390.9707" x2="247.7891" y2="390.9707">
			<stop  offset="0" style="stop-color:#EF4862"/>
			<stop  offset="1" style="stop-color:#ED2024"/>
		</linearGradient>
		
			<polygon fill="url(#SVGID_43_)" stroke="#FFFFFF" stroke-width="1.4795" stroke-linecap="round" stroke-linejoin="round" stroke-miterlimit="10" points="
			238.022,383.851 247.789,406.613 226.404,399.055 213.204,375.328 		"/>
		
			<linearGradient id="SVGID_44_" gradientUnits="userSpaceOnUse" x1="285.7695" y1="478.5225" x2="291.684" y2="460.6006" gradientTransform="matrix(0.3134 0.9496 -0.9496 0.3134 612.6336 -36.0468)">
			<stop  offset="0" style="stop-color:#EF4862"/>
			<stop  offset="1" style="stop-color:#ED2024"/>
		</linearGradient>
		
			<polygon fill="url(#SVGID_44_)" stroke="#FFFFFF" stroke-width="1.4795" stroke-linecap="round" stroke-linejoin="round" stroke-miterlimit="10" points="
			266.343,390.203 247.789,406.613 248.268,383.938 266.661,363.964 		"/>
		
			<linearGradient id="SVGID_45_" gradientUnits="userSpaceOnUse" x1="255.3765" y1="508.9053" x2="270.55" y2="499.336" gradientTransform="matrix(0.8458 0.5334 -0.5334 0.8458 301.525 -137.5833)">
			<stop  offset="0" style="stop-color:#EF4862"/>
			<stop  offset="1" style="stop-color:#ED2024"/>
		</linearGradient>
		
			<polygon fill="url(#SVGID_45_)" stroke="#FFFFFF" stroke-width="1.4795" stroke-linecap="round" stroke-linejoin="round" stroke-miterlimit="10" points="
			264.01,427.063 260.131,451.523 246.072,433.719 247.562,406.613 		"/>
	</g>
	<path fill="none" stroke="#000000" stroke-width="2.949" stroke-linejoin="bevel" stroke-miterlimit="10" d="M175.716,448.232
		c0,0-5.997,0.05-10.081-5.854c-1.985-2.864-2.134-8.417-2.23-14.939c-0.056-3.792,0.264-10.999,0.264-15.78
		c0-1.063,0.087-15.664-0.121-24.529c-0.47-20.351-19.344-19.31-19.344-19.31v-0.02c0,0,18.875,1.037,19.344-19.312
		c0.208-8.865,0.121-23.466,0.121-24.531c0-4.776-0.32-11.983-0.264-15.776c0.096-6.522,0.246-12.077,2.23-14.941
		c4.084-5.899,10.081-5.851,10.081-5.851"/>
	<path fill="none" stroke="#000000" stroke-width="2.949" stroke-linejoin="bevel" stroke-miterlimit="10" d="M436.285,447.181
		c0,0,6,0.044,10.081-5.851c1.984-2.865,2.138-8.42,2.23-14.939c0.053-3.792-0.265-10.999-0.265-15.783
		c0-1.063-0.084-15.658,0.118-24.526c0.477-20.35,19.348-19.312,19.348-19.312v-0.019c0,0-18.871,1.036-19.348-19.316
		c-0.202-8.861-0.118-23.464-0.118-24.529c0-4.776,0.317-11.981,0.265-15.775c-0.093-6.522-0.246-12.078-2.23-14.944
		c-4.081-5.896-10.081-5.846-10.081-5.846"/>
</g>
</svg>
