<?xml version="1.0" encoding="utf-8"?>
<!-- Generator: Adobe Illustrator 16.0.0, SVG Export Plug-In . SVG Version: 6.00 Build 0)  -->
<!DOCTYPE svg PUBLIC "-//W3C//DTD SVG 1.1//EN" "http://www.w3.org/Graphics/SVG/1.1/DTD/svg11.dtd">
<svg version="1.1" id="Layer_1" xmlns="http://www.w3.org/2000/svg" xmlns:xlink="http://www.w3.org/1999/xlink" x="0px" y="0px"
	 width="792px" height="792px" viewBox="0 0 792 792" enable-background="new 0 0 792 792" xml:space="preserve">
<image display="none" overflow="visible" width="165" height="172" xlink:href="5DD87303.jpg"  transform="matrix(2.3023 0 0 2.3023 206.0586 211)">
</image>
<polyline fill="none" stroke="#066E77" stroke-width="4" stroke-miterlimit="10" points="494.256,110.785 494.256,172.592 
	475.647,191.199 475.647,268.194 453.192,290.649 454.613,290.649 423.926,290.649 "/>
<polyline fill="none" stroke="#066E77" stroke-width="4" stroke-miterlimit="10" points="665.068,267.05 616.875,267.05 
	592.139,242.314 540.456,242.314 505.475,277.294 505.475,317.359 "/>
<polyline fill="none" stroke="#066E77" stroke-width="4" stroke-miterlimit="10" points="687.8,287.468 615.406,287.468 
	576.415,326.459 "/>
<circle fill="#066E77" cx="638.578" cy="244.162" r="3.974"/>
<circle fill="#066E77" cx="663.743" cy="267.065" r="3.973"/>
<circle fill="#066E77" cx="686.637" cy="287.468" r="3.973"/>
<circle fill="#066E77" cx="509.793" cy="103.967" r="3.973"/>
<circle fill="#066E77" cx="494.256" cy="110.786" r="3.974"/>
<circle fill="#83C5BF" cx="542.888" cy="257.973" r="3.973"/>
<circle fill="#83C5BF" cx="556.717" cy="139.58" r="3.973"/>
<circle fill="#83C5BF" cx="542.888" cy="98.568" r="3.973"/>
<circle fill="#83C5BF" cx="502.35" cy="122.285" r="3.973"/>
<circle fill="#83C5BF" cx="486.035" cy="75.554" r="3.974"/>
<polyline fill="none" stroke="#83C5BF" stroke-width="4" stroke-miterlimit="10" points="642.432,277.437 610.467,277.437 
	570.544,317.359 "/>
<circle fill="#83C5BF" cx="642.432" cy="277.437" r="3.973"/>
<polyline fill="none" stroke="#066E77" stroke-width="4" stroke-miterlimit="10" points="461.559,384.354 476.869,384.354 
	502.35,358.873 544.001,358.873 576.415,326.459 "/>
<polyline fill="none" stroke="#066E77" stroke-width="4" stroke-miterlimit="10" points="459.091,357.721 474.086,357.721 
	498.087,333.72 498.087,274.903 542.304,230.687 543.614,230.687 625.1,230.687 637.859,243.446 "/>
<polyline fill="none" stroke="#066E77" stroke-width="4" stroke-miterlimit="10" points="459.091,336.042 472.301,336.042 
	490.983,317.359 490.983,244.162 509.793,225.352 509.793,103.967 "/>
<polyline fill="none" stroke="#066E77" stroke-width="4" stroke-miterlimit="10" points="451.92,372.331 473.245,372.331 
	505.475,340.102 505.475,317.359 "/>
<polyline fill="none" stroke="#83C5BF" stroke-width="4" stroke-miterlimit="10" points="459.091,349.802 538.101,349.802 
	570.544,317.359 "/>
<polyline fill="none" stroke="#83C5BF" stroke-width="4" stroke-miterlimit="10" points="451.92,340.495 533.58,340.495 
	556.717,317.359 556.717,139.58 "/>
<polyline fill="none" stroke="#83C5BF" stroke-width="4" stroke-miterlimit="10" points="453.625,328.325 516.956,328.325 
	527.923,317.359 527.923,272.938 542.888,257.973 "/>
<polyline fill="none" stroke="#066E77" stroke-width="4" stroke-miterlimit="10" points="644.322,359.805 628.026,343.509 
	591.957,343.509 542.888,392.578 462.986,392.578 "/>
<polyline fill="none" stroke="#83C5BF" stroke-width="4" stroke-miterlimit="10" points="640.898,317.37 604.249,317.359 
	604.249,317.359 558.351,363.257 520.019,401.589 456.051,401.589 "/>
<circle fill="#83C5BF" cx="642.551" cy="317.359" r="3.973"/>
<circle fill="#066E77" cx="644.322" cy="359.805" r="3.974"/>
<polyline fill="none" stroke="#83C5BF" stroke-width="4" stroke-miterlimit="10" points="396.893,313.386 396.893,273.829 
	417.58,253.142 508.791,253.142 542.888,219.045 542.888,98.568 "/>
<polyline fill="none" stroke="#83C5BF" stroke-width="4" stroke-miterlimit="10" points="381.5,326.459 381.5,269.898 
	407.236,244.162 426.372,244.162 482.633,244.162 482.064,244.162 502.35,223.875 502.35,122.285 "/>
<polyline fill="none" stroke="#83C5BF" stroke-width="4" stroke-miterlimit="10" points="365.648,336.042 365.648,260.293 
	396.893,229.048 423.926,229.048 459.671,229.048 468.063,220.655 468.063,186.179 486.035,168.207 486.035,74.416 "/>
<polyline fill="none" stroke="#066E77" stroke-width="4" stroke-miterlimit="10" points="403.5,196.5 424.926,196.5 441.925,213.5 
	441.925,287.468 "/>
<line fill="none" stroke="#066E77" stroke-width="4" stroke-miterlimit="10" x1="451.92" y1="287.468" x2="451.92" y2="165.5"/>
<polyline fill="none" stroke="#066E77" stroke-width="4" stroke-miterlimit="10" points="320.33,279.83 340,299.5 431,299.5 "/>
<circle fill="#066E77" cx="403.5" cy="196.5" r="3.974"/>
<circle fill="#066E77" cx="320.33" cy="279.83" r="3.974"/>
<circle fill="#066E77" cx="451.92" cy="165.5" r="3.974"/>
<line fill="none" stroke="#83C5BF" stroke-width="4" stroke-miterlimit="10" x1="365.648" y1="336.042" x2="365.648" y2="363.778"/>
<line fill="none" stroke="#83C5BF" stroke-width="4" stroke-miterlimit="10" x1="381.5" y1="326.459" x2="381.5" y2="347.387"/>
<g>
	<path fill="#90AAA6" d="M362.826,533.012c0,0-98.862-73.914-92.087-77.359c6.775-3.445,10.875-4.873,21.363,2.236
		c10.488,7.107,80.438,55.164,78.437,62.055C368.536,526.836,362.826,533.012,362.826,533.012z"/>
	<path fill="#D5E0DF" d="M271.78,419.602c0,0,4.815,0.986,8.94,7.412c0,0-12.233,12.693-11.181,17.117
		c1.05,4.422-13.057,21.752-13.89,20.205C254.816,462.789,268.348,423.109,271.78,419.602z"/>
	<path fill="#8C8C8C" d="M274.787,415.809c0,0,4.189-4.166,5.306-2.963c1.119,1.205,10.49,11.492,10.49,11.492
		s-9.208,4.748-9.863,2.676c-0.656-2.074-2.984-9.832-6.084-10.469"/>
	<path fill="#D5E0DF" d="M571.604,260.387c0,0,4.848-3.67,9.977-10.707c5.127-7.037,10.235-57.727,10.235-57.727
		c-2.278,3.46-7.896,5.215-19.016,9.3c-11.119,4.085-15.034,2.5-23.894,0.138c-8.859-2.361-11.357-17.396-11.357-17.396
		c-6.968,6.817-8.469,16.577-8.469,16.577s25.48,16.598,32.384,32.719C568.367,249.412,571.604,260.387,571.604,260.387z"/>
	<path fill="#D5E0DF" d="M357.757,367.95c0,0,33.876-61.998,58.087-86.72s71.875-66.237,92.174-72.212c0,0,6.073-2.448,10.899-2.245
		c4.825,0.202,39.722,15.738,46.796,47.174c7.074,31.435-31.228,75.458-49.531,96.319c-21.553,24.569-73.461,70.153-82.149,77.325
		c0,0,2.59-20.289-18.48-37.458c-16.144-13.154-19.882-15.164-27.02-17.879C381.395,369.537,372.332,366.653,357.757,367.95z"/>
	<path fill="#8C8C8C" d="M272.875,454.658c0,0,2.018-7.266,3.662-6.275c1.643,0.988,15.52,9.523,15.52,9.523
		s-6.542,10.398-8.158,8.09c-1.617-2.309-7.547-11.008-10.817-10.334"/>
	<path fill="#8C8C8C" d="M294.966,472.197c0,0,2.462-8.283,4.399-7.174c1.935,1.107,18.277,10.672,18.277,10.672
		s-7.85,11.889-9.739,9.279c-1.891-2.607-8.825-12.438-12.702-11.639"/>
	<path fill="#8C8C8C" d="M318.559,486.801c0,0,2.463-8.285,4.398-7.176c1.936,1.109,18.278,10.672,18.278,10.672
		s-7.85,11.889-9.741,9.279c-1.891-2.607-8.824-12.438-12.702-11.639"/>
	<path fill="#8C8C8C" d="M344.637,506.979c0,0,3.575-7.871,5.34-6.508c1.766,1.365,16.641,13.078,16.641,13.078
		s-9.405,10.701-10.92,7.857c-1.515-2.84-7.035-13.529-10.985-13.271"/>
	<path fill="#83C5BE" d="M411.461,318.015c0,0,44.962-51.723,49.889-53.934c0,0,42.862,22.269,43.908,24.445
		c1.047,2.176,1.047,2.176,1.047,2.176l-48.725,56.684L411.461,318.015z"/>
	<path fill="#D5E0DF" d="M341.836,388.885c0,0-55.749,13.38-61.148,22.226c0,0,5.066,18.787,6.41,17.418
		C287.099,428.529,313.087,399.35,341.836,388.885z"/>
	<path fill="#D5E0DF" d="M269.904,452.43c0,0,13.264,9.229,15.374,16.566c0,0-30.242,34.637-30.503,39.178
		c-0.261,4.539-17.449-7.768-17.803-9.49C236.617,496.963,265.61,454.809,269.904,452.43z"/>
	<path fill="#D5E0DF" d="M293.452,472.389c0,0,13.264,9.229,15.374,16.566c0,0-30.242,34.637-30.503,39.176
		s-17.448-7.768-17.803-9.488C260.165,516.92,289.158,474.766,293.452,472.389z"/>
	<path fill="#D5E0DF" d="M317.905,488.398c0,0,13.264,9.229,15.374,16.57c0,0-30.242,34.637-30.503,39.174
		c-0.26,4.541-17.448-7.768-17.802-9.488S313.611,490.779,317.905,488.398z"/>
	<path fill="#D5E0DF" d="M342.885,506.924c0,0,13.264,9.229,15.374,16.566c0,0-30.242,34.639-30.503,39.178
		c-0.261,4.537-17.448-7.77-17.803-9.49C309.598,551.455,338.591,509.303,342.885,506.924z"/>
	<path fill="#D5E0DF" d="M431.705,430.088c0.438,4.617-8.803,4.285-12.953,9.699c-6.129,7.992-10.895,28.404-10.895,28.404
		c-0.267,33.545-31.244,60.26-39.73,62.605c-8.488,2.348-6.928,6.906-1.418-6.883c6.336-15.859-96.239-75.264-96.239-75.264
		c2.497-5.299,33.693-33.854,42.837-41.717c9.145-7.865,31.738-14.312,36.985-20.775c5.247-6.465,5.136-15.711,5.136-15.711
		s26.17-2.801,43.811,11.303C416.879,395.857,429.136,403.107,431.705,430.088z"/>
	<path opacity="0.4" fill="#A4C1BD" d="M433.455,393.83c0,0,4.497,9.706,6.273,20.766c0,0,78.479-75.939,88.575-88.708
		c21.191-26.799,28.939-43.74,30.485-51.713c0,0-32.578,45.078-53.336,62.368C488.383,350.762,445.894,388.837,433.455,393.83z"/>
	<path fill="#8C8C8C" d="M247.221,497.887c-0.802,0.465-9.524,4.57-9.926,8.432c-0.4,3.861,4.916,9.346,7.64,8.783
		c0,0,7.106-3.975,4.667-5.654c-2.439-1.682-4.419,0.928-1.858-3.297c2.562-4.223-1.637-3.678,0.701-4.031
		C253.902,501.295,247.221,497.887,247.221,497.887z"/>
	<path fill="#D5E0DF" d="M235.25,505.662c0,0,12.615,3.396,16.255,8.41c0,0-15.15,32.281-16.432,37.484
		c-0.879,3.568-11.155-0.414-11.902-1.627C222.424,548.713,232.659,508.65,235.25,505.662z"/>
	<path fill="#8C8C8C" d="M272.399,512.301c-0.802,0.463-9.524,4.57-9.925,8.432s4.915,9.344,7.641,8.783
		c0,0,7.104-3.977,4.666-5.656c-2.439-1.68-4.419,0.93-1.858-3.295c2.561-4.227-1.638-3.68,0.7-4.031
		C279.081,515.707,272.399,512.301,272.399,512.301z"/>
	<path fill="#D5E0DF" d="M259.065,521.443c0,0,15.619,4.145,20.109,10.32c0,0-18.908,39.93-20.518,46.365
		c-1.104,4.408-13.821-0.465-14.742-1.963C242.993,574.67,255.842,525.146,259.065,521.443z"/>
	<path fill="#8C8C8C" d="M293.422,534.92c-0.801,0.465-9.524,4.57-9.925,8.432c-0.401,3.861,4.915,9.346,7.64,8.783
		c0,0,7.105-3.973,4.666-5.654c-2.439-1.68-4.419,0.928-1.857-3.297c2.562-4.223-1.638-3.676,0.7-4.031
		C300.104,538.328,293.422,534.92,293.422,534.92z"/>
	<path fill="#D5E0DF" d="M282.534,540.668c0,0,12.891,3.543,16.63,8.701c0,0-15.306,33.031-16.589,38.363
		c-0.88,3.652-11.386-0.48-12.155-1.729C269.651,584.756,279.904,543.719,282.534,540.668z"/>
	<path fill="#8C8C8C" d="M319.296,552.711c-0.801,0.463-9.523,4.572-9.925,8.432c-0.4,3.861,4.916,9.344,7.64,8.783
		c0,0,7.106-3.975,4.666-5.656c-2.439-1.68-4.418,0.93-1.857-3.293c2.562-4.227-1.638-3.68,0.7-4.033
		C325.979,556.117,319.296,552.711,319.296,552.711z"/>
	<path fill="#D5E0DF" d="M307.216,559.635c0,0,12.905,3.445,16.621,8.559c0,0-15.569,33.006-16.891,38.322
		c-0.907,3.646-11.416-0.4-12.178-1.639C294.005,603.639,304.559,562.691,307.216,559.635z"/>
</g>
</svg>
