<?xml version="1.0" encoding="utf-8"?>
<!-- Generator: Adobe Illustrator 16.0.0, SVG Export Plug-In . SVG Version: 6.00 Build 0)  -->
<!DOCTYPE svg PUBLIC "-//W3C//DTD SVG 1.1//EN" "http://www.w3.org/Graphics/SVG/1.1/DTD/svg11.dtd">
<svg version="1.1" id="Layer_1" xmlns="http://www.w3.org/2000/svg" xmlns:xlink="http://www.w3.org/1999/xlink" x="0px" y="0px"
	 width="542px" height="568px" viewBox="232.5 65 542 568" enable-background="new 232.5 65 542 568" xml:space="preserve">
<image display="none" overflow="visible" enable-background="new    " width="164" height="171" xlink:href="5DD87303.jpg"  transform="matrix(2.316 0 0 2.316 206.084 210.9785)">
</image>
<polyline fill="none" stroke="#066E77" stroke-width="4" stroke-miterlimit="10" points="552.256,117.785 552.256,179.592 
	533.646,198.199 533.646,275.193 511.192,297.648 512.613,297.648 481.926,297.648 "/>
<polyline fill="none" stroke="#066E77" stroke-width="4" stroke-miterlimit="10" points="723.068,274.05 674.875,274.05 
	650.139,249.314 598.456,249.314 563.475,284.294 563.475,324.359 "/>
<polyline fill="none" stroke="#066E77" stroke-width="4" stroke-miterlimit="10" points="745.8,294.468 673.406,294.468 
	634.415,333.459 "/>
<circle fill="#066E77" cx="696.578" cy="251.162" r="3.974"/>
<circle fill="#066E77" cx="721.743" cy="274.065" r="3.973"/>
<circle fill="#066E77" cx="744.637" cy="294.468" r="3.973"/>
<circle fill="#066E77" cx="567.793" cy="110.967" r="3.973"/>
<circle fill="#066E77" cx="552.256" cy="117.786" r="3.974"/>
<circle fill="#83C5BF" cx="600.888" cy="264.973" r="3.973"/>
<circle fill="#83C5BF" cx="614.717" cy="146.58" r="3.973"/>
<circle fill="#83C5BF" cx="600.888" cy="105.568" r="3.973"/>
<circle fill="#83C5BF" cx="560.35" cy="129.285" r="3.973"/>
<circle fill="#83C5BF" cx="544.035" cy="82.554" r="3.974"/>
<polyline fill="none" stroke="#83C5BF" stroke-width="4" stroke-miterlimit="10" points="700.432,284.438 668.467,284.438 
	628.544,324.359 "/>
<circle fill="#83C5BF" cx="700.432" cy="284.437" r="3.973"/>
<polyline fill="none" stroke="#066E77" stroke-width="4" stroke-miterlimit="10" points="519.559,391.354 534.869,391.354 
	560.35,365.873 602.001,365.873 634.415,333.459 "/>
<polyline fill="none" stroke="#066E77" stroke-width="4" stroke-miterlimit="10" points="517.091,364.721 532.086,364.721 
	556.087,340.721 556.087,281.902 600.304,237.688 601.614,237.688 683.1,237.688 695.859,250.445 "/>
<polyline fill="none" stroke="#066E77" stroke-width="4" stroke-miterlimit="10" points="517.091,343.042 530.301,343.042 
	548.983,324.359 548.983,251.162 567.793,232.352 567.793,110.967 "/>
<polyline fill="none" stroke="#066E77" stroke-width="4" stroke-miterlimit="10" points="509.92,379.331 531.245,379.331 
	563.475,347.102 563.475,324.359 "/>
<polyline fill="none" stroke="#83C5BF" stroke-width="4" stroke-miterlimit="10" points="517.091,356.802 596.101,356.802 
	628.544,324.359 "/>
<polyline fill="none" stroke="#83C5BF" stroke-width="4" stroke-miterlimit="10" points="509.92,347.495 591.58,347.495 
	614.717,324.359 614.717,146.58 "/>
<polyline fill="none" stroke="#83C5BF" stroke-width="4" stroke-miterlimit="10" points="511.625,335.325 574.956,335.325 
	585.923,324.359 585.923,279.938 600.888,264.973 "/>
<polyline fill="none" stroke="#066E77" stroke-width="4" stroke-miterlimit="10" points="702.322,366.805 686.026,350.509 
	649.957,350.509 600.888,399.578 520.986,399.578 "/>
<polyline fill="none" stroke="#83C5BF" stroke-width="4" stroke-miterlimit="10" points="698.898,324.37 662.249,324.359 
	662.249,324.359 616.351,370.257 578.019,408.589 514.051,408.589 "/>
<circle fill="#83C5BF" cx="700.551" cy="324.359" r="3.973"/>
<circle fill="#066E77" cx="702.322" cy="366.805" r="3.974"/>
<polyline fill="none" stroke="#83C5BF" stroke-width="4" stroke-miterlimit="10" points="454.893,320.386 454.893,280.829 
	475.58,260.143 566.791,260.143 600.888,226.045 600.888,105.568 "/>
<polyline fill="none" stroke="#83C5BF" stroke-width="4" stroke-miterlimit="10" points="439.5,333.459 439.5,276.898 
	465.236,251.162 484.372,251.162 540.633,251.162 540.064,251.162 560.35,230.875 560.35,129.285 "/>
<polyline fill="none" stroke="#83C5BF" stroke-width="4" stroke-miterlimit="10" points="423.648,343.042 423.648,267.293 
	454.893,236.048 481.926,236.048 517.671,236.048 526.063,227.655 526.063,193.18 544.035,175.207 544.035,81.416 "/>
<polyline fill="none" stroke="#066E77" stroke-width="4" stroke-miterlimit="10" points="461.5,203.5 482.926,203.5 499.925,220.5 
	499.925,294.468 "/>
<line fill="none" stroke="#066E77" stroke-width="4" stroke-miterlimit="10" x1="509.92" y1="294.468" x2="509.92" y2="172.5"/>
<polyline fill="none" stroke="#066E77" stroke-width="4" stroke-miterlimit="10" points="378.33,286.83 398,306.5 489,306.5 "/>
<circle fill="#066E77" cx="461.5" cy="203.5" r="3.975"/>
<circle fill="#066E77" cx="378.33" cy="286.83" r="3.975"/>
<circle fill="#066E77" cx="509.92" cy="172.5" r="3.975"/>
<line fill="none" stroke="#83C5BF" stroke-width="4" stroke-miterlimit="10" x1="423.648" y1="343.042" x2="423.648" y2="370.777"/>
<line fill="none" stroke="#83C5BF" stroke-width="4" stroke-miterlimit="10" x1="439.5" y1="333.459" x2="439.5" y2="354.387"/>
<g>
	<path fill="#90AAA6" d="M420.826,540.012c0,0-98.862-73.914-92.087-77.357c6.774-3.445,10.875-4.873,21.362,2.234
		c10.488,7.107,80.438,55.164,78.438,62.057C426.536,533.836,420.826,540.012,420.826,540.012z"/>
	<path fill="#D5E0DF" d="M329.78,426.602c0,0,4.814,0.986,8.939,7.412c0,0-12.232,12.693-11.181,17.117
		c1.05,4.422-13.057,21.752-13.89,20.205S326.348,430.109,329.78,426.602z"/>
	<path fill="#8C8C8C" d="M332.787,422.809c0,0,4.188-4.166,5.306-2.963c1.119,1.205,10.49,11.492,10.49,11.492
		s-9.208,4.748-9.863,2.676s-2.983-9.832-6.084-10.469"/>
	<path fill="#D5E0DF" d="M629.604,267.387c0,0,4.85-3.67,9.979-10.707c5.127-7.037,10.235-57.727,10.235-57.727
		c-2.278,3.46-7.896,5.215-19.018,9.3c-11.119,4.085-15.034,2.5-23.894,0.138c-8.859-2.36-11.357-17.396-11.357-17.396
		c-6.968,6.817-8.469,16.577-8.469,16.577s25.479,16.598,32.384,32.719C626.367,256.412,629.604,267.387,629.604,267.387z"/>
	<path fill="#D5E0DF" d="M415.757,374.95c0,0,33.876-61.998,58.087-86.72c24.211-24.723,71.875-66.237,92.174-72.213
		c0,0,6.073-2.447,10.899-2.244c4.825,0.201,39.722,15.737,46.796,47.174c7.074,31.435-31.228,75.458-49.531,96.318
		c-21.553,24.569-73.461,70.153-82.147,77.325c0,0,2.59-20.289-18.48-37.458c-16.144-13.154-19.882-15.164-27.02-17.879
		C439.395,376.537,430.332,373.652,415.757,374.95z"/>
	<path fill="#8C8C8C" d="M330.875,461.658c0,0,2.018-7.268,3.662-6.275c1.643,0.988,15.52,9.523,15.52,9.523
		s-6.542,10.396-8.157,8.09c-1.617-2.309-7.548-11.008-10.817-10.334"/>
	<path fill="#8C8C8C" d="M352.966,479.197c0,0,2.462-8.283,4.399-7.174c1.935,1.105,18.275,10.672,18.275,10.672
		s-7.85,11.889-9.737,9.277c-1.893-2.605-8.825-12.438-12.702-11.639"/>
	<path fill="#8C8C8C" d="M376.559,493.801c0,0,2.465-8.285,4.398-7.176c1.936,1.109,18.278,10.672,18.278,10.672
		s-7.852,11.889-9.741,9.279c-1.893-2.607-8.824-12.438-12.702-11.641"/>
	<path fill="#8C8C8C" d="M402.637,513.979c0,0,3.575-7.869,5.34-6.508c1.768,1.365,16.643,13.078,16.643,13.078
		s-9.405,10.701-10.92,7.857c-1.517-2.84-7.035-13.529-10.985-13.271"/>
	<path fill="#83C5BE" d="M469.461,325.016c0,0,44.962-51.724,49.889-53.935c0,0,42.862,22.269,43.908,24.444
		c1.047,2.177,1.047,2.177,1.047,2.177l-48.725,56.685L469.461,325.016z"/>
	<path fill="#D5E0DF" d="M399.836,395.885c0,0-55.749,13.38-61.148,22.228c0,0,5.066,18.787,6.41,17.418
		C345.099,435.529,371.087,406.35,399.836,395.885z"/>
	<path fill="#D5E0DF" d="M327.904,459.43c0,0,13.264,9.229,15.374,16.566c0,0-30.242,34.637-30.503,39.178
		c-0.262,4.539-17.449-7.768-17.803-9.49C294.617,503.963,323.61,461.809,327.904,459.43z"/>
	<path fill="#D5E0DF" d="M351.452,479.389c0,0,13.264,9.229,15.374,16.566c0,0-30.242,34.637-30.503,39.176
		s-17.448-7.768-17.804-9.488C318.165,523.92,347.158,481.766,351.452,479.389z"/>
	<path fill="#D5E0DF" d="M375.905,495.398c0,0,13.264,9.229,15.374,16.568c0,0-30.242,34.639-30.503,39.174
		c-0.261,4.541-17.448-7.768-17.803-9.486C342.62,539.934,371.611,497.779,375.905,495.398z"/>
	<path fill="#D5E0DF" d="M400.885,513.924c0,0,13.266,9.229,15.374,16.566c0,0-30.242,34.639-30.503,39.178
		c-0.261,4.537-17.448-7.77-17.803-9.49C367.598,558.455,396.591,516.303,400.885,513.924z"/>
	<path fill="#D5E0DF" d="M489.705,437.088c0.438,4.617-8.803,4.285-12.953,9.699c-6.129,7.992-10.895,28.404-10.895,28.404
		c-0.269,33.545-31.244,60.26-39.73,62.604c-8.488,2.349-6.928,6.906-1.418-6.883c6.336-15.859-96.239-75.264-96.239-75.264
		c2.497-5.301,33.693-33.854,42.837-41.719c9.146-7.863,31.738-14.312,36.985-20.773c5.247-6.465,5.136-15.711,5.136-15.711
		s26.17-2.801,43.813,11.303C474.879,402.857,487.136,410.107,489.705,437.088z"/>
	<path opacity="0.4" fill="#A4C1BD" enable-background="new    " d="M491.455,400.83c0,0,4.497,9.706,6.273,20.766
		c0,0,78.479-75.938,88.573-88.707c21.191-26.8,28.939-43.74,30.485-51.714c0,0-32.578,45.078-53.336,62.368
		C546.383,357.762,503.895,395.837,491.455,400.83z"/>
	<path fill="#8C8C8C" d="M305.221,504.887c-0.802,0.465-9.523,4.57-9.926,8.434c-0.4,3.859,4.916,9.346,7.641,8.781
		c0,0,7.105-3.975,4.666-5.652c-2.438-1.684-4.418,0.928-1.857-3.297c2.562-4.225-1.637-3.68,0.701-4.031
		C311.902,508.295,305.221,504.887,305.221,504.887z"/>
	<path fill="#D5E0DF" d="M293.25,512.662c0,0,12.615,3.396,16.255,8.41c0,0-15.149,32.279-16.432,37.482
		c-0.88,3.568-11.155-0.414-11.902-1.627C280.424,555.713,290.659,515.65,293.25,512.662z"/>
	<path fill="#8C8C8C" d="M330.399,519.301c-0.803,0.463-9.524,4.57-9.926,8.434c-0.4,3.86,4.915,9.344,7.642,8.781
		c0,0,7.104-3.977,4.666-5.654c-2.439-1.682-4.419,0.93-1.858-3.295c2.562-4.229-1.638-3.682,0.7-4.031
		C337.081,522.707,330.399,519.301,330.399,519.301z"/>
	<path fill="#D5E0DF" d="M317.065,528.443c0,0,15.618,4.145,20.108,10.318c0,0-18.908,39.932-20.518,46.365
		c-1.104,4.408-13.821-0.465-14.742-1.963C300.993,581.67,313.842,532.146,317.065,528.443z"/>
	<path fill="#8C8C8C" d="M351.422,541.92c-0.801,0.465-9.523,4.57-9.925,8.432c-0.401,3.862,4.915,9.348,7.64,8.783
		c0,0,7.105-3.973,4.666-5.652c-2.438-1.681-4.419,0.928-1.856-3.299c2.562-4.223-1.639-3.676,0.7-4.029
		C358.104,545.328,351.422,541.92,351.422,541.92z"/>
	<path fill="#D5E0DF" d="M340.534,547.668c0,0,12.891,3.543,16.63,8.701c0,0-15.306,33.031-16.589,38.363
		c-0.88,3.65-11.386-0.48-12.155-1.729C327.651,591.756,337.904,550.719,340.534,547.668z"/>
	<path fill="#8C8C8C" d="M377.296,559.711c-0.801,0.463-9.521,4.572-9.925,8.432c-0.4,3.861,4.916,9.346,7.64,8.783
		c0,0,7.106-3.975,4.666-5.656c-2.438-1.68-4.418,0.932-1.855-3.293c2.562-4.227-1.64-3.68,0.698-4.031
		C383.979,563.117,377.296,559.711,377.296,559.711z"/>
	<path fill="#D5E0DF" d="M365.216,566.635c0,0,12.905,3.445,16.621,8.561c0,0-15.569,33.006-16.891,38.32
		c-0.907,3.646-11.416-0.398-12.179-1.639C352.005,610.639,362.559,569.691,365.216,566.635z"/>
</g>
</svg>
