<?xml version="1.0" encoding="utf-8"?>
<!-- Generator: Adobe Illustrator 16.0.0, SVG Export Plug-In . SVG Version: 6.00 Build 0)  -->
<!DOCTYPE svg PUBLIC "-//W3C//DTD SVG 1.1//EN" "http://www.w3.org/Graphics/SVG/1.1/DTD/svg11.dtd">
<svg version="1.1" xmlns="http://www.w3.org/2000/svg" xmlns:xlink="http://www.w3.org/1999/xlink" x="0px" y="0px" width="1366px"
	 height="769px" viewBox="0 0 1366 769" enable-background="new 0 0 1366 769" xml:space="preserve">
<g id="Layer_4">
	<polyline fill="none" stroke="#83C5BE" stroke-width="6" stroke-miterlimit="10" points="739.058,707.695 879.398,707.695 
		907.422,735.719 907.422,734.934 907.422,812.654 	"/>
	<polyline fill="none" stroke="#83C5BE" stroke-width="6" stroke-miterlimit="10" points="714.002,651.694 880.435,651.694 
		927.537,698.797 927.537,824.799 	"/>
	<polyline fill="none" stroke="#006D77" stroke-width="6" stroke-miterlimit="10" points="711.007,691.924 878.693,691.924 
		904.678,717.907 1005.796,717.907 	"/>
	<polyline fill="none" stroke="#006D77" stroke-width="6" stroke-miterlimit="10" points="882.776,527.754 865.15,545.38 
		865.15,657.948 865.15,659.759 926.231,720.84 1007.485,720.84 	"/>
	<polyline fill="none" stroke="#006D77" stroke-width="6" stroke-miterlimit="10" points="720.428,720.839 805.808,720.839 
		831.513,746.544 937.878,746.544 968.898,777.564 968.898,775.603 968.898,817.995 	"/>
	<polyline fill="none" stroke="#83C5BE" stroke-width="6" stroke-miterlimit="10" points="947.297,597.65 967.97,618.323 
		1029.335,618.323 	"/>
	<polyline fill="none" stroke="#006D77" stroke-width="6" stroke-miterlimit="10" points="936.297,477.419 936.297,543.996 
		902.125,578.167 902.125,649.564 950.449,697.889 1005.796,697.889 	"/>
	<polyline fill="none" stroke="#006D77" stroke-width="6" stroke-miterlimit="10" points="964.223,458.249 964.223,558.257 
		1018.087,612.12 	"/>
	<circle fill="#006D77" cx="881.959" cy="527.756" r="5.489"/>
	<circle fill="#006D77" cx="936.318" cy="479.25" r="5.489"/>
	<circle fill="#006D77" cx="964.033" cy="459.856" r="5.489"/>
	<circle fill="#006D77" cx="711.007" cy="691.924" r="5.489"/>
	<circle fill="#006D77" cx="720.428" cy="720.84" r="5.489"/>
	<circle fill="#83C5BE" cx="947.297" cy="597.65" r="5.489"/>
	<circle fill="#83C5BE" cx="714.002" cy="651.694" r="5.489"/>
	<circle fill="#83C5BE" cx="739.057" cy="707.695" r="5.489"/>
	
		<line fill="none" stroke="#83C5BE" stroke-width="6" stroke-miterlimit="10" x1="904.678" y1="807.165" x2="904.678" y2="810.544"/>
	<line fill="none" stroke="#83C5BE" stroke-width="6" stroke-miterlimit="10" x1="916.57" y1="621.252" x2="823.24" y2="621.252"/>
	<polyline fill="none" stroke="#83C5BE" stroke-width="6" stroke-miterlimit="10" points="797.582,561 797.581,594.492 
		824.341,621.252 916.57,621.252 936.318,641 1023.5,642 	"/>
	<circle fill="#83C5BE" cx="797.581" cy="557.65" r="5.489"/>
</g>
<g id="Layer_3">
	<polygon fill="#EDF6F9" points="850.776,0 717.916,153.797 717.916,397.58 754.942,440.441 820.77,440.441 858.387,396.896 
		937.591,396.896 1006.2,476.317 1006.2,603 898.792,727.334 869.706,727.334 833.352,769.417 1366,769.417 1366,0 	"/>
	<linearGradient id="SVGID_1_" gradientUnits="userSpaceOnUse" x1="1366" y1="384.708" x2="717.916" y2="384.7081">
		<stop  offset="0.3065" style="stop-color:#006D77"/>
		<stop  offset="0.6935" style="stop-color:#338F92;stop-opacity:0.8"/>
		<stop  offset="0.9946" style="stop-color:#83C5BE"/>
		<stop  offset="1" style="stop-color:#83C5BE"/>
	</linearGradient>
	<polygon fill="url(#SVGID_1_)" points="850.776,0 717.916,153.797 717.916,397.58 754.942,440.441 820.77,440.441 858.387,396.896 
		937.591,396.896 1006.2,476.317 1006.2,603 898.792,727.334 869.706,727.334 833.352,769.417 1366,769.417 1366,0 	"/>
	<line fill="none" x1="774.394" y1="335.335" x2="820.77" y2="335.335"/>
	<linearGradient id="SVGID_2_" gradientUnits="userSpaceOnUse" x1="1212.2764" y1="384.5" x2="1366" y2="384.5">
		<stop  offset="0" style="stop-color:#83C5BE;stop-opacity:0.6"/>
		<stop  offset="1" style="stop-color:#EDF6F9;stop-opacity:0"/>
	</linearGradient>
	<polyline fill="url(#SVGID_2_)" points="1366,769 1366,0 1260.23,0 1226.493,39.053 1226.493,253.597 1295.296,333.241 
		1295.296,518.963 1295.296,518.963 1235.987,615.065 1235.987,615.065 1235.987,615.065 1238.202,767.427 1238.202,767.427 
		1238.202,767.427 1212.276,767.427 1212.276,767.427 1212.276,767.427 1366,767.427 	"/>
	<linearGradient id="SVGID_3_" gradientUnits="userSpaceOnUse" x1="931.8145" y1="51.0044" x2="1027.7041" y2="51.0044">
		<stop  offset="0" style="stop-color:#FFFFFF;stop-opacity:0.6"/>
		<stop  offset="0.686" style="stop-color:#FFFFFF;stop-opacity:0.051"/>
		<stop  offset="1" style="stop-color:#FFFFFF;stop-opacity:0"/>
	</linearGradient>
	<polyline fill="url(#SVGID_3_)" points="1027.442,34.353 998.673,67.656 931.814,67.656 960.322,34.656 1027.704,34.656 	"/>
	
		<linearGradient id="SVGID_4_" gradientUnits="userSpaceOnUse" x1="1183.9893" y1="111.2007" x2="1395.2266" y2="111.2007" gradientTransform="matrix(-4.371139e-008 1 -1 -4.371139e-008 1350.8516 -894.145)">
		<stop  offset="0" style="stop-color:#FFFFFF;stop-opacity:0.6"/>
		<stop  offset="0.686" style="stop-color:#FFFFFF;stop-opacity:0.051"/>
		<stop  offset="1" style="stop-color:#FFFFFF;stop-opacity:0"/>
	</linearGradient>
	<polyline fill="url(#SVGID_4_)" points="1267.025,500.506 1212.276,437.131 1212.276,289.845 1266.527,352.646 1266.527,501.082 	
		"/>
	
		<linearGradient id="SVGID_5_" gradientUnits="userSpaceOnUse" x1="1139.7344" y1="183.2002" x2="928.4971" y2="183.2002" gradientTransform="matrix(-4.371139e-008 1 -1 -4.371139e-008 1350.8516 -894.145)">
		<stop  offset="0" style="stop-color:#FFFFFF;stop-opacity:0.6"/>
		<stop  offset="0.686" style="stop-color:#FFFFFF;stop-opacity:0.051"/>
		<stop  offset="1" style="stop-color:#FFFFFF;stop-opacity:0"/>
	</linearGradient>
	<polyline fill="url(#SVGID_5_)" points="1194.017,245.014 1141.285,181.639 1141.285,34.353 1193.537,97.154 1193.537,245.59 	"/>
	<linearGradient id="SVGID_6_" gradientUnits="userSpaceOnUse" x1="806.1396" y1="361.667" x2="806.1396" y2="58.3535">
		<stop  offset="0" style="stop-color:#FFFFFF;stop-opacity:0.6"/>
		<stop  offset="0.686" style="stop-color:#FFFFFF;stop-opacity:0.051"/>
		<stop  offset="1" style="stop-color:#FFFFFF;stop-opacity:0"/>
	</linearGradient>
	<polygon fill="url(#SVGID_6_)" points="862.4,153.409 810.221,213.812 810.221,257.189 853.951,307.812 853.951,337.906 
		833.425,361.667 796.402,361.667 749.879,307.812 749.879,188.606 862.4,58.354 	"/>
	<linearGradient id="SVGID_7_" gradientUnits="userSpaceOnUse" x1="274.5513" y1="769.417" x2="274.5513" y2="625.8154">
		<stop  offset="0" style="stop-color:#006D77"/>
		<stop  offset="1" style="stop-color:#83C5BE;stop-opacity:0.5"/>
	</linearGradient>
	<polyline fill="url(#SVGID_7_)" points="0,769.417 549.102,769.417 405.5,625.815 94.902,625.815 0,720.718 	"/>
	<linearGradient id="SVGID_8_" gradientUnits="userSpaceOnUse" x1="367.6001" y1="769.417" x2="367.6001" y2="613.4189">
		<stop  offset="0" style="stop-color:#006D77"/>
		<stop  offset="1" style="stop-color:#83C5BE"/>
	</linearGradient>
	<polyline fill="url(#SVGID_8_)" points="52.598,769.417 682.602,769.417 517.843,613.419 161.482,613.419 52.598,716.514 	"/>
</g>
<g id="Layer_2">
	<polyline fill="none" stroke="#83C5BE" stroke-width="6" stroke-miterlimit="10" points="343.265,138 164.5,138 128.804,102.304 
		128.804,103.304 128.804,4.304 	"/>
	<polyline fill="none" stroke="#83C5BE" stroke-width="6" stroke-miterlimit="10" points="385,209.333 173,209.333 113,149.333 
		113,-11.167 	"/>
	<polyline fill="none" stroke="#006D77" stroke-width="6" stroke-miterlimit="10" points="375.5,151.098 161.902,151.098 
		128.804,118 0,118 	"/>
	<polyline fill="none" stroke="#006D77" stroke-width="6" stroke-miterlimit="10" points="130.063,376.452 152.515,354 
		152.515,210.611 152.515,208.306 74.709,130.5 -28.791,130.5 	"/>
	<polyline fill="none" stroke="#006D77" stroke-width="6" stroke-miterlimit="10" points="363.5,123.757 254.743,123.757 
		222,91.014 86.514,91.014 47,51.5 47,54 47,0 	"/>
	<line fill="none" stroke="#83C5BE" stroke-width="6" stroke-miterlimit="10" x1="0" y1="233.667" x2="312.833" y2="233.667"/>
	<polyline fill="none" stroke="#83C5BE" stroke-width="6" stroke-miterlimit="10" points="104.5,209.333 78.167,183 0,183 	"/>
	<polyline fill="none" stroke="#006D77" stroke-width="6" stroke-miterlimit="10" points="88.527,424.332 88.527,339.527 
		132.055,296 132.055,205.055 70.5,143.5 0,143.5 	"/>
	<polyline fill="none" stroke="#006D77" stroke-width="6" stroke-miterlimit="10" points="52.598,464.332 52.598,336.943 
		-16.013,268.332 	"/>
	<polyline fill="none" stroke="#83C5BE" stroke-width="6" stroke-miterlimit="10" points="155.398,0 155.398,62.897 170.167,77.667 
		230.833,77.667 262.458,109.292 427.5,109.292 	"/>
	<circle fill="#006D77" cx="128.803" cy="377.717" r="6.992"/>
	<circle fill="#006D77" cx="88.5" cy="422" r="6.992"/>
	<circle fill="#006D77" cx="52.598" cy="462.284" r="6.992"/>
	<circle fill="#006D77" cx="375.5" cy="151.098" r="6.992"/>
	<circle fill="#006D77" cx="363.5" cy="123.757" r="6.992"/>
	<circle fill="#83C5BE" cx="104.5" cy="209.333" r="6.992"/>
	<circle fill="#83C5BE" cx="312.833" cy="233.667" r="6.992"/>
	<circle fill="#83C5BE" cx="385" cy="209.333" r="6.992"/>
	<circle fill="#83C5BE" cx="343.265" cy="138" r="6.992"/>
	<circle fill="#83C5BE" cx="425.5" cy="109.291" r="6.992"/>
	<line fill="none" stroke="#83C5BE" stroke-width="6" stroke-miterlimit="10" x1="128.804" y1="4.304" x2="128.804" y2="0"/>
	<line fill="none" stroke="#83C5BE" stroke-width="6" stroke-miterlimit="10" x1="0" y1="258" x2="70.25" y2="328.25"/>
	<line fill="none" stroke="#83C5BE" stroke-width="6" stroke-miterlimit="10" x1="70.25" y1="328.25" x2="70.25" y2="384.5"/>
	<circle fill="#83C5BE" cx="70.25" cy="384.5" r="6.992"/>
</g>
</svg>
