<?xml version="1.0" encoding="utf-8"?>
<!-- Generator: Adobe Illustrator 16.0.0, SVG Export Plug-In . SVG Version: 6.00 Build 0)  -->
<!DOCTYPE svg PUBLIC "-//W3C//DTD SVG 1.1//EN" "http://www.w3.org/Graphics/SVG/1.1/DTD/svg11.dtd">
<svg version="1.1" id="Layer_1" xmlns="http://www.w3.org/2000/svg" xmlns:xlink="http://www.w3.org/1999/xlink" x="0px" y="0px"
	 width="1370.133px" height="792px" viewBox="0 0 1370.133 792" enable-background="new 0 0 1370.133 792" xml:space="preserve">
<g id="Group_182" transform="translate(0)" display="none">
	
		<linearGradient id="Path_152_1_" gradientUnits="userSpaceOnUse" x1="290.2544" y1="792.5254" x2="289.2551" y2="791.5361" gradientTransform="matrix(1370.1333 0 0 -792 -396365.6875 627660.5)">
		<stop  offset="0" style="stop-color:#A52EFF"/>
		<stop  offset="1" style="stop-color:#3D58F3"/>
	</linearGradient>
	<path id="Path_152" display="inline" fill="url(#Path_152_1_)" d="M0,792c0,0,138.5-112.93,310-121.387s208.5,80.593,376,87.558
		c167.5,6.965,159.5-115.417,308-125.371s188.5,92.533,286,85.568s90-47.759,90-47.759V0H0V792z"/>
	
		<linearGradient id="Path_196_1_" gradientUnits="userSpaceOnUse" x1="289.6748" y1="792.6191" x2="288.6748" y2="791.6292" gradientTransform="matrix(496.379 0 0 -792 -143355.3594 627660.5)">
		<stop  offset="0" style="stop-color:#FFFFFF;stop-opacity:0.161"/>
		<stop  offset="1" style="stop-color:#FFFFFF;stop-opacity:0"/>
	</linearGradient>
	<path id="Path_196" display="inline" fill="url(#Path_196_1_)" d="M0,0h316.021C333.947,205.709,601.786,234.539,450,302
		c-162,72-212,170-168,270c19.387,44.063,32.951,76.089,42.058,98.13c-4.579,0.088-9.273,0.248-14.058,0.484
		C138.5,679.071,0,792,0,792V0z"/>
	
		<linearGradient id="Path_197_1_" gradientUnits="userSpaceOnUse" x1="289.8906" y1="792.5781" x2="288.8906" y2="791.5881" gradientTransform="matrix(643.3043 0 0 -613.953 -185173.5469 486558.25)">
		<stop  offset="0" style="stop-color:#FFFFFF;stop-opacity:0.2"/>
		<stop  offset="1" style="stop-color:#FFFFFF;stop-opacity:0"/>
	</linearGradient>
	<path id="Path_197" display="inline" fill="url(#Path_197_1_)" d="M970,326c98-120-200-10-234-116
		c-25.527-79.584,5.033-151.278,48.299-210h232.18c51.83,55.043,162.617,101.094,297.518,92c27.564-1.858,45.6,3.178,56,13.757
		v83.669c-35,95.453-144.1,243.066-218,360.574c-28.631,45.528-59.23,63.959-88.053,63.953C969.954,613.934,895,417.838,970,326z"/>
	
		<circle id="Ellipse_68" display="inline" opacity="0.2" fill="#FFFFFF" enable-background="new    " cx="496.5" cy="569.5" r="13.5"/>
	
		<circle id="Ellipse_69" display="inline" opacity="0.2" fill="#FFFFFF" enable-background="new    " cx="337.5" cy="60.5" r="15.5"/>
	<circle id="Ellipse_70" display="inline" opacity="0.2" fill="#FFFFFF" enable-background="new    " cx="1155" cy="53" r="8"/>
	<g id="Path_155" transform="matrix(0.259, 0.966, -0.966, 0.259, 73.396, 351.263)" display="inline" opacity="0.2">
		<path fill="none" d="M25.7,12.271C29.06,6.392,36.549,4.35,42.427,7.709c1.9,1.086,3.475,2.661,4.562,4.562l19.744,34.546
			c3.359,5.879,1.316,13.368-4.563,16.727c-1.853,1.058-3.949,1.615-6.082,1.615H16.608c-6.771-0.001-12.26-5.49-12.259-12.261
			c0-2.133,0.557-4.229,1.615-6.081L25.7,12.271z"/>
		<path fill="#FFFFFF" d="M36.349,14.093c-0.744,0-2.592,0.209-3.699,2.147L12.91,50.786c-1.099,1.922-0.356,3.614,0.014,4.252
			c0.37,0.638,1.471,2.122,3.685,2.122l39.482,0c2.214,0,3.314-1.484,3.685-2.122c0.37-0.638,1.113-2.33,0.014-4.252L40.048,16.24
			C38.941,14.302,37.092,14.093,36.349,14.093 M36.349,6.093c4.146,0,8.292,2.059,10.645,6.177l19.74,34.546
			c4.671,8.173-1.231,18.342-10.645,18.343l-39.481,0c-9.414,0-15.315-10.17-10.645-18.343l19.741-34.546
			C28.058,8.153,32.203,6.093,36.349,6.093z"/>
	</g>
	<path id="Path_195" display="inline" opacity="0.2" fill="#FFFFFF" enable-background="new    " d="M1256.499,603
		c-6.236,0.017-12.219-2.462-16.617-6.883c-4.42-4.397-6.898-10.381-6.883-16.617c-0.018-6.236,2.461-12.221,6.883-16.618
		c4.398-4.421,10.383-6.898,16.617-6.882c6.236-0.017,12.221,2.462,16.617,6.883c4.422,4.397,6.9,10.381,6.883,16.617
		c0.018,6.236-2.461,12.22-6.883,16.617C1268.719,600.538,1262.735,603.017,1256.499,603z M1256.499,562.714
		c-9.266,0.011-16.773,7.521-16.785,16.786c0.008,9.267,7.52,16.777,16.785,16.786c9.268-0.008,16.779-7.519,16.787-16.786
		C1273.274,570.233,1265.766,562.725,1256.499,562.714z"/>
</g>
<g id="Layer_3">
	<polygon fill="#EDF6F9" points="0,515.225 153.797,648.084 397.58,648.084 440.441,611.059 440.441,545.231 396.896,507.613 
		396.896,428.41 476.317,359.801 603,359.801 727.334,467.209 727.334,496.295 769.417,532.648 769.417,0 0,0 	"/>
	
		<linearGradient id="SVGID_1_" gradientUnits="userSpaceOnUse" x1="992.7075" y1="695.5831" x2="344.6235" y2="695.5829" gradientTransform="matrix(1.192488e-008 -1 -1 -1.192488e-008 1080.2915 992.7076)">
		<stop  offset="0.3065" style="stop-color:#006D77"/>
		<stop  offset="0.6935" style="stop-color:#338F92;stop-opacity:0.8"/>
		<stop  offset="0.9946" style="stop-color:#83C5BE"/>
		<stop  offset="1" style="stop-color:#83C5BE"/>
	</linearGradient>
	<polygon fill="url(#SVGID_1_)" points="0,515.225 153.797,648.084 397.58,648.084 440.441,611.059 440.441,545.231 
		396.896,507.613 396.896,428.41 476.317,359.801 603,359.801 727.334,467.209 727.334,496.295 769.417,532.648 769.417,0 0,0 	"/>
	<line fill="none" x1="335.335" y1="591.607" x2="335.335" y2="545.231"/>
	
		<linearGradient id="SVGID_2_" gradientUnits="userSpaceOnUse" x1="853.1997" y1="695.5831" x2="992.7075" y2="695.5831" gradientTransform="matrix(1.192488e-008 -1 -1 -1.192488e-008 1080.2915 992.7076)">
		<stop  offset="0" style="stop-color:#83C5BE;stop-opacity:0.6"/>
		<stop  offset="1" style="stop-color:#EDF6F9;stop-opacity:0"/>
	</linearGradient>
	<polyline fill="url(#SVGID_2_)" points="769,0 0,0 0,105.77 39.053,139.508 253.597,139.508 333.241,70.705 518.963,70.705 
		518.963,70.705 615.065,130.014 615.065,130.014 615.065,130.014 699.542,128.786 769.417,64.355 769.417,64.355 769.417,64.355 
		769,0 	"/>
	
		<linearGradient id="SVGID_3_" gradientUnits="userSpaceOnUse" x1="558.522" y1="1029.2871" x2="654.4106" y2="1029.2871" gradientTransform="matrix(1.192488e-008 -1 -1 -1.192488e-008 1080.2915 992.7076)">
		<stop  offset="0" style="stop-color:#FFFFFF;stop-opacity:0.6"/>
		<stop  offset="0.686" style="stop-color:#FFFFFF;stop-opacity:0.051"/>
		<stop  offset="1" style="stop-color:#FFFFFF;stop-opacity:0"/>
	</linearGradient>
	<polyline fill="url(#SVGID_3_)" points="34.353,338.559 67.656,367.328 67.656,434.186 34.656,405.678 34.656,338.297 	"/>
	
		<linearGradient id="SVGID_4_" gradientUnits="userSpaceOnUse" x1="1185.7661" y1="18.4395" x2="1397.0024" y2="18.4395" gradientTransform="matrix(1 0 0 -1 -895.9209 144.7892)">
		<stop  offset="0" style="stop-color:#FFFFFF;stop-opacity:0.6"/>
		<stop  offset="0.686" style="stop-color:#FFFFFF;stop-opacity:0.051"/>
		<stop  offset="1" style="stop-color:#FFFFFF;stop-opacity:0"/>
	</linearGradient>
	<polyline fill="url(#SVGID_4_)" points="500.506,98.975 437.131,153.725 289.845,153.725 352.646,99.473 501.082,99.473 	"/>
	
		<linearGradient id="SVGID_5_" gradientUnits="userSpaceOnUse" x1="1141.5093" y1="-53.5595" x2="930.2729" y2="-53.5595" gradientTransform="matrix(1 0 0 -1 -895.9209 144.7892)">
		<stop  offset="0" style="stop-color:#FFFFFF;stop-opacity:0.6"/>
		<stop  offset="0.686" style="stop-color:#FFFFFF;stop-opacity:0.051"/>
		<stop  offset="1" style="stop-color:#FFFFFF;stop-opacity:0"/>
	</linearGradient>
	<polyline fill="url(#SVGID_5_)" points="245.014,171.984 181.639,224.715 34.353,224.715 97.154,172.463 245.59,172.463 	"/>
	
		<linearGradient id="SVGID_6_" gradientUnits="userSpaceOnUse" x1="432.8467" y1="718.6251" x2="432.8467" y2="1021.9376" gradientTransform="matrix(1.192488e-008 -1 -1 -1.192488e-008 1080.2915 992.7076)">
		<stop  offset="0" style="stop-color:#FFFFFF;stop-opacity:0.6"/>
		<stop  offset="0.686" style="stop-color:#FFFFFF;stop-opacity:0.051"/>
		<stop  offset="1" style="stop-color:#FFFFFF;stop-opacity:0"/>
	</linearGradient>
	<polygon fill="url(#SVGID_6_)" points="153.409,503.6 213.812,555.779 257.189,555.779 307.812,512.049 337.906,512.049 
		361.667,532.576 361.667,569.598 307.812,616.121 188.606,616.121 58.354,503.6 	"/>
	<polygon fill="#EDF6F9" points="1547.772,0 778.356,0 778.356,532.648 820.438,496.295 820.438,467.209 944.772,359.801 
		1071.456,359.801 1150.875,428.41 1150.875,507.613 1107.331,545.231 1107.331,611.059 1150.192,648.084 1393.975,648.084 
		1547.772,515.225 	"/>
	
		<linearGradient id="SVGID_7_" gradientUnits="userSpaceOnUse" x1="997.3735" y1="858.0489" x2="339.9565" y2="858.0488" gradientTransform="matrix(-1.187998e-008 -1 1 -1.187998e-008 289.1254 992.7076)">
		<stop  offset="0.3065" style="stop-color:#006D77"/>
		<stop  offset="0.6935" style="stop-color:#338F92;stop-opacity:0.8"/>
		<stop  offset="0.9946" style="stop-color:#83C5BE"/>
		<stop  offset="1" style="stop-color:#83C5BE"/>
	</linearGradient>
	<polygon fill="url(#SVGID_7_)" points="1524.932,4.668 769.417,-4.666 769.417,527.982 797.598,500.962 797.598,471.876 
		921.932,364.468 1048.616,364.468 1128.036,433.077 1128.036,512.28 1084.491,549.898 1084.491,615.726 1127.352,652.751 
		1371.135,652.751 1524.932,519.892 	"/>
	<line fill="none" x1="1084.438" y1="545.231" x2="1084.438" y2="591.607"/>
	
		<linearGradient id="SVGID_8_" gradientUnits="userSpaceOnUse" x1="558.522" y1="1079.6426" x2="654.4106" y2="1079.6426" gradientTransform="matrix(-1.187998e-008 -1 1 -1.187998e-008 289.1254 992.7076)">
		<stop  offset="0" style="stop-color:#FFFFFF;stop-opacity:0.6"/>
		<stop  offset="0.686" style="stop-color:#FFFFFF;stop-opacity:0.051"/>
		<stop  offset="1" style="stop-color:#FFFFFF;stop-opacity:0"/>
	</linearGradient>
	<polyline fill="url(#SVGID_8_)" points="1385.116,338.297 1385.116,405.678 1352.116,434.186 1352.116,367.328 1385.419,338.559 	
		"/>
	
		<linearGradient id="SVGID_9_" gradientUnits="userSpaceOnUse" x1="1135.4097" y1="18.4395" x2="1346.647" y2="18.4395" gradientTransform="matrix(-1 0 0 -1 2265.3369 144.7892)">
		<stop  offset="0" style="stop-color:#FFFFFF;stop-opacity:0.6"/>
		<stop  offset="0.686" style="stop-color:#FFFFFF;stop-opacity:0.051"/>
		<stop  offset="1" style="stop-color:#FFFFFF;stop-opacity:0"/>
	</linearGradient>
	<polyline fill="url(#SVGID_9_)" points="918.69,99.473 1067.126,99.473 1129.927,153.725 982.641,153.725 919.266,98.975 	"/>
	
		<linearGradient id="SVGID_10_" gradientUnits="userSpaceOnUse" x1="1091.1538" y1="-53.5595" x2="879.9165" y2="-53.5595" gradientTransform="matrix(-1 0 0 -1 2265.3369 144.7892)">
		<stop  offset="0" style="stop-color:#FFFFFF;stop-opacity:0.6"/>
		<stop  offset="0.686" style="stop-color:#FFFFFF;stop-opacity:0.051"/>
		<stop  offset="1" style="stop-color:#FFFFFF;stop-opacity:0"/>
	</linearGradient>
	<polyline fill="url(#SVGID_10_)" points="1174.182,172.463 1322.619,172.463 1385.419,224.715 1238.133,224.715 1174.758,171.984 	
		"/>
	
		<linearGradient id="SVGID_11_" gradientUnits="userSpaceOnUse" x1="432.8467" y1="768.9805" x2="432.8467" y2="1072.293" gradientTransform="matrix(-1.187998e-008 -1 1 -1.187998e-008 289.1254 992.7076)">
		<stop  offset="0" style="stop-color:#FFFFFF;stop-opacity:0.6"/>
		<stop  offset="0.686" style="stop-color:#FFFFFF;stop-opacity:0.051"/>
		<stop  offset="1" style="stop-color:#FFFFFF;stop-opacity:0"/>
	</linearGradient>
	<polygon fill="url(#SVGID_11_)" points="1361.418,503.6 1231.167,616.121 1111.96,616.121 1058.106,569.598 1058.106,532.576 
		1081.866,512.049 1111.96,512.049 1162.583,555.779 1205.96,555.779 1266.364,503.6 	"/>
	
		<linearGradient id="SVGID_12_" gradientUnits="userSpaceOnUse" x1="1168.9194" y1="518.9464" x2="520.8364" y2="518.9462" gradientTransform="matrix(1 0 0 1 201.2148 -228.2031)">
		<stop  offset="0.3065" style="stop-color:#006D77"/>
		<stop  offset="0.6935" style="stop-color:#338F92;stop-opacity:0.8"/>
		<stop  offset="0.9946" style="stop-color:#83C5BE"/>
		<stop  offset="1" style="stop-color:#83C5BE"/>
	</linearGradient>
	<polygon fill="url(#SVGID_12_)" points="1370.134,675.451 1370.134,-93.965 837.487,-93.965 873.84,-51.883 902.926,-51.883 
		1010.333,72.451 1010.333,199.134 941.725,278.554 862.522,278.554 824.905,235.009 759.077,235.009 722.051,277.871 
		722.051,521.654 854.911,675.451 	"/>
	
		<linearGradient id="SVGID_13_" gradientUnits="userSpaceOnUse" x1="591.8066" y1="-303.643" x2="591.8066" y2="-160.0414" gradientTransform="matrix(1.192488e-008 -1 -1 -1.192488e-008 1080.2915 992.7076)">
		<stop  offset="0" style="stop-color:#006D77"/>
		<stop  offset="1" style="stop-color:#83C5BE;stop-opacity:0.5"/>
	</linearGradient>
	<polyline fill="url(#SVGID_13_)" points="1383.935,675.451 1383.935,126.35 1240.333,269.951 1240.333,580.549 1335.236,675.451 	
		"/>
	
		<linearGradient id="SVGID_14_" gradientUnits="userSpaceOnUse" x1="668.665" y1="-289.8412" x2="668.665" y2="-133.8432" gradientTransform="matrix(1.192488e-008 -1 -1 -1.192488e-008 1080.2915 992.7076)">
		<stop  offset="0" style="stop-color:#006D77"/>
		<stop  offset="1" style="stop-color:#83C5BE"/>
	</linearGradient>
	<polyline fill="url(#SVGID_14_)" points="1370.133,639.043 1370.133,9.041 1214.135,173.798 1214.135,530.16 1317.231,639.043 	"/>
</g>
</svg>
