<?xml version="1.0" encoding="utf-8"?>
<!-- Generator: Adobe Illustrator 16.0.0, SVG Export Plug-In . SVG Version: 6.00 Build 0)  -->
<!DOCTYPE svg PUBLIC "-//W3C//DTD SVG 1.1//EN" "http://www.w3.org/Graphics/SVG/1.1/DTD/svg11.dtd">
<svg version="1.1" xmlns="http://www.w3.org/2000/svg" xmlns:xlink="http://www.w3.org/1999/xlink" x="0px" y="0px"
	 width="1367.025px" height="462px" viewBox="0 0 1367.025 462" enable-background="new 0 0 1367.025 462" xml:space="preserve">
<g id="Group_202" display="none">
	
		<linearGradient id="Path_152_1_" gradientUnits="userSpaceOnUse" x1="288.6826" y1="627.1875" x2="287.6826" y2="626.1975" gradientTransform="matrix(1367.0251 0 0 -462 -393342.5938 289740.5)">
		<stop  offset="0" style="stop-color:#A52EFF"/>
		<stop  offset="1" style="stop-color:#3D58F3"/>
	</linearGradient>
	<path id="Path_152" display="inline" fill="url(#Path_152_1_)" d="M0,462c0,0,138.5-112.93,310-121.387s208.5,80.593,376,87.558
		S845.5,312.754,994,302.8s188.5,92.533,286,85.568c97.5-6.966,86.667-43.705,86.667-43.705v-344L0,0V462z"/>
	
		<linearGradient id="Path_351_1_" gradientUnits="userSpaceOnUse" x1="287.9429" y1="626.8896" x2="287.3413" y2="626.1409" gradientTransform="matrix(389.106 0 0 -379.6 -110711.4375 238035)">
		<stop  offset="0" style="stop-color:#FFFFFF;stop-opacity:0"/>
		<stop  offset="1" style="stop-color:#FFFFFF;stop-opacity:0.2"/>
	</linearGradient>
	<path id="Path_351" display="inline" fill="url(#Path_351_1_)" d="M1273.334,188c-41.333-68-80,121.334-138.667,125.333
		c-29.536,2.013-33.726-20.644-42.515-43.3c-8.667-22.346-21.809-44.691-68.152-43.367c-93.333,2.667-32-141.333,69.334-145.333
		c67.471-2.664,70.511-49.656,65.009-80.768l208.324,0.1v344c0,0,6.592,22.366-36.815,35.5
		C1321.669,330.908,1302.994,236.796,1273.334,188z"/>
	<path id="Path_195" display="inline" opacity="0.2" fill="#FFFFFF" enable-background="new    " d="M78.499,319
		c-6.236,0.017-12.219-2.461-16.617-6.883c-4.421-4.397-6.9-10.381-6.883-16.617c-0.017-6.236,2.461-12.221,6.883-16.618
		c4.398-4.421,10.381-6.899,16.617-6.882c6.236-0.017,12.219,2.462,16.617,6.883c4.421,4.397,6.9,10.381,6.883,16.617
		c0.017,6.236-2.461,12.22-6.883,16.617C90.718,316.539,84.735,319.017,78.499,319z M78.499,278.714
		c-9.266,0.011-16.774,7.521-16.785,16.786c0.008,9.268,7.518,16.777,16.785,16.786c9.268-0.008,16.778-7.519,16.786-16.786
		C95.274,286.234,87.766,278.725,78.499,278.714z"/>
	
		<linearGradient id="Path_355_1_" gradientUnits="userSpaceOnUse" x1="287.4639" y1="626.8916" x2="288.2869" y2="626.1596" gradientTransform="matrix(597.5161 0 0 -344.147 -171714.2031 215787.75)">
		<stop  offset="0" style="stop-color:#FFFFFF;stop-opacity:0"/>
		<stop  offset="1" style="stop-color:#FFFFFF;stop-opacity:0.2"/>
	</linearGradient>
	<path id="Path_355" display="inline" fill="url(#Path_355_1_)" d="M0.001,344.146V0h5.658c77.6,51.747,88.6,159.233,184.341,104
		C242.73,73.579,306.771,31.846,366.223,0.178l231.295,0.113C561.386,23.541,502.169,49.223,512,104c14,78,60,182-30,184
		c-38.393,0.854-70.961-20.493-104.227-41.84C333.055,217.465,287.073,188.769,224,214C129.536,251.786,40.97,344.145,0.1,344.146
		H0.001z"/>
	<path id="Path_342" display="inline" opacity="0.2" fill="#FFFFFF" enable-background="new    " d="M971.622,99
		c-3.084,0.01-6.043-1.215-8.219-3.4c-2.186-2.175-3.41-5.135-3.4-8.218c-0.01-3.083,1.215-6.043,3.4-8.219
		c2.176-2.186,5.135-3.41,8.219-3.4c3.084-0.01,6.043,1.214,8.219,3.4c2.186,2.176,3.41,5.135,3.4,8.219
		c0.01,3.083-1.215,6.043-3.4,8.218C977.665,97.785,974.706,99.01,971.622,99z M971.622,79.075c-4.581,0.006-8.294,3.719-8.3,8.3
		c0.006,4.582,3.719,8.294,8.3,8.3c4.581-0.006,8.294-3.718,8.3-8.3C979.916,82.794,976.203,79.082,971.622,79.075z"/>
	
		<circle id="Ellipse_80" display="inline" opacity="0.2" fill="#FFFFFF" enable-background="new    " cx="425.5" cy="120.5" r="13.5"/>
	
		<circle id="Ellipse_81" display="inline" opacity="0.2" fill="#FFFFFF" enable-background="new    " cx="1215.5" cy="303.5" r="18.5"/>
	
		<circle id="Ellipse_68" display="inline" opacity="0.2" fill="#FFFFFF" enable-background="new    " cx="622.5" cy="375.5" r="8.5"/>
	<g id="Path_343" transform="matrix(0.259, 0.966, -0.966, 0.259, 710.181, 49.242)" display="inline" opacity="0.2">
		<path fill="none" d="M18.565,10.207c2.238-3.916,7.225-5.276,11.14-3.038c1.266,0.724,2.315,1.772,3.038,3.038L45.89,33.214
			c2.237,3.915,0.877,8.903-3.038,11.14c-1.234,0.705-2.63,1.076-4.052,1.076l-26.293,0c-4.51,0-8.165-3.656-8.165-8.165
			c0-1.421,0.371-2.817,1.076-4.051L18.565,10.207z"/>
		<path fill="#FFFFFF" d="M25.654,11.093c-0.553,0-1.926,0.156-2.748,1.594L9.759,35.695c-0.816,1.428-0.264,2.685,0.01,3.159
			c0.275,0.474,1.093,1.577,2.738,1.576l26.294,0.001c1.645,0,2.462-1.103,2.737-1.576c0.275-0.474,0.827-1.732,0.011-3.159
			L28.402,12.688C27.58,11.249,26.206,11.094,25.654,11.093 M25.654,6.093c2.761,0,5.522,1.371,7.089,4.115L45.89,33.214
			c3.111,5.443-0.82,12.216-7.089,12.216L12.507,45.43c-6.269,0-10.2-6.772-7.089-12.215l13.147-23.007
			C20.132,7.464,22.893,6.093,25.654,6.093z"/>
	</g>
	<g id="Path_344" transform="matrix(-0.839, 0.545, -0.545, -0.839, 181.642, 48.728)" display="inline" opacity="0.2">
		<path fill="none" d="M17.093,9.782c2.006-3.511,6.479-4.73,9.989-2.723c1.134,0.648,2.075,1.589,2.723,2.723l11.787,20.627
			c2.006,3.51,0.787,7.981-2.723,9.987c-1.106,0.632-2.359,0.965-3.633,0.965l-23.574,0c-4.043-0.001-7.32-3.279-7.32-7.322
			c0-1.273,0.333-2.524,0.964-3.63L17.093,9.782z"/>
		<path fill="#FFFFFF" d="M23.449,10.093c-0.579,0-2.02,0.163-2.883,1.673L8.779,32.394c-0.856,1.499-0.278,2.817,0.011,3.314
			c0.288,0.498,1.146,1.654,2.872,1.654l23.574,0c1.726,0,2.583-1.157,2.872-1.654c0.289-0.497,0.867-1.816,0.011-3.314
			L26.331,11.766C25.469,10.256,24.028,10.093,23.449,10.093 M23.449,6.094c2.475,0,4.951,1.229,6.356,3.688L41.592,30.41
			c2.789,4.88-0.735,10.952-6.356,10.952l-23.574,0c-5.621,0-9.144-6.072-6.356-10.952L17.093,9.782
			C18.498,7.323,20.973,6.094,23.449,6.094z"/>
	</g>
	<path id="Path_349" display="inline" opacity="0.16" fill="#FFFFFF" enable-background="new    " d="M766.666,357.334
		c49.333-36,85.334-4,98.667-49.334c11.337-38.546,88.224-26,105.256-2.529c-99.087,16.291-120.5,88.258-204.39,113.886
		C750.607,402.493,738.164,378.133,766.666,357.334z"/>
	
		<circle id="Ellipse_82" display="inline" opacity="0.2" fill="#FFFFFF" enable-background="new    " cx="295.5" cy="294.5" r="9.5"/>
</g>
<g id="Layer_2">
	<g id="Layer_3">
		<polygon fill="#EDF6F9" points="-0.954,335.932 98.776,422.085 256.858,422.085 284.652,398.075 284.652,355.389 256.416,330.996 
			256.416,279.636 307.916,235.146 390.064,235.146 470.689,304.795 470.689,323.656 497.978,347.229 497.978,1.831 -0.954,1.831 		
			"/>
		
			<linearGradient id="SVGID_1_" gradientUnits="userSpaceOnUse" x1="824.3223" y1="665.2256" x2="404.0684" y2="665.2255" gradientTransform="matrix(1.192488e-008 -1 -1 -1.192488e-008 913.7373 826.1533)">
			<stop  offset="0.3065" style="stop-color:#006D77"/>
			<stop  offset="0.6935" style="stop-color:#338F92;stop-opacity:0.8"/>
			<stop  offset="0.9946" style="stop-color:#83C5BE"/>
			<stop  offset="1" style="stop-color:#83C5BE"/>
		</linearGradient>
		<polygon fill="url(#SVGID_1_)" points="-0.954,335.932 98.776,422.085 256.858,422.085 284.652,398.075 284.652,355.389 
			256.416,330.996 256.416,279.636 307.916,235.146 390.064,235.146 470.689,304.795 470.689,323.656 497.978,347.229 
			497.978,1.831 -0.954,1.831 		"/>
		<line fill="none" x1="216.496" y1="385.462" x2="216.496" y2="355.389"/>
		
			<linearGradient id="SVGID_2_" gradientUnits="userSpaceOnUse" x1="700.0596" y1="572.0254" x2="824.3223" y2="572.0254" gradientTransform="matrix(1.192488e-008 -1 -1 -1.192488e-008 913.7373 826.1533)">
			<stop  offset="0" style="stop-color:#83C5BE;stop-opacity:0.6"/>
			<stop  offset="1" style="stop-color:#EDF6F9;stop-opacity:0"/>
		</linearGradient>
		<polyline fill="url(#SVGID_2_)" points="684.007,1.831 -0.954,1.831 -0.954,96.042 33.831,126.093 224.929,126.093 295.869,64.81 
			461.295,64.81 461.295,64.81 546.894,117.637 546.894,117.637 546.894,117.637 622.139,116.542 684.378,59.152 684.378,59.152 
			684.378,59.152 684.007,1.831 		"/>
		
			<linearGradient id="SVGID_3_" gradientUnits="userSpaceOnUse" x1="542.7725" y1="881.6172" x2="604.9517" y2="881.6172" gradientTransform="matrix(1.192488e-008 -1 -1 -1.192488e-008 913.7373 826.1533)">
			<stop  offset="0" style="stop-color:#FFFFFF;stop-opacity:0.6"/>
			<stop  offset="0.686" style="stop-color:#FFFFFF;stop-opacity:0.051"/>
			<stop  offset="1" style="stop-color:#FFFFFF;stop-opacity:0"/>
		</linearGradient>
		<polyline fill="url(#SVGID_3_)" points="21.322,221.371 42.918,240.027 42.918,283.381 21.519,264.895 21.519,221.202 		"/>
		
			<linearGradient id="SVGID_4_" gradientUnits="userSpaceOnUse" x1="1144.4326" y1="-297.9116" x2="1281.4092" y2="-297.9116" gradientTransform="matrix(1 0 0 -1 -895.9209 -185.2109)">
			<stop  offset="0" style="stop-color:#FFFFFF;stop-opacity:0.6"/>
			<stop  offset="0.686" style="stop-color:#FFFFFF;stop-opacity:0.051"/>
			<stop  offset="1" style="stop-color:#FFFFFF;stop-opacity:0"/>
		</linearGradient>
		<polyline fill="url(#SVGID_4_)" points="385.116,94.949 344.02,130.452 248.512,130.452 289.235,95.272 385.489,95.272 		"/>
		
			<linearGradient id="SVGID_5_" gradientUnits="userSpaceOnUse" x1="1112.416" y1="-350.5098" x2="975.4375" y2="-350.5098" gradientTransform="matrix(1 0 0 -1 -895.9209 -185.2109)">
			<stop  offset="0" style="stop-color:#FFFFFF;stop-opacity:0.6"/>
			<stop  offset="0.686" style="stop-color:#FFFFFF;stop-opacity:0.051"/>
			<stop  offset="1" style="stop-color:#FFFFFF;stop-opacity:0"/>
		</linearGradient>
		<polyline fill="url(#SVGID_5_)" points="216.122,148.203 175.026,182.396 79.518,182.396 120.242,148.513 216.496,148.513 		"/>
		
			<linearGradient id="SVGID_6_" gradientUnits="userSpaceOnUse" x1="461.2773" y1="680.166" x2="461.2773" y2="876.8516" gradientTransform="matrix(1.192488e-008 -1 -1 -1.192488e-008 913.7373 826.1533)">
			<stop  offset="0" style="stop-color:#FFFFFF;stop-opacity:0.6"/>
			<stop  offset="0.686" style="stop-color:#FFFFFF;stop-opacity:0.051"/>
			<stop  offset="1" style="stop-color:#FFFFFF;stop-opacity:0"/>
		</linearGradient>
		<polygon fill="url(#SVGID_6_)" points="98.525,328.393 137.693,362.229 165.821,362.229 198.648,333.872 218.163,333.872 
			233.571,347.183 233.571,371.189 198.648,401.358 121.348,401.358 36.886,328.393 		"/>
		<polygon fill="#EDF6F9" points="1118.379,-61.923 619.447,-61.923 619.447,283.475 646.736,259.902 646.736,241.041 
			727.361,171.393 809.51,171.393 861.011,215.881 861.011,267.242 832.774,291.635 832.774,334.32 860.567,358.33 1018.648,358.33 
			1118.379,272.178 		"/>
		
			<linearGradient id="SVGID_7_" gradientUnits="userSpaceOnUse" x1="866.2227" y1="434.0586" x2="439.917" y2="434.0585" gradientTransform="matrix(-1.187998e-008 -1 1 -1.187998e-008 452.5713 826.1533)">
			<stop  offset="0.3065" style="stop-color:#006D77"/>
			<stop  offset="0.6935" style="stop-color:#338F92;stop-opacity:0.8"/>
			<stop  offset="0.9946" style="stop-color:#83C5BE"/>
			<stop  offset="1" style="stop-color:#83C5BE"/>
		</linearGradient>
		<polygon fill="url(#SVGID_7_)" points="1131.59,-34.017 641.671,-40.069 641.671,305.328 659.945,287.808 659.945,268.946 
			740.571,199.297 822.72,199.297 874.22,243.787 874.22,295.147 845.983,319.54 845.983,362.227 873.776,386.236 1031.859,386.236 
			1131.59,300.083 		"/>
		
			<linearGradient id="SVGID_8_" gradientUnits="userSpaceOnUse" x1="911.0146" y1="400.3584" x2="1433.7314" y2="400.3584" gradientTransform="matrix(0.7071 -0.7071 0.7071 0.7071 63.4228 491.7217)">
			<stop  offset="0.0376" style="stop-color:#83C5BE"/>
			<stop  offset="0.6075" style="stop-color:#006D77"/>
		</linearGradient>
		<polygon fill="url(#SVGID_8_)" points="1253.391,-147.482 1253.379,-79.977 1323.25,-10.106 1323.25,103.782 1220.35,206.682 
			1066.753,206.682 966.727,106.656 966.727,-151.084 1146.171,-330.528 1268.773,-330.529 1352.605,-246.696 		"/>
		<line fill="none" x1="702.256" y1="355.389" x2="702.256" y2="385.462"/>
		
			<linearGradient id="SVGID_9_" gradientUnits="userSpaceOnUse" x1="542.7725" y1="455.6543" x2="604.9517" y2="455.6543" gradientTransform="matrix(-1.187998e-008 -1 1 -1.187998e-008 452.5713 826.1533)">
			<stop  offset="0" style="stop-color:#FFFFFF;stop-opacity:0.6"/>
			<stop  offset="0.686" style="stop-color:#FFFFFF;stop-opacity:0.051"/>
			<stop  offset="1" style="stop-color:#FFFFFF;stop-opacity:0"/>
		</linearGradient>
		<polyline fill="url(#SVGID_9_)" points="918.826,221.202 918.826,264.895 897.428,283.381 897.428,240.027 919.022,221.371 		"/>
		
			<linearGradient id="SVGID_10_" gradientUnits="userSpaceOnUse" x1="793.4268" y1="-317.3423" x2="793.4268" y2="-120.6577" gradientTransform="matrix(-1.187998e-008 -1 1 -1.187998e-008 452.5713 826.1533)">
			<stop  offset="0" style="stop-color:#FFFFFF;stop-opacity:0.6"/>
			<stop  offset="0.686" style="stop-color:#FFFFFF;stop-opacity:0.051"/>
			<stop  offset="1" style="stop-color:#FFFFFF;stop-opacity:0"/>
		</linearGradient>
		<polygon fill="url(#SVGID_10_)" points="331.913,-3.756 247.45,69.21 170.149,69.21 135.229,39.041 135.229,15.034 150.636,1.724 
			170.149,1.724 202.977,30.081 231.104,30.081 270.274,-3.756 		"/>
		
			<linearGradient id="SVGID_11_" gradientUnits="userSpaceOnUse" x1="1251.3057" y1="419.585" x2="831.0537" y2="419.5849" gradientTransform="matrix(1 0 0 1 201.2148 -228.2031)">
			<stop  offset="0.3065" style="stop-color:#006D77"/>
			<stop  offset="0.6935" style="stop-color:#338F92;stop-opacity:0.8"/>
			<stop  offset="0.9946" style="stop-color:#83C5BE"/>
			<stop  offset="1" style="stop-color:#83C5BE"/>
		</linearGradient>
		<polygon fill="url(#SVGID_11_)" points="1452.521,440.848 1452.521,-58.084 1107.124,-58.084 1130.697,-30.796 1149.559,-30.796 
			1219.206,49.829 1219.206,131.978 1174.718,183.478 1123.357,183.478 1098.965,155.241 1056.278,155.241 1032.269,183.035 
			1032.269,341.117 1118.422,440.848 		"/>
		
			<linearGradient id="SVGID_12_" gradientUnits="userSpaceOnUse" x1="553.4175" y1="-485.4272" x2="553.4175" y2="-392.3081" gradientTransform="matrix(1.192488e-008 -1 -1 -1.192488e-008 913.7373 826.1533)">
			<stop  offset="0" style="stop-color:#006D77"/>
			<stop  offset="1" style="stop-color:#83C5BE;stop-opacity:0.5"/>
		</linearGradient>
		<polyline fill="url(#SVGID_12_)" points="1399.165,450.77 1399.165,94.702 1306.046,187.821 1306.046,389.229 1367.586,450.77 		
			"/>
		
			<linearGradient id="SVGID_13_" gradientUnits="userSpaceOnUse" x1="653.0693" y1="-472.7466" x2="653.0693" y2="-371.5894" gradientTransform="matrix(1.192488e-008 -1 -1 -1.192488e-008 913.7373 826.1533)">
			<stop  offset="0" style="stop-color:#006D77"/>
			<stop  offset="1" style="stop-color:#83C5BE"/>
		</linearGradient>
		<polyline fill="url(#SVGID_13_)" points="1386.484,377.348 1386.484,-31.181 1285.327,75.658 1285.327,306.742 1352.18,377.348 		
			"/>
		
			<linearGradient id="SVGID_14_" gradientUnits="userSpaceOnUse" x1="396.1548" y1="182.6631" x2="918.8701" y2="182.6631" gradientTransform="matrix(0.7071 -0.7071 0.7071 0.7071 63.4228 491.7217)">
			<stop  offset="0.0376" style="stop-color:#83C5BE"/>
			<stop  offset="0.6075" style="stop-color:#006D77"/>
		</linearGradient>
		<polygon fill="url(#SVGID_14_)" points="735.396,62.646 735.384,130.15 805.255,200.021 805.255,313.909 702.354,416.81 
			548.758,416.81 448.731,316.783 448.731,59.043 628.176,-120.401 750.778,-120.401 834.61,-36.569 		"/>
		
			<linearGradient id="SVGID_15_" gradientUnits="userSpaceOnUse" x1="739.4443" y1="84.7988" x2="829.9092" y2="84.7988" gradientTransform="matrix(1.192488e-008 -1 -1 -1.192488e-008 913.7373 826.1533)">
			<stop  offset="0" style="stop-color:#83C5BE;stop-opacity:0.6"/>
			<stop  offset="1" style="stop-color:#EDF6F9;stop-opacity:0"/>
		</linearGradient>
		<polyline fill="url(#SVGID_15_)" points="1078.135,-3.756 579.473,-3.756 579.473,64.831 604.796,86.709 743.919,86.709 
			795.564,42.093 915.997,42.093 915.997,42.093 978.314,80.552 978.314,80.552 978.314,80.552 1033.094,79.756 1078.404,37.975 
			1078.404,37.975 1078.404,37.975 1078.135,-3.756 		"/>
		
			<linearGradient id="SVGID_16_" gradientUnits="userSpaceOnUse" x1="1448.8516" y1="-266.4126" x2="1311.874" y2="-266.4126" gradientTransform="matrix(-1 0 0 -1 2262.2285 -185.2109)">
			<stop  offset="0" style="stop-color:#FFFFFF;stop-opacity:0.6"/>
			<stop  offset="0.686" style="stop-color:#FFFFFF;stop-opacity:0.051"/>
			<stop  offset="1" style="stop-color:#FFFFFF;stop-opacity:0"/>
		</linearGradient>
		<polyline fill="url(#SVGID_16_)" points="813.376,64.416 909.63,64.416 950.354,98.299 854.846,98.299 813.75,64.106 		"/>
		
			<linearGradient id="SVGID_17_" gradientUnits="userSpaceOnUse" x1="1461.9873" y1="-315.6631" x2="1598.9648" y2="-315.6631" gradientTransform="matrix(-1 0 0 -1 2262.2285 -185.2109)">
			<stop  offset="0" style="stop-color:#FFFFFF;stop-opacity:0.6"/>
			<stop  offset="0.686" style="stop-color:#FFFFFF;stop-opacity:0.051"/>
			<stop  offset="1" style="stop-color:#FFFFFF;stop-opacity:0"/>
		</linearGradient>
		<polyline fill="url(#SVGID_17_)" points="663.264,113.024 759.518,113.024 800.241,148.204 704.733,148.204 663.637,112.701 		"/>
		
			<linearGradient id="SVGID_18_" gradientUnits="userSpaceOnUse" x1="1586.3857" y1="-239.2686" x2="1723.3623" y2="-239.2686" gradientTransform="matrix(1.192488e-008 -1 -1 -1.192488e-008 287.6572 1696.3506)">
			<stop  offset="0" style="stop-color:#FFFFFF;stop-opacity:0.6"/>
			<stop  offset="0.686" style="stop-color:#FFFFFF;stop-opacity:0.051"/>
			<stop  offset="1" style="stop-color:#FFFFFF;stop-opacity:0"/>
		</linearGradient>
		<polyline fill="url(#SVGID_18_)" points="509.174,-26.639 544.677,14.457 544.677,109.965 509.498,69.242 509.498,-27.012 		"/>
		
			<linearGradient id="SVGID_19_" gradientUnits="userSpaceOnUse" x1="1504.9688" y1="-338.8657" x2="1367.9912" y2="-338.8657" gradientTransform="matrix(1.192488e-008 -1 -1 -1.192488e-008 287.6572 1696.3506)">
			<stop  offset="0" style="stop-color:#FFFFFF;stop-opacity:0.6"/>
			<stop  offset="0.686" style="stop-color:#FFFFFF;stop-opacity:0.051"/>
			<stop  offset="1" style="stop-color:#FFFFFF;stop-opacity:0"/>
		</linearGradient>
		<polyline fill="url(#SVGID_19_)" points="609.427,191.755 643.62,232.852 643.62,328.359 609.737,287.636 609.737,191.382 		"/>
		
			<linearGradient id="SVGID_20_" gradientUnits="userSpaceOnUse" x1="1526.5947" y1="-167.5156" x2="1555.5242" y2="-217.6229" gradientTransform="matrix(1.192488e-008 -1 -1 -1.192488e-008 287.6572 1696.3506)">
			<stop  offset="0" style="stop-color:#FFFFFF;stop-opacity:0.6"/>
			<stop  offset="0.686" style="stop-color:#FFFFFF;stop-opacity:0.051"/>
			<stop  offset="1" style="stop-color:#FFFFFF;stop-opacity:0"/>
		</linearGradient>
		<polyline fill="url(#SVGID_20_)" points="462.475,87.082 497.978,128.178 497.978,223.687 462.798,182.963 462.798,86.709 		"/>
	</g>
</g>
</svg>
