<?xml version="1.0" encoding="utf-8"?>
<!-- Generator: Adobe Illustrator 16.0.0, SVG Export Plug-In . SVG Version: 6.00 Build 0)  -->
<!DOCTYPE svg PUBLIC "-//W3C//DTD SVG 1.1//EN" "http://www.w3.org/Graphics/SVG/1.1/DTD/svg11.dtd">
<svg version="1.1" id="Layer_1" xmlns="http://www.w3.org/2000/svg" xmlns:xlink="http://www.w3.org/1999/xlink" x="0px" y="0px"
	 width="792px" height="792px" viewBox="0 0 792 792" enable-background="new 0 0 792 792" xml:space="preserve">
<polyline fill="none" stroke="#086F77" stroke-width="4" stroke-miterlimit="10" points="758.719,534.746 654.585,534.746 
	623.236,505.414 493.514,505.414 455.681,470.02 455.681,472.26 455.681,423.887 "/>
<polyline fill="none" stroke="#086F77" stroke-width="4" stroke-miterlimit="10" points="495.439,803.994 495.439,728.029 
	537.116,689.037 537.116,607.57 478.181,552.43 410.677,552.43 "/>
<ellipse fill="#086F77" cx="534.003" cy="762.24" rx="6.695" ry="6.262"/>
<ellipse fill="#086F77" cx="495.414" cy="801.906" rx="6.694" ry="6.262"/>
<ellipse fill="#086F77" cx="770.207" cy="559.236" rx="6.694" ry="6.262"/>
<ellipse fill="#086F77" cx="758.718" cy="534.746" rx="6.695" ry="6.266"/>
<ellipse fill="#84C6BF" cx="510.733" cy="611.404" rx="6.693" ry="6.264"/>
<ellipse fill="#84C6BF" cx="710.206" cy="633.203" rx="6.693" ry="6.264"/>
<ellipse fill="#84C6BF" cx="779.304" cy="611.404" rx="6.694" ry="6.264"/>
<ellipse fill="#84C6BF" cx="739.345" cy="547.504" rx="6.693" ry="6.264"/>
<ellipse fill="#84C6BF" cx="818.078" cy="521.789" rx="6.695" ry="6.262"/>
<polyline fill="none" stroke="#086F77" stroke-width="4" stroke-miterlimit="10" points="342.676,479.316 342.676,502.953 
	383.11,540.785 482.21,540.785 556.705,610.484 556.705,612.549 556.705,740.994 535.21,761.105 "/>
<polyline fill="none" stroke="#086F77" stroke-width="4" stroke-miterlimit="10" points="379.2,479.316 379.2,500.139 
	410.677,529.588 534.001,529.588 565.694,559.236 770.207,559.236 "/>
<polyline fill="none" stroke="#086F77" stroke-width="4" stroke-miterlimit="10" points="318.059,468.014 318.059,501.629 
	372.36,552.43 410.677,552.43 "/>
<polyline fill="none" stroke="#84C6BF" stroke-width="4" stroke-miterlimit="10" points="371.697,468.014 371.697,596.732 
	410.677,633.203 710.205,633.203 "/>
<polyline fill="none" stroke="#84C6BF" stroke-width="4" stroke-miterlimit="10" points="392.202,470.701 392.202,570.527 
	410.677,587.814 485.521,587.814 510.734,611.404 "/>
<polyline fill="none" stroke="#84C6BF" stroke-width="4" stroke-miterlimit="10" points="417.372,381.275 484.019,381.275 
	518.871,413.885 518.871,557.658 576.32,611.404 779.304,611.404 "/>
<polyline fill="none" stroke="#84C6BF" stroke-width="4" stroke-miterlimit="10" points="395.347,357.012 490.641,357.012 
	534.001,397.58 534.001,427.742 534.001,516.426 534.001,515.529 568.183,547.504 739.345,547.504 "/>
<polyline fill="none" stroke="#84C6BF" stroke-width="4" stroke-miterlimit="10" points="379.2,332.025 506.824,332.025 
	559.468,381.275 559.468,423.887 559.468,480.23 573.607,493.459 631.692,493.459 661.973,521.789 819.996,521.789 "/>
<polyline fill="none" stroke="#086F77" stroke-width="4" stroke-miterlimit="10" points="614.305,391.69 614.305,425.463 
	585.662,452.258 461.04,452.258 "/>
<line fill="none" stroke="#086F77" stroke-width="4" stroke-miterlimit="10" x1="461.04" y1="468.014" x2="666.535" y2="468.014"/>
<polyline fill="none" stroke="#086F77" stroke-width="4" stroke-miterlimit="10" points="473.908,260.591 440.767,291.596 
	440.767,435.037 "/>
<ellipse fill="#086F77" cx="614.305" cy="391.69" rx="6.697" ry="6.265"/>
<ellipse fill="#086F77" cx="473.908" cy="260.591" rx="6.696" ry="6.265"/>
<ellipse fill="#086F77" cx="666.535" cy="468.014" rx="6.696" ry="6.264"/>
<line fill="none" stroke="#84C6BF" stroke-width="4" stroke-miterlimit="10" x1="379.2" y1="332.025" x2="332.471" y2="332.025"/>
<line fill="none" stroke="#84C6BF" stroke-width="4" stroke-miterlimit="10" x1="395.347" y1="357.012" x2="360.086" y2="357.012"/>
<path fill="#E39578" stroke="#FDDDD2" stroke-miterlimit="10" d="M117.135,277.175c0,0,21.239-92.036,100-64.602
	c0,0,60.176-69.911,126.548-13.274c0,0,150.442-48.672,186.726,91.15c0,0,71.682,36.283,20.354,123.008
	c0,0,29.202,83.188-46.903,100.887c0,0-0.885,17.697-24.778,24.777l6.044,71.829l-24.881,3.188l-62.579-59.972
	c0,0-30.159-5.311-54.46-29.203c0,0-87.133,62.832-134.92-23.895c0,0-91.151,46.018-126.549-21.238c0,0-86.83-19.102-11.064-97.732
	c0.723-0.75,1.461-1.507,2.214-2.268C72.887,379.83,35.719,310.803,117.135,277.175z"/>
<path fill="#FDDDD2" d="M88.321,271.628c0,0,21.239-92.036,100-64.602c0,0,60.176-69.911,126.548-13.274
	c0,0,150.442-48.672,186.726,91.15c0,0,71.682,36.283,20.354,123.008c0,0,29.202,83.187-46.903,100.886
	c0,0-0.885,17.698-24.778,24.778l17.358,73.208l-37.554,0.505l-61.221-58.669c0,0-30.159-5.31-54.46-29.203
	c0,0-87.133,62.832-134.92-23.894c0,0-91.151,46.018-126.549-21.239c0,0-86.83-19.102-11.064-97.732
	c0.723-0.75,1.461-1.507,2.214-2.268C44.073,374.283,6.905,305.257,88.321,271.628z"/>
<path fill="none" stroke="#E39578" stroke-width="14" stroke-miterlimit="10" d="M240.533,251.483c0,0,44.247,20.354,74.335-46.902
	c0,0-75.221,131.858,13.275,176.106"/>
<path fill="none" stroke="#E39578" stroke-width="14" stroke-miterlimit="10" d="M447.06,438.516c0,0-26.549-37.169-45.133,18.584
	s-66.85,52.213-66.85,52.213s55.345-33.628,32.336-54.867"/>
<path fill="none" stroke="#E39578" stroke-width="14" stroke-miterlimit="10" d="M115.468,369.793c0,0,94.69,9.319,73.452,102.239
	c0,0,80.069-65.173,40.708-94.698c-10.053-7.541,49.776-10.408,39.361,29.525"/>
<path fill="none" stroke="#E39578" stroke-width="14" stroke-miterlimit="10" d="M376.706,361.239c0,0,81.416-30.974,140.708,45.132
	"/>
<path fill="none" stroke="#016D77" stroke-width="14" stroke-miterlimit="10" d="M314.392,519.416"/>
<path fill="none" stroke="#E39578" stroke-width="14" stroke-miterlimit="10" d="M170.421,333.137c0,0,27.39-52.31-68.805-54.655"/>
<circle fill="#83C5BE" cx="319.69" cy="416.037" r="35.352"/>
<circle fill="#016D77" cx="319.689" cy="416.038" r="20.056"/>
<circle fill="#83C5BE" cx="157.488" cy="278.481" r="35.352"/>
<circle fill="#016D77" cx="157.487" cy="278.482" r="20.056"/>
<circle fill="#83C5BE" cx="63.023" cy="428.634" r="35.352"/>
<circle fill="#016D77" cx="63.023" cy="428.635" r="20.056"/>
<circle fill="#83C5BE" cx="435.689" cy="258.426" r="35.353"/>
<circle fill="#016D77" cx="435.689" cy="258.427" r="20.056"/>
<path fill="none" stroke="#83C5BE" stroke-width="7" stroke-miterlimit="10" d="M157.487,278.482c0,0,30.306,45.801,26.306,65.134
	s-21.333,53.333-46.361,97.333s-9.639,170-9.639,170c-21.668-45.305-44.714-72-44.714-72
	c-23.953-40.001-17.286-110.315-17.286-110.315"/>
<path fill="none" stroke="#83C5BE" stroke-width="7" stroke-miterlimit="10" d="M319.689,416.039c0,0-49.897,72.911-38.563,96.244
	s25.334,89.333-14.667,109.333c0,0,62.814,16.914,114.667-88.667s12-158,48-172.667s14.46-98.377,6.563-101.855"/>
<path fill="none" stroke="#83C5BE" stroke-width="7" stroke-miterlimit="10" d="M127.543,608.793c0,0,25.083,76.99,16.083,108.49
	c0,0,61.167-101.834,122.833-95.667"/>
</svg>
