<?xml version="1.0" encoding="utf-8"?>
<!-- Generator: Adobe Illustrator 16.0.0, SVG Export Plug-In . SVG Version: 6.00 Build 0)  -->
<!DOCTYPE svg PUBLIC "-//W3C//DTD SVG 1.1//EN" "http://www.w3.org/Graphics/SVG/1.1/DTD/svg11.dtd">
<svg version="1.1" id="Layer_1" xmlns="http://www.w3.org/2000/svg" xmlns:xlink="http://www.w3.org/1999/xlink" x="0px" y="0px"
	 width="512.893px" height="609.087px" viewBox="0 0 512.893 609.087" enable-background="new 0 0 512.893 609.087"
	 xml:space="preserve">
<path fill="#E39578" d="M141.167,330.544c-5.985,9.938-4.5,10.35-1.517,9.302c3.462-1.215,2.521,1.101,0.679,3.375
	s-0.58,2.682-6.269,3.769c-5.689,1.086-6.146,3.952-8.278-0.437c-2.132-4.389-8.534-1.708-5.08-8.451
	c3.453-6.743,12.192-15.497,14.764-17.043c2.571-1.545,8.826-7.639,11.831-3.611C150.301,321.476,141.167,330.544,141.167,330.544z"
	/>
<path fill="#83C5BE" d="M97.318,435.187c0,0-5.176-69.701,1.991-82.336c7.167-12.636,23.216-26.155,26.25-17.725
	c3.034,8.43,12.483,15.065,11.034,19.72c-1.449,4.655-20.195,16.625-18.188,45.222C120.411,428.664,97.318,435.187,97.318,435.187z"
	/>
<ellipse fill="#E39578" cx="119.699" cy="395.722" rx="25.5" ry="32.199"/>
<path fill="#83C5BE" d="M487.559,57.679c0,4.359-5.373,7.894-12,7.894H223.452c-6.627,0-12-3.534-12-7.894V36.794
	c0-4.36,5.373-7.894,12-7.894h252.107c6.627,0,12,3.534,12,7.894V57.679z"/>
<path fill="#016D77" d="M379.629,125.292c0,6.627-5.373,12-12,12H115.522c-6.627,0-12-5.373-12-12V93.54c0-6.627,5.373-12,12-12
	h252.107c6.627,0,12,5.373,12,12V125.292z"/>
<path fill="#83C5BE" d="M487.559,181.445c0,3.313-5.373,6-12,6H223.452c-6.627,0-12-2.687-12-6v-15.875c0-3.314,5.373-6,12-6
	h252.107c6.627,0,12,2.686,12,6V181.445z"/>
<path fill="#016D77" d="M379.629,250.693c0,6.627-5.373,12-12,12H115.522c-6.627,0-12-5.373-12-12V218.94c0-6.627,5.373-12,12-12
	h252.107c6.627,0,12,5.373,12,12V250.693z"/>
<circle fill="#FDDDD2" cx="213.348" cy="332.505" r="59.292"/>
<polyline fill="#E39578" points="196.091,303.744 196.091,361.266 248.746,332.505 "/>
<path fill="#E39578" d="M195.722,395.734c-5.434,10.25-6.552,9.189-7.191,6.093c-0.742-3.593-2.242-1.593-3.242,1.157
	s-2,1.879,0,7.314s-0.221,7.304,4.64,6.87s5.86,6.434,9.86,0s7-18.434,7-21.434s2-11.5-3-12S195.722,395.734,195.722,395.734z"/>
<path fill="#83C5BE" d="M184.133,416.5c0,0,12.155-3.75,15.405,5.75s3.25,41.25-11.75,61.5s-10.25,23.5-27.25,25.25s-22.5-3-24,2.5
	s14.5,41.5,17.5,52.5s-49,20-80,12s-27-27.5-24-59s1.5-67,15.5-80s70,1.121,82.5,10.811s13,12.311,20,0
	S181.715,417.012,184.133,416.5z"/>
<path fill="#016D77" d="M88.233,345.854c-12.39,2.655-18.169,12.693-23.009,23.992c-5.997,14-6.453,22.449-10.663,41.152
	C51.76,423.444,53.93,422.499,45.334,427c-6.3,3.299,4.182,14.295-16.441,25.94c-8.519,4.81-0.134,15.951-7.34,29.81
	c-4.16,8,3.733,18.228,7.61,19.672c12.75,4.75,4.98,9.328,28.981,1.838c10.686-3.334,16.201,11.936,28.75,4.86
	c7.305-4.12,1.891,7.121,26.333,10.88c8.479,1.304,26.666-4.001,22.835-17.749c-1.218-4.373,9.137-4.838,4.832-13.342
	c-3.22-6.36,4.015-9.911,3.399-16.977c-0.782-8.962-0.979-12.696-6.399-21.599c-5.936-9.751-4.218-17.834-7.214-42.334
	c-1.369-11.199-0.681-21.996,2.858-33.5s-0.438-14.231-3.978-18.656s-5.045-7.335-16.549-9.99S88.233,345.854,88.233,345.854z"/>
<line stroke="#83C5BE" stroke-width="7" stroke-miterlimit="10" x1="128.275" y1="222.573" x2="128.275" y2="246.573"/>
<line stroke="#83C5BE" stroke-width="7" stroke-miterlimit="10" x1="144.275" y1="222.573" x2="144.275" y2="246.573"/>
<circle fill="#83C5BE" cx="211.453" cy="234.817" r="7.667"/>
<line fill="none" stroke="#83C5BE" stroke-width="5" stroke-miterlimit="10" x1="164.275" y1="234.817" x2="314.941" y2="234.817"/>
<circle fill="#83C5BE" cx="337.464" cy="235.113" r="3.05"/>
<circle fill="#83C5BE" cx="347.662" cy="235.113" r="3.05"/>
<circle fill="#83C5BE" cx="358.708" cy="235.113" r="3.05"/>
</svg>
