<?xml version="1.0" encoding="utf-8"?>
<!-- Generator: Adobe Illustrator 16.0.0, SVG Export Plug-In . SVG Version: 6.00 Build 0)  -->
<!DOCTYPE svg PUBLIC "-//W3C//DTD SVG 1.1 Tiny//EN" "http://www.w3.org/Graphics/SVG/1.1/DTD/svg11-tiny.dtd">
<svg version="1.1" baseProfile="tiny" id="Layer_1" xmlns="http://www.w3.org/2000/svg" xmlns:xlink="http://www.w3.org/1999/xlink"
	 x="0px" y="0px" width="744px" height="562px" viewBox="0 0 744 562" overflow="visible" xml:space="preserve">
<image width="1022" height="845" xlink:href="EE009F0C.png"  transform="matrix(0.24 0 0 0.24 30.3452 141.5913)">
</image>
<image width="1050" height="754" xlink:href="EE009F0D.png"  transform="matrix(0.24 0 0 0.24 400.4956 219.4766)">
</image>
<image width="755" height="1050" xlink:href="EE009F0E.png"  transform="matrix(0.24 0 0 0.24 184.998 208.0752)">
</image>
<image width="467" height="653" xlink:href="EE009F0B.png"  transform="matrix(0.24 0 0 0.24 596.4414 305.5137)">
</image>
<g>
	<path fill="#E39578" d="M409.143,352.074c0,6.629-5.373,12-12,12h-151c-6.627,0-12-5.371-12-12V45.221c0-6.627,5.373-12,12-12h151
		c6.627,0,12,5.373,12,12V352.074z"/>
	<path fill="#EDF7F9" d="M397.177,339.256c0,6.186-4.679,11.199-10.45,11.199H255.23c-5.771,0-10.45-5.014-10.45-11.199V52.86
		c0-6.186,4.679-11.2,10.45-11.2h131.497c5.771,0,10.45,5.014,10.45,11.2V339.256z"/>
	<circle fill="#E39578" cx="263.143" cy="58.221" r="8"/>
	<polyline fill="#83C5BE" points="270.096,163.145 370.514,163.145 320.305,199.288 	"/>
	<polyline fill="#83C5BE" points="373.19,169.605 373.19,228.97 270.096,228.97 270.096,169.605 320.305,205.951 	"/>
	<circle fill="#83C5BE" cx="320.979" cy="316.464" r="18.5"/>
	<g>
		<g transform="translate(0.000000,511.000000) scale(0.100000,-0.100000)">
			<path fill="#066E77" d="M3146.528,2050.947c-18.809-8.018-32.661-19.502-36.753-30.293c-0.918-2.412-1.06-3.779-1.021-9.609
				c0.049-12.646,3.11-26.65,9.282-42.295c8.418-21.289,20.811-40.479,38.745-60.02c31.982-34.805,74.951-57.754,111.836-59.59
				c6.904-0.41,10.117,0.234,15.513,3.047c8.989,4.678,20.073,19.492,26.729,35.732c1.948,4.658,2.095,5.635,1.074,7.578
				c-0.825,1.611-45.679,33.496-48.462,34.463c-1.987,0.625-4.229,0.449-6.372-0.635c-0.728-0.381-4.712-4.854-8.896-9.912
				c-8.496-10.352-9.668-11.289-14.38-11.328c-2.578,0-3.306,0.244-9.287,3.555c-26.919,14.727-38.643,26.436-53.369,53.369
				c-3.306,6.025-3.55,6.699-3.55,9.326c0.049,4.668,1.118,6.035,11.333,14.395c4.956,4.023,9.37,8.066,9.912,8.887
				c1.025,1.807,1.172,5.635,0.283,7.393c-0.337,0.635-7.871,11.416-16.714,23.916c-10.352,14.727-16.523,23.037-17.407,23.477
				C3153.037,2053.428,3151.919,2053.232,3146.528,2050.947z"/>
		</g>
	</g>
</g>
<path fill="#FDDDD2" d="M583.901,271.66c-8.763,16.126-10.514,14.43-11.475,9.521c-1.116-5.695-3.521-2.557-5.147,1.777
	c-1.627,4.335-3.195,2.939-0.119,11.572c3.076,8.631-0.468,11.55,7.228,10.941c7.695-0.607,9.166,10.273,15.598,0.16
	c6.433-10.112,11.373-29.047,11.422-33.793c0.049-4.746,3.351-18.159-4.552-19.033C588.954,251.936,583.901,271.66,583.901,271.66z"
	/>
<path fill="#016D77" d="M476.279,415.309c0,0,99.23-48.777,110.725-68.677c11.497-19.899,17.082-52.624,3.151-50.009
	c-13.931,2.614-30.552-4.959-35.74,0.747c-5.189,5.706-6.501,40.868-47.119,61.038C466.678,378.58,476.279,415.309,476.279,415.309z
	"/>
<ellipse fill="#FDDDD2" cx="451.036" cy="254.576" rx="40.341" ry="50.938"/>
<path fill="#E49678" d="M498.688,302.64c-14.307-3.87-52.159,20.906-52.199,27c-0.042,6.094,0,0.001,0.414,60.441
	C419,421.935,412.152,445.194,389,478c-23.152,32.805-10.323,41.495,39.727,33c50.05-8.495,136.036,26.018,136.273,22
	c0.235-4.016-1.334-42.052-6.053-91c-4.925-51.105-16.1-106.144-19.107-116.31c-3.009-10.164-1.075-14.762-7.947-27.461"/>
<path fill="#FDDDD2" d="M294.875,367.137c17.111,6.636,17.351,4.209,14.911-0.156c-2.832-5.066,1.033-4.227,5.077-1.974
	c4.042,2.255,4.337,0.178,7.572,8.751c3.234,8.572,7.824,8.508,1.561,13.021c-6.263,4.513-0.349,13.764-11.795,10.208
	s-27.457-14.805-30.563-18.394c-3.105-3.589-14.297-11.688-8.834-17.461C278.267,355.357,294.875,367.137,294.875,367.137z"/>
<path fill="#016D77" d="M330.236,379.98c0,0-18.423,8.098-12.477,22.826c5.949,14.73,38.817,52.71,77.724,61.405
	c38.908,8.696,36.589,17.501,58.738,1.996c22.147-15.507,25.59-22.887,28.853-31.296c9.134-23.538-31.273-121.487-36.195-96.956
	s-43.858,70.298-64.976,62.818C360.786,393.294,333.659,378.089,330.236,379.98z"/>
<path fill="#83C5BF" d="M458.431,182.237c-16.646,3.841-18.824,8.052-23.945,14.455c-5.121,6.401-16.937,11.11-5.756,26.994
	c10.025,14.241,9.331,156.648-0.003,179.314c-12.314,29.906,115.488,6.64,127.273-16c12.808-24.604-19.748-149.791-28.425-170.048
	c-7.002-16.349-15.365-30.874-33.292-34.715C494.283,182.237,475.077,178.394,458.431,182.237z"/>
</svg>
