<?xml version="1.0" encoding="utf-8"?>
<!-- Generator: Adobe Illustrator 16.0.0, SVG Export Plug-In . SVG Version: 6.00 Build 0)  -->
<!DOCTYPE svg PUBLIC "-//W3C//DTD SVG 1.0//EN" "http://www.w3.org/TR/2001/REC-SVG-20010904/DTD/svg10.dtd">
<svg version="1.0" id="Layer_1" xmlns="http://www.w3.org/2000/svg" xmlns:xlink="http://www.w3.org/1999/xlink" x="0px" y="0px"
	 width="744px" height="562px" viewBox="0 0 744 562" enable-background="new 0 0 744 562" xml:space="preserve">
<linearGradient id="SVGID_1_" gradientUnits="userSpaceOnUse" x1="282.9404" y1="475.1738" x2="463.9004" y2="475.1738" gradientTransform="matrix(0.7071 0.7071 -0.7071 0.7071 227.5501 -349.2569)">
	<stop  offset="0" style="stop-color:#FFFFFF"/>
	<stop  offset="1" style="stop-color:#066E77"/>
</linearGradient>
<polygon opacity="0.5" fill="url(#SVGID_1_)" points="96.148,248.087 118.534,225.695 118.533,179.36 156.302,141.592 
	224.548,141.591 275.479,192.528 275.479,258.866 190.011,344.336 70.999,344.336 30.347,303.68 30.345,248.085 "/>
<linearGradient id="SVGID_2_" gradientUnits="userSpaceOnUse" x1="443.2256" y1="223.4551" x2="624.1865" y2="223.4551" gradientTransform="matrix(-4.371139e-008 1 -1 -4.371139e-008 749.9194 -223.7495)">
	<stop  offset="0" style="stop-color:#FFFFFF"/>
	<stop  offset="1" style="stop-color:#066E77"/>
</linearGradient>
<polygon opacity="0.5" fill="url(#SVGID_2_)" points="486.339,266.007 518,266.002 550.765,233.239 604.176,233.239 
	652.434,281.495 652.43,353.527 605.521,400.435 484.65,400.437 400.496,316.283 400.499,258.788 439.81,219.477 "/>
<linearGradient id="SVGID_3_" gradientUnits="userSpaceOnUse" x1="751.832" y1="179.8184" x2="932.793" y2="179.8184" gradientTransform="matrix(-1 0 0 -1 1117.791 513.8623)">
	<stop  offset="0" style="stop-color:#FFFFFF"/>
	<stop  offset="1" style="stop-color:#066E77"/>
</linearGradient>
<polygon opacity="0.5" fill="url(#SVGID_3_)" points="319.428,293.917 319.432,325.579 352.196,358.343 352.196,411.755 
	303.939,460.013 231.908,460.009 185,413.101 184.998,292.229 269.152,208.075 326.646,208.078 365.959,247.389 "/>
<linearGradient id="SVGID_4_" gradientUnits="userSpaceOnUse" x1="115.8545" y1="-12.6426" x2="227.8398" y2="-12.6426" gradientTransform="matrix(-1 0 0 -1 824.2813 371.1924)">
	<stop  offset="0" style="stop-color:#FFFFFF"/>
	<stop  offset="1" style="stop-color:#066E77"/>
</linearGradient>
<polygon opacity="0.2" fill="url(#SVGID_4_)" points="622.496,462.156 596.441,436.102 596.441,395.674 628.19,363.928 
	628.19,331.268 653.942,305.514 683.881,305.514 708.427,330.062 708.427,397.793 682.699,423.521 644.063,462.156 "/>
<g>
	<path fill="#016D77" d="M436.206,371.52c0,6.629-5.373,12-12,12h-151c-6.627,0-12-5.371-12-12V64.667c0-6.627,5.373-12,12-12h151
		c6.627,0,12,5.373,12,12V371.52z"/>
	<path fill="#EDF7F9" d="M424.24,358.701c0,6.186-4.679,11.199-10.45,11.199H282.293c-5.771,0-10.45-5.014-10.45-11.199V72.306
		c0-6.186,4.679-11.2,10.45-11.2H413.79c5.771,0,10.45,5.014,10.45,11.2V358.701z"/>
	<circle fill="#016D77" cx="290.206" cy="77.667" r="8"/>
	<polyline fill="#E39578" points="297.159,182.59 397.577,182.59 347.368,218.733 	"/>
	<polyline fill="#E39578" points="400.253,189.05 400.253,248.416 297.159,248.416 297.159,189.05 347.368,225.396 	"/>
	<circle fill="#E39578" cx="348.042" cy="335.909" r="18.5"/>
	<g>
		<g transform="translate(0.000000,511.000000) scale(0.100000,-0.100000)">
			<path fill="#FDDDD2" d="M3417.158,1856.494c-18.809-8.018-32.661-19.502-36.753-30.293c-0.918-2.412-1.06-3.779-1.021-9.609
				c0.049-12.646,3.11-26.65,9.282-42.295c8.418-21.289,20.811-40.479,38.745-60.02c31.982-34.805,74.951-57.754,111.836-59.59
				c6.904-0.41,10.117,0.234,15.513,3.047c8.989,4.678,20.073,19.492,26.729,35.732c1.948,4.658,2.095,5.635,1.074,7.578
				c-0.825,1.611-45.679,33.496-48.462,34.463c-1.987,0.625-4.229,0.449-6.372-0.635c-0.728-0.381-4.712-4.854-8.896-9.912
				c-8.496-10.352-9.668-11.289-14.38-11.328c-2.578,0-3.306,0.244-9.287,3.555c-26.919,14.727-38.643,26.436-53.369,53.369
				c-3.306,6.025-3.55,6.699-3.55,9.326c0.049,4.668,1.118,6.035,11.333,14.395c4.956,4.023,9.37,8.066,9.912,8.887
				c1.025,1.807,1.172,5.635,0.283,7.393c-0.337,0.635-7.871,11.416-16.714,23.916c-10.352,14.727-16.523,23.037-17.407,23.477
				C3423.667,1858.975,3422.549,1858.779,3417.158,1856.494z"/>
		</g>
	</g>
</g>
<path fill="#FDDDD2" d="M583.901,271.66c-8.763,16.126-10.514,14.43-11.475,9.521c-1.116-5.695-3.521-2.557-5.147,1.777
	c-1.627,4.335-3.195,2.939-0.119,11.572c3.076,8.631-0.468,11.55,7.228,10.941c7.695-0.607,9.166,10.273,15.598,0.16
	c6.433-10.112,11.373-29.047,11.422-33.793c0.049-4.746,3.351-18.159-4.552-19.033C588.954,251.936,583.901,271.66,583.901,271.66z"
	/>
<path fill="#016D77" d="M476.279,415.309c0,0,99.23-48.777,110.725-68.677c11.497-19.899,17.082-52.624,3.151-50.009
	c-13.931,2.614-30.552-4.959-35.74,0.747c-5.189,5.706-6.501,40.868-47.119,61.038C466.678,378.58,476.279,415.309,476.279,415.309z
	"/>
<ellipse fill="#FDDDD2" cx="450.629" cy="271.621" rx="40.341" ry="50.938"/>
<path fill="#E49678" d="M498.688,302.64c-14.307-3.87-52.159,20.906-52.199,27c-0.042,6.094,0,0.001,0.414,60.441
	C419,421.935,412.152,445.194,389,478c-23.152,32.805-10.323,41.495,39.727,33c50.05-8.495,136.036,26.018,136.273,22
	c0.235-4.016-1.334-42.052-6.053-91c-4.925-51.105-16.1-106.144-19.107-116.31c-3.009-10.164-1.075-14.762-7.947-27.461"/>
<path fill="#FDDDD2" d="M294.875,367.137c17.111,6.636,17.351,4.209,14.911-0.156c-2.832-5.066,1.033-4.227,5.077-1.974
	c4.042,2.255,4.337,0.178,7.572,8.751c3.234,8.572,7.824,8.508,1.561,13.021c-6.263,4.513-0.349,13.764-11.795,10.208
	s-27.457-14.805-30.563-18.394c-3.105-3.589-14.297-11.688-8.834-17.461C278.267,355.357,294.875,367.137,294.875,367.137z"/>
<path fill="#016D77" d="M330.236,379.98c0,0-18.423,8.098-12.477,22.826c5.949,14.73,38.817,52.71,77.724,61.405
	c38.908,8.696,36.589,17.501,58.738,1.996c22.147-15.507,25.59-22.887,28.853-31.296c9.134-23.538-31.273-121.487-36.195-96.956
	s-43.858,70.298-64.976,62.818C360.786,393.294,333.659,378.089,330.236,379.98z"/>
<path fill="#83C5BF" d="M464.886,193.34c-16.646,3.841-18.824,8.052-23.945,14.455c-5.121,6.401-16.937,11.11-5.756,26.994
	c10.025,14.241,9.331,156.648-0.003,179.314c-12.314,29.906,115.488,6.64,127.273-16c12.808-24.604-19.748-149.791-28.425-170.048
	c-7.002-16.349-15.365-30.874-33.292-34.715C500.738,193.34,481.532,189.497,464.886,193.34z"/>
</svg>
