<?xml version="1.0" encoding="utf-8"?>
<!-- Generator: Adobe Illustrator 16.0.0, SVG Export Plug-In . SVG Version: 6.00 Build 0)  -->
<!DOCTYPE svg PUBLIC "-//W3C//DTD SVG 1.1//EN" "http://www.w3.org/Graphics/SVG/1.1/DTD/svg11.dtd">
<svg version="1.1" id="Layer_1" xmlns="http://www.w3.org/2000/svg" xmlns:xlink="http://www.w3.org/1999/xlink" x="0px" y="0px"
	 width="792px" height="792px" viewBox="0 0 792 792" enable-background="new 0 0 792 792" xml:space="preserve">
<image display="none" overflow="visible" width="963" height="737" xlink:href="EBE8F3FF.jpg"  transform="matrix(1 0 0 1 -11 18)">
</image>
<ellipse fill="#FDDDD2" cx="505.34" cy="386.5" rx="102" ry="50"/>
<path fill="#E39578" d="M607.34,404c0,0-4,38-93,44s-112-41-111-39s0,106,0,106s68,92,204,6V404z"/>
<polyline fill="#016D77" points="553.34,287 553.34,376 509.34,405.5 509.34,310 "/>
<polyline fill="#83C5BE" points="461.34,287 461.34,376 505.34,405.5 505.34,310 "/>
<polyline fill="#83C5BE" points="461.34,184 461.34,278 505.34,302.5 505.34,207 "/>
<polyline fill="#016D77" points="553.34,184 553.34,280.5 509.34,302.5 509.34,207 "/>
<polygon fill="#016D77" points="553.34,162.333 553.34,177.667 509.34,200.333 461.34,178.333 461.34,148.667 515.006,137 "/>
<path fill="#83C5BE" d="M434.34,137c4-1.333,44.666,38.667,44.666,38.667l-82,14l-17.333-11.333l68.667-9.667l-33.334-20L356.34,155
	l-19.333-12.667L434.34,137z"/>
<polyline fill="#016D77" points="479.006,179.667 479.006,183.069 479.006,213.667 391.673,225 395.007,200.333 "/>
<polyline fill="#83C5BE" points="391.673,193.667 379.007,184 373.673,202.334 382.673,225 "/>
<polyline fill="#83C5BE" points="346.006,157.833 333.34,148.166 328.006,166.5 337.006,189.167 "/>
<path fill="#016D77" d="M262.98,212.146c1.826,6.371,8.473,10.054,14.842,8.228l87.155-24.989
	c6.371-1.827,10.054-8.472,8.228-14.843l-7.079-24.688c-1.827-6.371-8.472-10.054-14.843-8.228l-87.155,24.989
	c-6.369,1.827-10.055,8.472-8.227,14.843L262.98,212.146z"/>
<path fill="#83C5BE" d="M230.868,228.333c0,0,12-16,21.333-14S266.868,243,266.868,243l-38.667,58c0,0-13.333,10.333-19.333,8.167
	s-72.667-2.833-72.667-2.833s-32.666-20-9.333-25.333s77.333,0,77.333,0L230.868,228.333z"/>
<path fill="#83C5BE" d="M217.068,200.682c0,0,14.145,9.424,22.995,6.102c8.851-3.321,10.109-24.041,10.109-24.041l-46.536-35.118
	c0,0-14.607-4.981-20.166-2.196c-5.559,2.785-70.809,16.468-70.809,16.468s-29.043,21.211-5.377,20.527
	c23.665-0.684,75.804-15.303,75.804-15.303L217.068,200.682z"/>
<path fill="#016D77" d="M243.14,228.62c2.988,5.5,9.87,7.535,15.369,4.547l0,0c5.5-2.989,7.536-9.87,4.548-15.37l-12.732-23.431
	c-2.988-5.5-9.87-7.535-15.37-4.546l0,0c-5.499,2.988-7.535,9.869-4.547,15.369L243.14,228.62z"/>
<path fill="#E39578" d="M236.333,294.799c0,6.627-5.373,12-12,12h-8.667c-6.627,0-12-5.373-12-12v-8.667c0-6.627,5.373-12,12-12
	h8.667c6.627,0,12,5.373,12,12V294.799z"/>
<path fill="#E39578" d="M208.333,166.234c0,6.627-5.373,12-12,12H189c-6.627,0-12-5.373-12-12v-9.651c0-6.627,5.373-12,12-12h7.333
	c6.627,0,12,5.373,12,12V166.234z"/>
<path fill="#83C5BE" d="M268.434,217.813c1.826,6.371,8.473,10.054,14.842,8.228l87.155-24.989
	c6.37-1.827,10.054-8.472,8.228-14.843l-7.078-24.688c-1.826-6.371-8.472-10.054-14.843-8.228l-87.155,24.989
	c-6.369,1.827-10.055,8.472-8.227,14.843L268.434,217.813z"/>
</svg>
