<?xml version="1.0" encoding="utf-8"?>
<!-- Generator: Adobe Illustrator 16.0.0, SVG Export Plug-In . SVG Version: 6.00 Build 0)  -->
<!DOCTYPE svg PUBLIC "-//W3C//DTD SVG 1.1//EN" "http://www.w3.org/Graphics/SVG/1.1/DTD/svg11.dtd">
<svg version="1.1" id="Layer_1" xmlns="http://www.w3.org/2000/svg" xmlns:xlink="http://www.w3.org/1999/xlink" x="0px" y="0px"
	 width="792px" height="792px" viewBox="0 0 792 792" enable-background="new 0 0 792 792" xml:space="preserve">
<image display="none" overflow="visible" width="909" height="788" xlink:href="17B3CC2F.jpg"  transform="matrix(1 0 0 1 -58 2)">
</image>
<polygon fill="#FDDDD2" points="582.226,242.147 511.258,644.451 406.649,502.516 "/>
<polyline fill="#E39578" points="582.226,325.097 575.313,584.083 523.7,634.774 "/>
<polyline fill="#FDDDD2" points="615.405,202.516 673.009,301.594 585.912,237.078 "/>
<polyline fill="#E39578" points="664.253,301.594 590.98,249.521 590.98,285.004 "/>
<polyline fill="#E39578" points="450.889,423.714 338.446,396 402.502,493.3 "/>
<polyline fill="#FDDDD2" points="331.534,402.516 406.649,520.949 183.147,467.032 "/>
<polyline fill="#FDDDD2" points="411.949,531.548 427.617,551.825 411.949,591.917 105.958,726.019 111.949,493.761 
	168.631,475.788 "/>
<polyline fill="#E39578" points="436.143,557.354 503.424,644.451 351.811,625.097 418.17,600.902 "/>
<polyline fill="#E39578" points="531.073,303.898 492.363,85.465 248.585,329.244 234.299,432.931 338.446,386.848 450.889,413.115 
	"/>
<polyline fill="#E39578" points="225.082,437.078 83.147,325.097 173.009,453.668 "/>
<polyline fill="#FDDDD2" points="167.018,459.198 83.147,333.392 128.309,474.866 "/>
<line fill="none" stroke="#FDDDD2" stroke-width="7" stroke-miterlimit="10" x1="379.921" y1="391.458" x2="482.225" y2="110.812"/>
<line fill="none" stroke="#E39578" stroke-width="7" stroke-miterlimit="10" x1="270.244" y1="515.42" x2="127.848" y2="696.987"/>
<line fill="none" stroke="#E39578" stroke-width="7" stroke-miterlimit="10" x1="324.621" y1="417.479" x2="291.441" y2="484.298"/>
</svg>
