<?xml version="1.0" encoding="utf-8"?>
<!-- Generator: Adobe Illustrator 16.0.0, SVG Export Plug-In . SVG Version: 6.00 Build 0)  -->
<!DOCTYPE svg PUBLIC "-//W3C//DTD SVG 1.1//EN" "http://www.w3.org/Graphics/SVG/1.1/DTD/svg11.dtd">
<svg version="1.1" id="Layer_1" xmlns="http://www.w3.org/2000/svg" xmlns:xlink="http://www.w3.org/1999/xlink" x="0px" y="0px"
	 width="1366px" height="1258.064px" viewBox="0 0 1366 1258.064" enable-background="new 0 0 1366 1258.064" xml:space="preserve">
<g id="Group_115" transform="translate(0 -1092.746)" display="none">
	<linearGradient id="Path_8_1_" gradientUnits="userSpaceOnUse" x1="-8.7295" y1="1336.3721" x2="645.9482" y2="1336.3721">
		<stop  offset="0" style="stop-color:#EDF6F9;stop-opacity:0.4"/>
		<stop  offset="1" style="stop-color:#88C7C1;stop-opacity:0.1"/>
		<stop  offset="1" style="stop-color:#83C5BE;stop-opacity:0.3"/>
	</linearGradient>
	<path id="Path_8" display="inline" fill="url(#Path_8_1_)" d="M-8.729,1143.724c0,0,103-93.5,198-103.333s96.167,39.833,180,90
		s60,19,112,13.333s65.333-81.333,108-57.333s70,68,50,114s-64,52-90,96s22.333,121-12.667,164.667s-83,17-106.667-6.667
		s59-77,16-94.667s-133.333-26-172,8s-57.666,67.667-43.999,117.334s126.667,28,98.667,81.333s-117,70.667-201.333,66.667
		s-136.001-82.667-136.001-82.667V1143.724z"/>
	<linearGradient id="Path_9_1_" gradientUnits="userSpaceOnUse" x1="605.813" y1="2039.4541" x2="1357.2705" y2="2039.4541">
		<stop  offset="0" style="stop-color:#EDF6F9;stop-opacity:0.4"/>
		<stop  offset="0.9677" style="stop-color:#86C7C0;stop-opacity:0.1"/>
		<stop  offset="1" style="stop-color:#83C5BE;stop-opacity:0.3"/>
	</linearGradient>
	<path id="Path_9" display="inline" fill="url(#Path_9_1_)" d="M1357.271,1790.773c0,0-37.167,58-144,96.667
		s-122.333-104.333-226-112s-140.333,42.167-202.667,100.667s-2.666,73.333-46.666,133.333s-117,31.667-129.333,106.667
		s17.333,148,66.667,174.667s91.666-10.334,178.666-17.334s135.667,58,224,17.333s51.5-106,121.333-137.333s158-25.333,158-25.333
		V1790.773z"/>
	<linearGradient id="Path_10_1_" gradientUnits="userSpaceOnUse" x1="120.5405" y1="1979.0762" x2="315.7954" y2="1979.0762">
		<stop  offset="0" style="stop-color:#EDF6F9;stop-opacity:0.4"/>
		<stop  offset="1" style="stop-color:#83C5BE;stop-opacity:0.1"/>
	</linearGradient>
	<path id="Path_10" display="inline" fill="url(#Path_10_1_)" d="M174.941,1899.724c-28.565,3.088-64,62.667-52,116
		s53.333,56,74.667,12.576s64,52.757,94.667,18.091s38.667-114.667-21.333-94.667S203.502,1896.636,174.941,1899.724z"/>
</g>
<g opacity="0.6">
	<linearGradient id="SVGID_1_" gradientUnits="userSpaceOnUse" x1="951.2764" y1="486.0358" x2="1228.2595" y2="6.2868">
		<stop  offset="0" style="stop-color:#EDF6F9;stop-opacity:0.1"/>
		<stop  offset="0" style="stop-color:#D6E9EC;stop-opacity:0.2"/>
		<stop  offset="0.5" style="stop-color:#006D77;stop-opacity:0.2"/>
		<stop  offset="1" style="stop-color:#EDF6F9;stop-opacity:0.2"/>
	</linearGradient>
	<polygon fill="url(#SVGID_1_)" points="1221.547,245.579 1172.406,294.72 1172.406,396.439 1089.5,479.345 939.688,479.345 
		827.875,367.532 827.875,221.907 1015.5,34.282 1276.75,34.282 1366,123.532 1366,245.579 	"/>
	<linearGradient id="SVGID_2_" gradientUnits="userSpaceOnUse" x1="371.4722" y1="929.8536" x2="122.2412" y2="929.8536">
		<stop  offset="0" style="stop-color:#EDF6F9;stop-opacity:0.2"/>
		<stop  offset="0.5376" style="stop-color:#006D77;stop-opacity:0.2"/>
		<stop  offset="1" style="stop-color:#EDF6F9;stop-opacity:0.2"/>
	</linearGradient>
	<polygon fill="url(#SVGID_2_)" points="313.486,755.546 371.472,813.532 371.472,903.504 300.815,974.161 300.815,1046.847 
		243.5,1104.162 176.871,1104.162 122.241,1049.532 122.241,898.791 179.5,841.532 265.486,755.546 	"/>
	<linearGradient id="SVGID_3_" gradientUnits="userSpaceOnUse" x1="1259.915" y1="1341.5724" x2="759.9381" y2="841.5955">
		<stop  offset="0" style="stop-color:#EDF6F9;stop-opacity:0.1"/>
		<stop  offset="0.0376" style="stop-color:#DCECF0;stop-opacity:0.2"/>
		<stop  offset="0.5376" style="stop-color:#006D77;stop-opacity:0.2"/>
		<stop  offset="1" style="stop-color:#EDF6F9;stop-opacity:0.2"/>
	</linearGradient>
	<polygon fill="url(#SVGID_3_)" points="1239.048,1235.484 1177.096,1173.532 1177.096,1096.567 1096.938,1016.407 
		950.875,1016.407 827.875,1139.407 683.625,1139.407 617.75,1073.532 617.75,983.782 715.5,886.032 925,886.032 1035.5,996.532 
		1198.5,996.532 1275.5,1073.532 1366,1073.532 1366,1235.484 	"/>
</g>
<g>
	<polyline fill="none" stroke="#83C5BE" stroke-width="4" stroke-miterlimit="10" points="143.501,398.165 143.501,499.755 
		123.216,520.041 123.784,520.041 67.523,520.041 	"/>
	<polyline fill="none" stroke="#83C5BE" stroke-width="4" stroke-miterlimit="10" points="184.039,374.447 184.039,494.924 
		149.942,529.021 58.731,529.021 	"/>
	<polyline fill="none" stroke="#006D77" stroke-width="4" stroke-miterlimit="10" points="135.407,386.664 135.407,448.47 
		116.799,467.078 116.799,544.073 94.344,566.528 95.765,566.528 65.077,566.528 	"/>
	<polyline fill="none" stroke="#006D77" stroke-width="4" stroke-miterlimit="10" points="306.219,542.928 258.025,542.928 
		233.289,518.193 181.607,518.193 146.626,553.173 146.626,593.238 	"/>
	<polyline fill="none" stroke="#006D77" stroke-width="4" stroke-miterlimit="10" points="328.951,563.346 256.557,563.346 
		217.566,602.338 	"/>
	<polyline fill="none" stroke="#83C5BE" stroke-width="4" stroke-miterlimit="10" points="65.077,504.927 100.822,504.927 
		109.215,496.534 109.215,462.058 127.187,444.086 127.187,350.295 	"/>
	<circle fill="#006D77" cx="279.729" cy="520.04" r="3.974"/>
	<circle fill="#006D77" cx="304.895" cy="542.943" r="3.973"/>
	<circle fill="#006D77" cx="327.787" cy="563.346" r="3.974"/>
	<circle fill="#006D77" cx="150.944" cy="379.845" r="3.973"/>
	<circle fill="#006D77" cx="135.407" cy="386.665" r="3.974"/>
	<circle fill="#83C5BE" cx="184.039" cy="533.852" r="3.973"/>
	<circle fill="#83C5BE" cx="197.868" cy="415.459" r="3.973"/>
	<circle fill="#83C5BE" cx="184.039" cy="374.447" r="3.973"/>
	<circle fill="#83C5BE" cx="143.501" cy="398.164" r="3.973"/>
	<circle fill="#83C5BE" cx="127.187" cy="351.432" r="3.974"/>
	<polyline fill="none" stroke="#83C5BE" stroke-width="4" stroke-miterlimit="10" points="283.582,553.315 251.617,553.315 
		211.695,593.238 	"/>
	<circle fill="#83C5BE" cx="283.582" cy="553.315" r="3.973"/>
	<polyline fill="none" stroke="#006D77" stroke-width="4" stroke-miterlimit="10" points="102.71,660.233 118.021,660.233 
		143.501,634.752 185.152,634.752 217.566,602.338 	"/>
	<polyline fill="none" stroke="#006D77" stroke-width="4" stroke-miterlimit="10" points="100.242,633.6 115.237,633.6 
		139.238,609.599 139.238,550.781 183.455,506.566 184.766,506.566 266.25,506.566 279.01,519.324 	"/>
	<polyline fill="none" stroke="#006D77" stroke-width="4" stroke-miterlimit="10" points="100.242,611.922 113.452,611.922 
		132.135,593.238 132.135,520.041 150.944,501.231 150.944,379.845 	"/>
	<polyline fill="none" stroke="#006D77" stroke-width="4" stroke-miterlimit="10" points="93.071,648.209 114.396,648.209 
		146.626,615.98 146.626,593.238 	"/>
	<polyline fill="none" stroke="#83C5BE" stroke-width="4" stroke-miterlimit="10" points="100.242,625.68 179.252,625.68 
		211.695,593.238 	"/>
	<polyline fill="none" stroke="#83C5BE" stroke-width="4" stroke-miterlimit="10" points="93.071,616.375 174.731,616.375 
		197.868,593.238 197.868,415.459 	"/>
	<polyline fill="none" stroke="#83C5BE" stroke-width="4" stroke-miterlimit="10" points="94.776,604.205 158.107,604.205 
		169.074,593.238 169.074,548.816 184.039,533.851 	"/>
	<polyline fill="none" stroke="#006D77" stroke-width="4" stroke-miterlimit="10" points="285.473,635.684 269.178,619.387 
		233.107,619.388 184.039,668.457 104.138,668.457 	"/>
	<polyline fill="none" stroke="#83C5BE" stroke-width="4" stroke-miterlimit="10" points="282.049,593.248 245.4,593.237 
		245.4,593.237 199.502,639.137 161.17,677.467 97.202,677.467 	"/>
	<circle fill="#83C5BE" cx="283.701" cy="593.237" r="3.973"/>
	<circle fill="#006D77" cx="285.473" cy="635.683" r="3.973"/>
	<line fill="none" stroke="#006D77" stroke-width="4" stroke-miterlimit="10" x1="65.077" y1="566.528" x2="0" y2="566.528"/>
	<line fill="none" stroke="#006D77" stroke-width="4" stroke-miterlimit="10" x1="102.71" y1="611.922" x2="0" y2="611.922"/>
	<line fill="none" stroke="#006D77" stroke-width="4" stroke-miterlimit="10" x1="93.071" y1="648.209" x2="0" y2="648.209"/>
	<line fill="none" stroke="#006D77" stroke-width="4" stroke-miterlimit="10" x1="102.71" y1="633.6" x2="0" y2="633.6"/>
	<line fill="none" stroke="#006D77" stroke-width="4" stroke-miterlimit="10" x1="102.71" y1="660.233" x2="0" y2="660.233"/>
	<line fill="#83C5BE" stroke="#006D77" stroke-width="4" stroke-miterlimit="10" x1="104.138" y1="668.457" x2="0" y2="668.457"/>
	<line fill="none" stroke="#83C5BE" stroke-width="4" stroke-miterlimit="10" x1="58.731" y1="529.021" x2="0" y2="529.021"/>
	<line fill="none" stroke="#83C5BE" stroke-width="4" stroke-miterlimit="10" x1="67.523" y1="520.041" x2="0" y2="520.041"/>
	<line fill="none" stroke="#83C5BE" stroke-width="4" stroke-miterlimit="10" x1="65.077" y1="504.927" x2="0" y2="504.927"/>
	<line fill="none" stroke="#83C5BE" stroke-width="4" stroke-miterlimit="10" x1="94.776" y1="604.205" x2="0" y2="604.205"/>
	<line fill="none" stroke="#83C5BE" stroke-width="4" stroke-miterlimit="10" x1="93.071" y1="616.375" x2="0" y2="616.375"/>
	<line fill="none" stroke="#83C5BE" stroke-width="4" stroke-miterlimit="10" x1="102.71" y1="625.68" x2="-3" y2="625.68"/>
	<line fill="none" stroke="#83C5BE" stroke-width="4" stroke-miterlimit="10" x1="97.202" y1="677.467" x2="-3" y2="677.467"/>
</g>
<g>
	<polyline fill="none" stroke="#83C5BE" stroke-width="4" stroke-miterlimit="10" points="1230.51,1000.33 1230.51,898.74 
		1250.795,878.454 1250.227,878.454 1306.487,878.454 	"/>
	<polyline fill="none" stroke="#83C5BE" stroke-width="4" stroke-miterlimit="10" points="1189.972,1024.048 1189.972,903.57 
		1224.068,869.474 1315.279,869.474 	"/>
	<polyline fill="none" stroke="#006D77" stroke-width="4" stroke-miterlimit="10" points="1238.604,1011.831 1238.604,950.025 
		1257.212,931.417 1257.212,854.422 1279.667,831.967 1278.246,831.967 1308.934,831.967 	"/>
	<polyline fill="none" stroke="#006D77" stroke-width="4" stroke-miterlimit="10" points="1067.792,855.567 1115.985,855.567 
		1140.722,880.302 1192.403,880.302 1227.385,845.321 1227.385,805.257 	"/>
	<polyline fill="none" stroke="#006D77" stroke-width="4" stroke-miterlimit="10" points="1045.06,835.149 1117.454,835.149 
		1156.444,796.157 	"/>
	<polyline fill="none" stroke="#83C5BE" stroke-width="4" stroke-miterlimit="10" points="1308.934,893.568 1273.188,893.568 
		1264.796,901.961 1264.796,936.437 1246.824,954.409 1246.824,1048.2 	"/>
	<circle fill="#006D77" cx="1094.282" cy="878.455" r="3.974"/>
	<circle fill="#006D77" cx="1069.116" cy="855.551" r="3.973"/>
	<circle fill="#006D77" cx="1046.224" cy="835.149" r="3.974"/>
	<circle fill="#006D77" cx="1223.066" cy="1018.65" r="3.973"/>
	<circle fill="#006D77" cx="1238.604" cy="1011.83" r="3.974"/>
	<circle fill="#83C5BE" cx="1189.972" cy="864.643" r="3.973"/>
	<circle fill="#83C5BE" cx="1176.144" cy="983.036" r="3.973"/>
	<circle fill="#83C5BE" cx="1189.972" cy="1024.048" r="3.973"/>
	<circle fill="#83C5BE" cx="1230.51" cy="1000.331" r="3.973"/>
	<circle fill="#83C5BE" cx="1246.824" cy="1047.063" r="3.974"/>
	<polyline fill="none" stroke="#83C5BE" stroke-width="4" stroke-miterlimit="10" points="1090.429,845.18 1122.394,845.18 
		1162.315,805.257 	"/>
	<circle fill="#83C5BE" cx="1090.429" cy="845.18" r="3.973"/>
	<polyline fill="none" stroke="#006D77" stroke-width="4" stroke-miterlimit="10" points="1271.301,738.263 1255.99,738.263 
		1230.51,763.743 1188.858,763.743 1156.444,796.157 	"/>
	<polyline fill="none" stroke="#006D77" stroke-width="4" stroke-miterlimit="10" points="1273.769,764.896 1258.773,764.896 
		1234.772,788.896 1234.772,847.714 1190.556,891.929 1189.245,891.929 1107.761,891.929 1095.001,879.171 	"/>
	<polyline fill="none" stroke="#006D77" stroke-width="4" stroke-miterlimit="10" points="1273.769,786.573 1260.559,786.573 
		1241.876,805.257 1241.876,878.454 1223.066,897.264 1223.066,1018.65 	"/>
	<polyline fill="none" stroke="#006D77" stroke-width="4" stroke-miterlimit="10" points="1280.939,750.286 1259.614,750.286 
		1227.385,782.515 1227.385,805.257 	"/>
	<polyline fill="none" stroke="#83C5BE" stroke-width="4" stroke-miterlimit="10" points="1273.769,772.814 1194.759,772.814 
		1162.315,805.257 	"/>
	<polyline fill="none" stroke="#83C5BE" stroke-width="4" stroke-miterlimit="10" points="1280.939,782.12 1199.279,782.12 
		1176.144,805.257 1176.144,983.036 	"/>
	<polyline fill="none" stroke="#83C5BE" stroke-width="4" stroke-miterlimit="10" points="1279.234,794.29 1215.903,794.29 
		1204.937,805.257 1204.937,849.679 1189.972,864.644 	"/>
	<polyline fill="none" stroke="#006D77" stroke-width="4" stroke-miterlimit="10" points="1088.538,762.812 1104.833,779.107 
		1140.903,779.107 1189.972,730.038 1269.873,730.038 	"/>
	<polyline fill="none" stroke="#83C5BE" stroke-width="4" stroke-miterlimit="10" points="1091.962,805.247 1128.61,805.258 
		1128.61,805.258 1174.509,759.359 1212.841,721.028 1276.809,721.028 	"/>
	<circle fill="#83C5BE" cx="1090.31" cy="805.257" r="3.973"/>
	<circle fill="#006D77" cx="1088.538" cy="762.812" r="3.973"/>
	
		<line fill="none" stroke="#006D77" stroke-width="4" stroke-miterlimit="10" x1="1308.934" y1="831.967" x2="1374.011" y2="831.967"/>
	
		<line fill="none" stroke="#006D77" stroke-width="4" stroke-miterlimit="10" x1="1271.301" y1="786.573" x2="1374.011" y2="786.573"/>
	
		<line fill="none" stroke="#006D77" stroke-width="4" stroke-miterlimit="10" x1="1280.939" y1="750.286" x2="1374.011" y2="750.286"/>
	
		<line fill="none" stroke="#006D77" stroke-width="4" stroke-miterlimit="10" x1="1271.301" y1="764.896" x2="1374.011" y2="764.896"/>
	
		<line fill="none" stroke="#006D77" stroke-width="4" stroke-miterlimit="10" x1="1271.301" y1="738.263" x2="1374.011" y2="738.263"/>
	
		<line fill="#83C5BE" stroke="#006D77" stroke-width="4" stroke-miterlimit="10" x1="1269.873" y1="730.038" x2="1374.011" y2="730.038"/>
	
		<line fill="none" stroke="#83C5BE" stroke-width="4" stroke-miterlimit="10" x1="1315.279" y1="869.474" x2="1374.011" y2="869.474"/>
	
		<line fill="none" stroke="#83C5BE" stroke-width="4" stroke-miterlimit="10" x1="1306.487" y1="878.454" x2="1374.011" y2="878.454"/>
	
		<line fill="none" stroke="#83C5BE" stroke-width="4" stroke-miterlimit="10" x1="1308.934" y1="893.568" x2="1374.011" y2="893.568"/>
	
		<line fill="none" stroke="#83C5BE" stroke-width="4" stroke-miterlimit="10" x1="1279.234" y1="794.29" x2="1374.011" y2="794.29"/>
	
		<line fill="none" stroke="#83C5BE" stroke-width="4" stroke-miterlimit="10" x1="1280.939" y1="782.12" x2="1374.011" y2="782.12"/>
	
		<line fill="none" stroke="#83C5BE" stroke-width="4" stroke-miterlimit="10" x1="1271.301" y1="772.814" x2="1377.011" y2="772.814"/>
	
		<line fill="none" stroke="#83C5BE" stroke-width="4" stroke-miterlimit="10" x1="1276.809" y1="721.028" x2="1377.011" y2="721.028"/>
</g>
</svg>
