<?xml version="1.0" encoding="utf-8"?>
<!-- Generator: Adobe Illustrator 16.0.0, SVG Export Plug-In . SVG Version: 6.00 Build 0)  -->
<!DOCTYPE svg PUBLIC "-//W3C//DTD SVG 1.1//EN" "http://www.w3.org/Graphics/SVG/1.1/DTD/svg11.dtd">
<svg version="1.1" xmlns="http://www.w3.org/2000/svg" xmlns:xlink="http://www.w3.org/1999/xlink" x="0px" y="0px"
	 width="1091.08px" height="800.09px" viewBox="0 0 1091.08 800.09" enable-background="new 0 0 1091.08 800.09"
	 xml:space="preserve">
<g id="Layer_1" display="none">
	<linearGradient id="Path_61_1_" gradientUnits="userSpaceOnUse" x1="0" y1="400.0459" x2="1091.0791" y2="400.0459">
		<stop  offset="0" style="stop-color:#EDF6F9"/>
		<stop  offset="1" style="stop-color:#83C5BE;stop-opacity:0.502"/>
	</linearGradient>
	<path id="Path_61" display="inline" fill="url(#Path_61_1_)" d="M0,30.612c0,0,159-60,310-12c147.979,47.04,86,310,278,308
		s566,188,494,308s-527,192.5-642,156s52-126,0-188s-137-72.5-260-50s-180,184-180,184V30.612z"/>
</g>
<g id="Layer_2">
	
		<linearGradient id="SVGID_1_" gradientUnits="userSpaceOnUse" x1="451.4707" y1="702.2061" x2="451.4707" y2="93.0581" gradientTransform="matrix(-1 0 0 1 1135.2168 0)">
		<stop  offset="0" style="stop-color:#EDF6F9;stop-opacity:0.2"/>
		<stop  offset="0.543" style="stop-color:#83C5BE;stop-opacity:0.2"/>
		<stop  offset="1" style="stop-color:#EDF6F9;stop-opacity:0.2"/>
	</linearGradient>
	<polyline fill="url(#SVGID_1_)" points="1089.888,557.722 1011.518,479.351 715.069,479.351 674.628,519.792 674.628,524.067 
		674.628,557.382 708.177,590.931 708.177,647.023 652.995,702.205 485.604,702.205 333.12,702.205 276.413,645.498 
		276.413,491.891 394.959,373.344 652.995,373.344 706.65,319.688 706.65,202.953 816.545,93.058 1050.017,93.058 1091.08,134.122 	
		"/>
	<g display="none" opacity="0.4">
		<polyline display="inline" fill="none" stroke="#83C5BE" stroke-width="4" stroke-miterlimit="10" points="40.881,383.719 
			40.881,282.129 20.596,261.843 21.164,261.843 -35.097,261.843 		"/>
		<polyline display="inline" fill="none" stroke="#83C5BE" stroke-width="4" stroke-miterlimit="10" points="81.419,407.437 
			81.419,286.959 47.322,252.862 -43.889,252.862 		"/>
		<polyline display="inline" fill="none" stroke="#006D77" stroke-width="4" stroke-miterlimit="10" points="32.787,395.219 
			32.787,333.413 14.179,314.806 14.179,237.81 -8.276,215.355 -6.855,215.355 -37.543,215.355 		"/>
		<polyline display="inline" fill="none" stroke="#006D77" stroke-width="4" stroke-miterlimit="10" points="203.6,238.955 
			155.406,238.955 130.67,263.69 78.987,263.69 44.006,228.71 44.006,188.646 		"/>
		<polyline display="inline" fill="none" stroke="#006D77" stroke-width="4" stroke-miterlimit="10" points="226.331,218.536 
			153.938,218.536 114.946,179.545 		"/>
		<polyline display="inline" fill="none" stroke="#83C5BE" stroke-width="4" stroke-miterlimit="10" points="-37.543,276.956 
			-1.798,276.956 6.595,285.35 6.595,319.825 24.566,337.798 24.566,431.589 		"/>
		<circle display="inline" fill="#006D77" cx="177.109" cy="261.843" r="3.974"/>
		<circle display="inline" fill="#006D77" cx="202.274" cy="238.939" r="3.973"/>
		<circle display="inline" fill="#006D77" cx="225.168" cy="218.536" r="3.973"/>
		<circle display="inline" fill="#006D77" cx="48.324" cy="402.038" r="3.973"/>
		<circle display="inline" fill="#006D77" cx="32.787" cy="395.219" r="3.974"/>
		<circle display="inline" fill="#83C5BE" cx="81.419" cy="248.031" r="3.973"/>
		<circle display="inline" fill="#83C5BE" cx="95.248" cy="366.424" r="3.973"/>
		<circle display="inline" fill="#83C5BE" cx="81.419" cy="407.436" r="3.973"/>
		<circle display="inline" fill="#83C5BE" cx="40.881" cy="383.719" r="3.973"/>
		<circle display="inline" fill="#83C5BE" cx="24.566" cy="430.451" r="3.974"/>
		
			<line display="inline" fill="none" stroke="#83C5BE" stroke-width="4" stroke-miterlimit="10" x1="-41.691" y1="262.925" x2="-44.138" y2="262.925"/>
		<polyline display="inline" fill="none" stroke="#83C5BE" stroke-width="4" stroke-miterlimit="10" points="180.963,228.568 
			148.998,228.568 109.075,188.646 		"/>
		<circle display="inline" fill="#83C5BE" cx="180.963" cy="228.568" r="3.973"/>
		<polyline display="inline" fill="none" stroke="#006D77" stroke-width="4" stroke-miterlimit="10" points="0.09,121.65 
			15.4,121.65 40.881,147.131 82.532,147.131 114.946,179.545 		"/>
		<polyline display="inline" fill="none" stroke="#006D77" stroke-width="4" stroke-miterlimit="10" points="-2.378,148.283 
			12.617,148.283 36.618,172.284 36.618,231.102 80.835,275.317 82.146,275.317 163.631,275.317 176.391,262.559 		"/>
		<polyline display="inline" fill="none" stroke="#006D77" stroke-width="4" stroke-miterlimit="10" points="-2.378,169.962 
			10.832,169.962 29.515,188.646 29.515,261.843 48.324,280.652 48.324,402.038 		"/>
		<polyline display="inline" fill="none" stroke="#006D77" stroke-width="4" stroke-miterlimit="10" points="-9.549,133.673 
			11.776,133.673 44.006,165.903 44.006,188.646 		"/>
		<polyline display="inline" fill="none" stroke="#83C5BE" stroke-width="4" stroke-miterlimit="10" points="-2.378,156.203 
			76.632,156.203 109.075,188.646 		"/>
		<polyline display="inline" fill="none" stroke="#83C5BE" stroke-width="4" stroke-miterlimit="10" points="-9.549,165.509 
			72.111,165.509 95.248,188.646 95.248,366.425 		"/>
		<polyline display="inline" fill="none" stroke="#83C5BE" stroke-width="4" stroke-miterlimit="10" points="-7.844,177.679 
			55.487,177.679 66.454,188.646 66.454,233.066 81.419,248.032 		"/>
		<polyline display="inline" fill="none" stroke="#006D77" stroke-width="4" stroke-miterlimit="10" points="182.854,146.199 
			166.558,162.495 130.488,162.495 81.419,113.426 1.518,113.426 		"/>
		<polyline display="inline" fill="none" stroke="#83C5BE" stroke-width="4" stroke-miterlimit="10" points="179.43,188.635 
			142.78,188.646 142.78,188.646 96.882,142.747 58.55,104.415 -5.418,104.415 		"/>
		<circle display="inline" fill="#83C5BE" cx="181.082" cy="188.646" r="3.973"/>
		<circle display="inline" fill="#006D77" cx="182.854" cy="146.199" r="3.973"/>
	</g>
</g>
<g id="Layer_3">
</g>
</svg>
