<?xml version="1.0" encoding="utf-8"?>
<!-- Generator: Adobe Illustrator 16.0.0, SVG Export Plug-In . SVG Version: 6.00 Build 0)  -->
<!DOCTYPE svg PUBLIC "-//W3C//DTD SVG 1.1//EN" "http://www.w3.org/Graphics/SVG/1.1/DTD/svg11.dtd">
<svg version="1.1" xmlns="http://www.w3.org/2000/svg" xmlns:xlink="http://www.w3.org/1999/xlink" x="0px" y="0px"
	 width="1091.08px" height="800.09px" viewBox="0 0 1091.08 800.09" enable-background="new 0 0 1091.08 800.09"
	 xml:space="preserve">
<g id="Layer_1" display="none">
	<linearGradient id="Path_61_1_" gradientUnits="userSpaceOnUse" x1="0" y1="400.0459" x2="1091.0791" y2="400.0459">
		<stop  offset="0" style="stop-color:#EDF6F9"/>
		<stop  offset="1" style="stop-color:#83C5BE;stop-opacity:0.502"/>
	</linearGradient>
	<path id="Path_61" display="inline" fill="url(#Path_61_1_)" d="M0,30.612c0,0,159-60,310-12c147.979,47.04,86,310,278,308
		s566,188,494,308s-527,192.5-642,156s52-126,0-188s-137-72.5-260-50s-180,184-180,184V30.612z"/>
</g>
<g id="Layer_2">
	<linearGradient id="SVGID_1_" gradientUnits="userSpaceOnUse" x1="407.3335" y1="704.6182" x2="407.3335" y2="95.4717">
		<stop  offset="0" style="stop-color:#EDF6F9;stop-opacity:0.2"/>
		<stop  offset="0.543" style="stop-color:#83C5BE;stop-opacity:0.2"/>
		<stop  offset="1" style="stop-color:#EDF6F9;stop-opacity:0.2"/>
	</linearGradient>
	<polyline fill="url(#SVGID_1_)" points="1.192,560.135 79.563,481.764 376.011,481.764 416.453,522.205 416.453,526.48 
		416.453,559.795 382.904,593.344 382.904,649.437 438.085,704.618 605.476,704.618 757.96,704.618 814.667,647.911 
		814.667,494.304 696.121,375.757 438.085,375.757 384.43,322.102 384.43,205.366 274.535,95.471 41.064,95.471 0,136.535 	"/>
	<g opacity="0.4">
		<polyline fill="none" stroke="#83C5BE" stroke-width="4" stroke-miterlimit="10" points="1050.199,386.132 1050.199,284.542 
			1070.484,264.256 1069.916,264.256 1126.177,264.256 		"/>
		<polyline fill="none" stroke="#83C5BE" stroke-width="4" stroke-miterlimit="10" points="1009.661,409.85 1009.661,289.372 
			1043.758,255.275 1134.969,255.275 		"/>
		<polyline fill="none" stroke="#006D77" stroke-width="4" stroke-miterlimit="10" points="1058.293,397.632 1058.293,335.826 
			1076.901,317.219 1076.901,240.223 1099.356,217.768 1097.936,217.768 1128.623,217.768 		"/>
		<polyline fill="none" stroke="#006D77" stroke-width="4" stroke-miterlimit="10" points="887.48,241.368 935.674,241.368 
			960.41,266.104 1012.093,266.104 1047.074,231.123 1047.074,191.059 		"/>
		<polyline fill="none" stroke="#006D77" stroke-width="4" stroke-miterlimit="10" points="864.749,220.949 937.143,220.949 
			976.134,181.958 		"/>
		<polyline fill="none" stroke="#83C5BE" stroke-width="4" stroke-miterlimit="10" points="1128.623,279.369 1092.878,279.369 
			1084.485,287.763 1084.485,322.238 1066.514,340.211 1066.514,434.002 		"/>
		<circle fill="#006D77" cx="913.971" cy="264.256" r="3.974"/>
		<circle fill="#006D77" cx="888.806" cy="241.352" r="3.973"/>
		<circle fill="#006D77" cx="865.912" cy="220.949" r="3.973"/>
		<circle fill="#006D77" cx="1042.756" cy="404.451" r="3.973"/>
		<circle fill="#006D77" cx="1058.293" cy="397.632" r="3.974"/>
		<circle fill="#83C5BE" cx="1009.661" cy="250.445" r="3.973"/>
		<circle fill="#83C5BE" cx="995.832" cy="368.837" r="3.973"/>
		<circle fill="#83C5BE" cx="1009.661" cy="409.849" r="3.973"/>
		<circle fill="#83C5BE" cx="1050.199" cy="386.132" r="3.973"/>
		<circle fill="#83C5BE" cx="1066.514" cy="432.864" r="3.974"/>
		
			<line fill="none" stroke="#83C5BE" stroke-width="4" stroke-miterlimit="10" x1="1132.771" y1="265.338" x2="1135.218" y2="265.338"/>
		<polyline fill="none" stroke="#83C5BE" stroke-width="4" stroke-miterlimit="10" points="910.117,230.981 942.082,230.981 
			982.005,191.059 		"/>
		<circle fill="#83C5BE" cx="910.117" cy="230.981" r="3.973"/>
		<polyline fill="none" stroke="#006D77" stroke-width="4" stroke-miterlimit="10" points="1090.99,124.063 1075.68,124.063 
			1050.199,149.544 1008.548,149.544 976.134,181.958 		"/>
		<polyline fill="none" stroke="#006D77" stroke-width="4" stroke-miterlimit="10" points="1093.458,150.696 1078.463,150.696 
			1054.462,174.697 1054.462,233.515 1010.245,277.73 1008.935,277.73 927.449,277.73 914.689,264.972 		"/>
		<polyline fill="none" stroke="#006D77" stroke-width="4" stroke-miterlimit="10" points="1093.458,172.375 1080.248,172.375 
			1061.565,191.059 1061.565,264.256 1042.756,283.065 1042.756,404.451 		"/>
		<polyline fill="none" stroke="#006D77" stroke-width="4" stroke-miterlimit="10" points="1100.629,136.086 1079.304,136.086 
			1047.074,168.316 1047.074,191.059 		"/>
		<polyline fill="none" stroke="#83C5BE" stroke-width="4" stroke-miterlimit="10" points="1093.458,158.616 1014.448,158.616 
			982.005,191.059 		"/>
		<polyline fill="none" stroke="#83C5BE" stroke-width="4" stroke-miterlimit="10" points="1100.629,167.922 1018.969,167.922 
			995.832,191.059 995.832,368.838 		"/>
		<polyline fill="none" stroke="#83C5BE" stroke-width="4" stroke-miterlimit="10" points="1098.924,180.092 1035.593,180.092 
			1024.626,191.059 1024.626,235.479 1009.661,250.445 		"/>
		<polyline fill="none" stroke="#006D77" stroke-width="4" stroke-miterlimit="10" points="908.227,148.612 924.522,164.908 
			960.592,164.908 1009.661,115.839 1089.563,115.839 		"/>
		<polyline fill="none" stroke="#83C5BE" stroke-width="4" stroke-miterlimit="10" points="911.65,191.048 948.3,191.059 
			948.3,191.059 994.198,145.16 1032.53,106.828 1096.498,106.828 		"/>
		<circle fill="#83C5BE" cx="909.998" cy="191.059" r="3.973"/>
		<circle fill="#006D77" cx="908.227" cy="148.613" r="3.973"/>
	</g>
</g>
<g id="Layer_3">
</g>
</svg>
