<?xml version="1.0" encoding="utf-8"?>
<!-- Generator: Adobe Illustrator 16.0.0, SVG Export Plug-In . SVG Version: 6.00 Build 0)  -->
<!DOCTYPE svg PUBLIC "-//W3C//DTD SVG 1.1//EN" "http://www.w3.org/Graphics/SVG/1.1/DTD/svg11.dtd">
<svg version="1.1" id="Layer_1" xmlns="http://www.w3.org/2000/svg" xmlns:xlink="http://www.w3.org/1999/xlink" x="0px" y="0px"
	 width="300px" height="560px" viewBox="0 0 300 560" enable-background="new 0 0 300 560" xml:space="preserve">
<g id="Layer_1_1_" display="none">
	<g id="Group_97" transform="translate(0 0)" display="inline">
		
			<linearGradient id="Path_52_1_" gradientUnits="userSpaceOnUse" x1="-489.9922" y1="1.4312" x2="-488.9089" y2="0.5398" gradientTransform="matrix(300 0 0 560 146989 -231)">
			<stop  offset="0" style="stop-color:#83C5BE"/>
			<stop  offset="1" style="stop-color:#006D77"/>
		</linearGradient>
		<path id="Path_52" fill="url(#Path_52_1_)" d="M0,502.667c0,0,24.05-17.961,52.333-14.667s69.889,46.746,125.444,39.059
			c55.555-7.687,85.857-27.449,97.979-76.861s29.146-229.687,7.071-325.021C254.25,1.75,238.5,52.5,177,27.25
			C146.5,7.5,60.606,0,60.606,0H300v560H0V502.667z"/>
		
			<linearGradient id="Path_55_1_" gradientUnits="userSpaceOnUse" x1="-487.623" y1="2.1162" x2="-486.5471" y2="2.7578" gradientTransform="matrix(102.0663 0 0 123.582 49996.1523 -231.0391)">
			<stop  offset="0.2258" style="stop-color:#F0EEF5;stop-opacity:0.259"/>
			<stop  offset="0.6452" style="stop-color:#F9F5FE;stop-opacity:0.0111"/>
			<stop  offset="1" style="stop-color:#FAF6FF;stop-opacity:0"/>
		</linearGradient>
		<path id="Path_55" fill="url(#Path_55_1_)" d="M290.75,120c-3.29-13.13-7.484-65.894-11.589-69.123
			c-0.207-1.757-0.826-3.442-1.808-4.915c-3.606-5.296-8.867-4.562-14.656-3.827c-5.877,0.746-12.297,1.49-18.086-4.064
			C233.25,27.17,243.087,18.635,236.75,0h22.4c1.289,3.489,3.084,6.769,5.326,9.735c5.564,7.156,9.56,5.81,13.207,4.462
			c3.526-1.303,6.729-2.605,10.707,3.788c8.094,13.002,12.142,28.065,8.463,43.759c-1.08,4.698-10.361,61.973-13.533,65.603
			C285.959,137.858,293.426,130.621,290.75,120z"/>
	</g>
</g>
<g id="Layer_3">
	
		<linearGradient id="SVGID_1_" gradientUnits="userSpaceOnUse" x1="-79.7148" y1="281.0635" x2="210" y2="281.0635" gradientTransform="matrix(1 0 0 -1 90 561)">
		<stop  offset="0.2" style="stop-color:#E29578"/>
		<stop  offset="1" style="stop-color:#FFDDD2"/>
	</linearGradient>
	
		<linearGradient id="SVGID_2_" gradientUnits="userSpaceOnUse" x1="-80.9219" y1="281.0635" x2="210.5" y2="281.0635" gradientTransform="matrix(1 0 0 -1 90 561)">
		<stop  offset="0" style="stop-color:#F0EEF5;stop-opacity:0.259"/>
		<stop  offset="0.4516" style="stop-color:#F9F5FE;stop-opacity:0.0111"/>
		<stop  offset="1" style="stop-color:#FAF6FF;stop-opacity:0"/>
	</linearGradient>
	<polygon fill="url(#SVGID_1_)" stroke="url(#SVGID_2_)" stroke-miterlimit="10" points="300,259.832 300,559.873 10.285,559.873 
		78.251,491.906 147.094,491.906 185.626,530.438 246.438,530.438 277.377,499.5 277.377,407.938 262.934,393.495 262.934,223.265 
		290.698,195.5 290.698,59.637 273.167,42.105 251.771,42.105 235.5,58.377 185.626,58.377 150,22.751 78.251,22.751 55.5,0 300,0 	
		"/>
</g>
<g id="Layer_4">
	
		<linearGradient id="SVGID_3_" gradientUnits="userSpaceOnUse" x1="35.125" y1="542.6621" x2="134.0625" y2="542.6621" gradientTransform="matrix(1 0 0 -1 90 561)">
		<stop  offset="0" style="stop-color:#EDF6F9"/>
		<stop  offset="1" style="stop-color:#FAF6FF;stop-opacity:0"/>
	</linearGradient>
	<polygon fill="url(#SVGID_3_)" points="153.781,12.588 177.5,36.307 224.063,36.307 209.375,21.619 185.625,21.619 164.375,0.369 
		137.734,0.369 125.125,12.588 	"/>
	
		<linearGradient id="SVGID_4_" gradientUnits="userSpaceOnUse" x1="246.793" y1="624.8047" x2="345.7305" y2="624.8047" gradientTransform="matrix(-4.371139e-008 1 1 4.371139e-008 -343.0684 227.7436)">
		<stop  offset="0" style="stop-color:#EDF6F9;stop-opacity:0"/>
		<stop  offset="1" style="stop-color:#EDF6F9"/>
	</linearGradient>
	<polygon fill="url(#SVGID_4_)" points="287.486,503.192 263.768,526.911 263.768,573.474 278.455,558.786 278.455,535.036 
		299.705,513.786 299.705,487.146 287.486,474.536 	"/>
	
		<linearGradient id="SVGID_5_" gradientUnits="userSpaceOnUse" x1="-11.5405" y1="645.8672" x2="87.3975" y2="645.8672" gradientTransform="matrix(-4.371139e-008 1 1 4.371139e-008 -343.0684 227.7436)">
		<stop  offset="0" style="stop-color:#EDF6F9;stop-opacity:0"/>
		<stop  offset="1" style="stop-color:#EDF6F9"/>
	</linearGradient>
	<polygon fill="url(#SVGID_5_)" points="308.549,244.859 284.83,268.578 284.83,315.141 299.518,300.453 299.518,276.703 
		320.768,255.453 320.768,228.812 308.549,216.203 	"/>
</g>
<g id="Layer_2" display="none">
	<polyline display="inline" fill="none" stroke="#E29578" stroke-miterlimit="10" points="205.705,48.781 226.175,48.781 
		236.925,35.763 299.705,35.763 	"/>
	<polyline display="inline" fill="none" stroke="#E29578" stroke-miterlimit="10" points="215.939,54.065 228.538,54.065 
		239.538,40.743 299.705,40.743 	"/>
	<polyline display="inline" fill="none" stroke="#E29578" stroke-miterlimit="10" points="209.705,9.39 256.593,9.39 
		268.314,23.586 299.705,23.586 	"/>
	<polyline display="inline" fill="none" stroke="#E29578" stroke-miterlimit="10" points="195.705,26.967 208.497,26.967 
		218.205,15.209 255.122,15.209 267.038,29.641 299.705,29.641 	"/>
	<polyline display="inline" fill="none" stroke="#E29578" stroke-miterlimit="10" points="243.122,60.625 247.205,55.68 
		266.538,55.68 274.538,45.991 299.705,45.991 	"/>
	<polyline display="inline" fill="none" stroke="#E29578" stroke-miterlimit="10" points="269.955,8.75 277.872,18.338 
		299.705,18.338 	"/>
	<circle display="inline" fill="#FFDDD2" stroke="#E29578" stroke-miterlimit="10" cx="205.705" cy="48.781" r="1.615"/>
	<circle display="inline" fill="#FFDDD2" stroke="#E29578" stroke-miterlimit="10" cx="215.941" cy="54.065" r="1.615"/>
	<circle display="inline" fill="#FFDDD2" stroke="#E29578" stroke-miterlimit="10" cx="243.122" cy="60.625" r="1.615"/>
	<circle display="inline" fill="#FFDDD2" stroke="#E29578" stroke-miterlimit="10" cx="195.705" cy="26.967" r="1.615"/>
	<circle display="inline" fill="#FFDDD2" stroke="#E29578" stroke-miterlimit="10" cx="269.955" cy="8.75" r="1.615"/>
	<circle display="inline" fill="#FFDDD2" stroke="#E29578" stroke-miterlimit="10" cx="209.705" cy="9.39" r="1.615"/>
</g>
<polyline fill="#FFFFFF" points="241,478 -13,478 -15.5,478 -15.5,578.924 197.951,578.924 246.438,530.438 "/>
<linearGradient id="SVGID_6_" gradientUnits="userSpaceOnUse" x1="245.9375" y1="504.2188" x2="246.9375" y2="504.2188">
	<stop  offset="0" style="stop-color:#F0EEF5;stop-opacity:0.259"/>
	<stop  offset="0.4516" style="stop-color:#F9F5FE;stop-opacity:0.0111"/>
	<stop  offset="1" style="stop-color:#FAF6FF;stop-opacity:0"/>
</linearGradient>
<line fill="none" stroke="url(#SVGID_6_)" stroke-miterlimit="10" x1="246.438" y1="530.438" x2="246.438" y2="478"/>
</svg>
