<?xml version="1.0" encoding="utf-8"?>
<!-- Generator: Adobe Illustrator 16.0.0, SVG Export Plug-In . SVG Version: 6.00 Build 0)  -->
<!DOCTYPE svg PUBLIC "-//W3C//DTD SVG 1.1//EN" "http://www.w3.org/Graphics/SVG/1.1/DTD/svg11.dtd">
<svg version="1.1" id="Layer_1" xmlns="http://www.w3.org/2000/svg" xmlns:xlink="http://www.w3.org/1999/xlink" x="0px" y="0px"
	 width="584.234px" height="568px" viewBox="0 -51.011 584.234 568" enable-background="new 0 -51.011 584.234 568"
	 xml:space="preserve">
<linearGradient id="SVGID_1_" gradientUnits="userSpaceOnUse" x1="-97.0737" y1="117.2739" x2="123.6523" y2="117.2739" gradientTransform="matrix(-4.371139e-008 1 -1 -4.371139e-008 361.165 55.3921)">
	<stop  offset="0" style="stop-color:#FFFFFF"/>
	<stop  offset="1" style="stop-color:#006D77"/>
</linearGradient>
<polygon opacity="0.2" fill="url(#SVGID_1_)" points="398.264,127.69 346.908,179.045 267.226,179.045 204.652,116.468 
	140.278,116.468 89.518,65.708 89.518,6.7 137.901,-41.681 271.402,-41.681 322.111,9.028 398.264,85.181 "/>
<linearGradient id="SVGID_2_" gradientUnits="userSpaceOnUse" x1="62.9302" y1="292.4922" x2="243.8911" y2="292.4922">
	<stop  offset="0" style="stop-color:#FFFFFF"/>
	<stop  offset="1" style="stop-color:#006D77"/>
</linearGradient>
<polygon opacity="0.5" fill="url(#SVGID_2_)" points="109.461,332.618 109.456,300.957 76.692,268.192 76.692,214.781 
	124.949,166.523 196.981,166.527 243.888,213.436 243.891,334.307 159.737,418.461 102.242,418.458 62.93,379.147 "/>
<g>
	<path fill="#016D77" d="M387.968,226.052c0,3.176-2.574,5.75-5.75,5.75h-15.5c-3.176,0-5.75-2.574-5.75-5.75l0,0
		c0-3.176,2.574-5.75,5.75-5.75h15.5C385.394,220.302,387.968,222.876,387.968,226.052L387.968,226.052z"/>
	<path fill="none" stroke="#83C5BE" stroke-width="2" stroke-miterlimit="10" d="M384.701,240.571c0,0-16.624-20.564,29.655,0
		c46.277,20.563,56.911,10.773,66.681,8.406c28.897-7.006,36.293-10.004,14.279-45.256"/>
	<path fill="#83C5BE" d="M568.696,203.147c0,8.094-7.651,14.654-17.089,14.654H352.239c-9.438,0-17.088-6.561-17.088-14.654v-86.691
		c0-8.094,7.649-14.654,17.088-14.654h199.368c9.438,0,17.089,6.561,17.089,14.654V203.147z"/>
	<path fill="#016D77" d="M564.468,207.147c0,8.094-7.65,14.654-17.088,14.654H348.012c-9.438,0-17.088-6.561-17.088-14.654v-86.691
		c0-8.094,7.65-14.654,17.088-14.654H547.38c9.438,0,17.088,6.561,17.088,14.654V207.147z"/>
	<path fill="#83C5BE" d="M454.923,181.581c0,5.092-3.669,9.221-8.194,9.221h-95.609c-4.526,0-8.195-4.129-8.195-9.221v-54.559
		c0-5.092,3.669-9.221,8.195-9.221h95.609c4.525,0,8.194,4.129,8.194,9.221V181.581z"/>
	<circle fill="#E39578" cx="470.867" cy="123.451" r="5.398"/>
	<circle fill="#83C5BE" cx="495.316" cy="140.722" r="6.473"/>
	<circle fill="#83C5BE" cx="518.941" cy="140.722" r="6.473"/>
	<path fill="none" stroke="#016D77" stroke-miterlimit="10" d="M433.053,257.349c0,0,11.26-8.682,27.915-0.834
		c5.851,2.756,14.158,0.834,20.857,2.952"/>
	<circle fill="#83C5BE" cx="495.316" cy="175.222" r="6.473"/>
	<circle fill="#83C5BE" cx="518.941" cy="175.222" r="6.473"/>
	<circle fill="#83C5BE" cx="542.51" cy="175.222" r="6.474"/>
	<circle fill="#FDDDD2" cx="470.867" cy="203.722" r="6.473"/>
	<circle fill="#FDDDD2" cx="495.316" cy="203.722" r="6.473"/>
	<circle fill="#FDDDD2" cx="518.941" cy="203.722" r="6.473"/>
	<circle fill="#FDDDD2" cx="542.51" cy="203.722" r="6.474"/>
	<path fill="#016D77" d="M538.915,226.052c0,3.176-2.574,5.75-5.75,5.75h-15.5c-3.176,0-5.75-2.574-5.75-5.75l0,0
		c0-3.176,2.574-5.75,5.75-5.75h15.5C536.34,220.302,538.915,222.876,538.915,226.052L538.915,226.052z"/>
	<polygon fill="#E39578" points="454.923,290.321 490.923,273.627 555.798,276.989 531.349,293.656 	"/>
	<path fill="none" stroke="#E39578" stroke-width="3" stroke-miterlimit="10" d="M352.112,165.199c0,0,6.812-34.058,11.92-32.015
		c5.108,2.044,8.174,49.662,14.645,49.044c6.472-0.619,7.493-26.225,12.261-27.928c4.769-1.702,5.048,13.964,6.781,21.797
		c1.733,7.834,6.501,5.79,7.184,0.341c0.681-5.449,6.812-56.536,10.558-49.384c0,0,2.725-2.043,3.747,12.602
		c1.021,14.645,3.879,21.797,6.027,25.202c2.146,3.406,5.894-1.361,8.276-8.173c2.384-6.813,7.419-13.624,12.226-11.58"/>
	<polyline fill="#E39578" points="454.923,290.321 454.923,286.612 531.349,289.946 555.798,273.278 555.798,276.989 	"/>
	<polygon fill="#FDDDD2" points="454.923,286.612 490.923,269.917 555.798,273.278 531.349,289.946 	"/>
	<path fill="#016D77" d="M486.464,261.655c-1.215-1.305-1.856-2.211-3.164-2.564c-1.305-0.354-2.336-0.824-2.336-0.824l1.031,0.471
		c0,0-1.519-0.076,0.505,2.212c2.021,2.286,8.112,10.768,8.112,10.768s2.389,2.646,4.103,2.563
		C496.429,274.194,486.464,261.655,486.464,261.655z"/>
	<path fill="none" stroke="#E39578" stroke-width="2" stroke-miterlimit="10" d="M482.259,281.088c0,0-5.266-28.364,0.963-25.459
		c6.229,2.904,11.764,24.129,8.613,28.013"/>
	<path fill="none" stroke="#83C5BE" stroke-width="2" stroke-miterlimit="10" d="M483.813,278.515c0,0,6.358-27.924,0.964-25.459
		c-5.396,2.465-11.485,23.25-9.128,27.342"/>
	<path fill="none" stroke="#FDDDD2" stroke-width="2" stroke-miterlimit="10" d="M487.939,280.862c0,0,1.071-23.014,5.659-23.506
		c4.587-0.494,4.072,21.908,3.998,23.871"/>
	<path fill="none" stroke="#83C5BE" stroke-width="2" stroke-miterlimit="10" d="M493.376,283.188c0,0,1.961-25.371,6.027-18.213
		c4.063,7.159,1.922,18.514,1.922,18.514"/>
	<path fill="none" stroke="#FDDDD2" stroke-width="2" stroke-miterlimit="10" d="M470.32,282.313c0,0,2.555-25.348,9.192-18.092
		c6.64,7.258,3.479,18.572,3.479,18.572"/>
	<path fill="none" stroke="#E39578" stroke-width="2" stroke-miterlimit="10" d="M508.886,277.499c0,0,1.961-25.371,6.027-18.212
		c4.063,7.157,1.922,18.513,1.922,18.513"/>
	<path fill="none" stroke="#E39578" stroke-width="2" stroke-miterlimit="10" d="M523.679,281.414c0,0,5.267-28.364-0.963-25.459
		c-6.229,2.903-11.763,24.129-8.612,28.013"/>
	<path fill="none" stroke="#83C5BE" stroke-width="2" stroke-miterlimit="10" d="M522.126,278.841c0,0-6.359-27.924-0.964-25.459
		c5.395,2.465,11.484,23.249,9.128,27.342"/>
	<path fill="none" stroke="#FDDDD2" stroke-width="2" stroke-miterlimit="10" d="M518,281.188c0,0-1.072-23.014-5.66-23.506
		c-4.587-0.494-4.072,21.908-3.998,23.87"/>
	<path fill="none" stroke="#E39578" stroke-width="2" stroke-miterlimit="10" d="M512.563,283.515c0,0-1.962-25.371-6.027-18.213
		c-4.064,7.159-1.922,18.514-1.922,18.514"/>
	<path fill="none" stroke="#FDDDD2" stroke-width="2" stroke-miterlimit="10" d="M538.838,282.313c0,0-2.555-25.348-9.193-18.092
		c-6.639,7.258-3.479,18.572-3.479,18.572"/>
	<path fill="none" stroke="#E39578" stroke-width="2" stroke-miterlimit="10" d="M507.087,277.499c0,0-1.961-25.371-6.027-18.212
		c-4.063,7.157-1.922,18.513-1.922,18.513"/>
	<path fill="#016D77" d="M493.146,291.188c-1.638,1.162-2.748,1.732-3.313,3.185s-1.229,2.56-1.229,2.56l0.664-1.107
		c0,0-0.272,1.753,2.581-0.155c2.854-1.907,13.266-7.341,13.266-7.341s3.307-2.264,3.424-4.277S493.146,291.188,493.146,291.188z"/>
	<g>
		<path fill="#016D77" d="M455.148,288.933c-0.187-1.632,0.985-3.104,2.616-3.289l25.947-2.957c1.633-0.187,3.104,0.984,3.291,2.617
			l0,0c0.187,1.631-0.986,3.104-2.617,3.289l-25.946,2.956C456.807,291.735,455.333,290.563,455.148,288.933L455.148,288.933z"/>
		<path fill="#016D77" d="M415.215,293.481c-0.186-1.631,0.986-3.104,2.617-3.289l22.975-2.618c1.633-0.187,3.104,0.985,3.29,2.616
			l0,0c0.187,1.631-0.985,3.104-2.616,3.291l-22.976,2.617C416.874,296.285,415.401,295.112,415.215,293.481L415.215,293.481z"/>
		<path fill="#016D77" d="M484.386,288.593c0,0,15.179-3.619,12.566-4.424s-13.24-1.482-13.24-1.482"/>
		
			<ellipse transform="matrix(0.1129 0.9936 -0.9936 0.1129 691.947 -197.1628)" fill="#016D77" cx="456.394" cy="288.94" rx="5.007" ry="1.937"/>
		
			<ellipse transform="matrix(0.1132 0.9936 -0.9936 0.1132 682.2783 -183.802)" fill="#016D77" cx="444.109" cy="290.326" rx="5.006" ry="1.937"/>
		<path fill="#016D77" d="M442.488,290.256c-0.158-1.384,0.836-2.632,2.219-2.79l8.858-1.009c1.383-0.157,2.632,0.835,2.788,2.219
			l0,0c0.158,1.384-0.834,2.634-2.219,2.789l-8.857,1.011C443.895,292.632,442.645,291.64,442.488,290.256L442.488,290.256z"/>
		<path fill="#016D77" d="M398.162,295.308c0.128,1.127,0.73,1.986,1.348,1.916l16.754-1.908c0.617-0.07,1.013-1.043,0.885-2.17l0,0
			c-0.13-1.131-0.733-1.989-1.35-1.92l-16.754,1.909C398.427,293.204,398.033,294.179,398.162,295.308L398.162,295.308z"/>
	</g>
	<path fill="none" stroke="#83C5BE" stroke-width="2" stroke-miterlimit="10" d="M470.867,203.722c0,0,18.756,37.729-15.738,32.571
		c-34.494-5.157-83.827-4.491-94.16,13.726c-9.829,17.328,13.388,40.129,37.193,45.289"/>
	<circle fill="#83C5BE" cx="470.866" cy="203.722" r="4.758"/>
	<circle fill="#83C5BE" cx="495.316" cy="203.963" r="4.758"/>
	<path fill="none" stroke="#016D77" stroke-miterlimit="10" d="M451.923,290.347c0,0-1.621,8.457,9.712,11.457
		s26.278-7.076,28.473-4.871"/>
	<g>
		<path fill="#016D77" d="M438.402,260.683c0.571-1.539,2.282-2.322,3.821-1.75l24.477,9.108c1.539,0.573,2.321,2.284,1.749,3.823
			l0,0c-0.572,1.537-2.283,2.32-3.822,1.749l-24.476-9.109C438.612,263.933,437.83,262.22,438.402,260.683L438.402,260.683z"/>
		<path fill="#016D77" d="M400.734,246.663c0.572-1.539,2.283-2.322,3.822-1.749l21.672,8.065c1.538,0.571,2.321,2.283,1.748,3.821
			l0,0c-0.571,1.538-2.283,2.322-3.822,1.749l-21.671-8.064C400.945,249.913,400.162,248.201,400.734,246.663L400.734,246.663z"/>
		<path fill="#016D77" d="M464.626,273.613c0,0,15.172,3.643,13.207,1.743c-1.964-1.899-11.134-7.315-11.134-7.315"/>
		
			<ellipse transform="matrix(-0.3489 0.9372 -0.9372 -0.3489 837.7239 -59.4317)" fill="#016D77" cx="439.507" cy="261.285" rx="5.007" ry="1.937"/>
		
			<ellipse transform="matrix(-0.349 0.9371 -0.9371 -0.349 818.0831 -54.3821)" fill="#016D77" cx="427.932" cy="256.977" rx="5.007" ry="1.937"/>
		<path fill="#016D77" d="M426.513,256.131c0.485-1.306,1.938-1.969,3.241-1.483l8.355,3.11c1.305,0.485,1.969,1.937,1.482,3.241
			l0,0c-0.485,1.305-1.938,1.969-3.242,1.482l-8.354-3.109C426.691,258.887,426.027,257.437,426.513,256.131L426.513,256.131z"/>
		<path fill="#016D77" d="M384.701,240.571c-0.396,1.063-0.247,2.103,0.335,2.318l15.804,5.881c0.582,0.217,1.374-0.472,1.771-1.535
			l0,0c0.396-1.064,0.247-2.104-0.334-2.32l-15.805-5.882C385.89,238.815,385.098,239.506,384.701,240.571L384.701,240.571z"/>
	</g>
	<path fill="none" stroke="#FDDDD2" stroke-width="3" stroke-miterlimit="10" d="M449.122,163.021c0,0-3.704-27.25-6.481-25.615
		c-2.777,1.635-4.443,39.735-7.963,39.24s-4.074-20.982-6.666-22.345c-2.593-1.363-2.745,11.172-3.688,17.439
		c-0.942,6.268-3.535,4.633-3.905,0.271c-0.371-4.359-3.704-45.234-5.741-39.513c0,0-1.48-1.634-2.037,10.083
		c-0.555,11.718-2.108,17.44-3.275,20.164c-1.168,2.726-3.206-1.088-4.501-6.538c-1.296-5.45-4.034-10.9-6.646-9.266"/>
	<path fill="none" stroke="#FDDDD2" stroke-width="3" stroke-miterlimit="10" d="M348.725,163.021c0,0,3.704-27.25,6.481-25.615
		c2.778,1.635,4.444,39.735,7.963,39.24c3.521-0.495,4.074-20.982,6.667-22.345c2.592-1.363,2.744,11.172,3.688,17.439
		c0.942,6.268,3.534,4.633,3.905,0.271c0.371-4.359,3.704-45.234,5.74-39.513c0,0,1.481-1.634,2.037,10.083
		c0.556,11.718,2.109,17.44,3.277,20.164c1.168,2.726,3.204-1.088,4.5-6.538c1.297-5.45,4.033-10.9,6.646-9.266"/>
</g>
<g>
	<path fill="#FDDDD2" d="M347.678,170.156c-4.733,16.104-2.504,16.138,1.287,13.576c4.4-2.97,3.932,0.616,2.188,4.476
		c-1.743,3.858,0.173,3.967-7.393,7.574c-7.564,3.606-7.152,7.784-11.747,2.423c-4.594-5.361-12.569,0.739-10.208-9.965
		c2.36-10.705,11.382-26.163,14.414-29.27c3.033-3.105,9.553-13.928,15.234-9.393C357.135,154.114,347.678,170.156,347.678,170.156z
		"/>
	<path fill="#016D77" d="M218.357,267.657c0,0,95.008,2.406,110.997-12.674c15.989-15.078,31.817-47.258,19.959-52.161
		c-11.857-4.9-22.267-22.276-28.339-19c-6.069,3.276-19.395,40.452-58.355,39.686C223.655,222.746,218.357,267.657,218.357,267.657z
		"/>
	<path fill="#FDDDD2" d="M317.684,166.269c0,25.731-16.519,46.591-36.896,46.591s-36.897-20.86-36.897-46.591
		c0-25.729,16.519-46.588,36.896-46.588S317.684,140.54,317.684,166.269z"/>
	<path fill="#FDDDD2" d="M414.241,306.604c-16.772-0.691-16.086-2.813-12.442-5.584c4.227-3.211,0.679-3.92-3.536-3.508
		c-4.215,0.411-3.7-1.438-9.547,4.566c-5.847,6.005-9.67,4.271-6.068,10.346c3.601,6.074-4.738,11.666,6.156,12.87
		c10.896,1.204,28.433-2.373,32.347-4.247c3.916-1.873,16.26-4.568,13.791-11.408C432.472,302.801,414.241,306.604,414.241,306.604z
		"/>
	<path fill="#E39578" d="M238.069,212.859c-7.356,8.235-6.668,11.943-10.668,18.943s-14.905,34.195-27.283,71.069
		c-11.855,35.317-6.778,88.526-7.278,91.526c-0.5,3.001,74.653-22.321,111.153-7.821s52,30.5,40,2.5s-67.577-50-57.039-94.5
		s9.539-40,10.539-44.5s-23.5-29-35-28.5"/>
	<path fill="#83C5BE" d="M235.259,94.115c-17.927,3.841-26.29,18.366-33.292,34.715c-8.677,20.257-14.478,49.772-1.67,74.377
		c11.785,22.64,112.345,33.644,100.03,3.738c-9.334-22.667-9.54-57.14,0.485-71.381c11.181-15.884-0.634-20.593-5.755-26.994
		c-5.122-6.403-7.3-10.614-23.946-14.455C254.465,90.272,235.259,94.115,235.259,94.115z"/>
	<path fill="#83C5BE" d="M217.305,99.179c0,0,50.25-5.038,36.962-37.197c-13.29-32.16-48.707-68.445-82.355-52.417
		c-33.646,16.028-14.712,53.854-49.933,68.54C86.757,92.788,15.917,130.867,36.962,138.99c0,0,38.439-6.196,56.77,7.162
		c18.332,13.358,22.842,16.64,55.565,1.825C182.02,133.167,193.811,125.852,217.305,99.179z"/>
	<path fill="#016D77" d="M231.894,86.2c-20.566,13.652-25.441,19.258-8.87,18.262c16.571-0.997,29.243-5.297,30.218-8.566
		c0.975-3.269,6.824-15.759,0-15.655S231.894,86.2,231.894,86.2z"/>
	<path fill="#83C5BE" d="M294.542,151.959c0,0-12.27,8.629,1.4,25.433c13.671,16.804,25.833,20.405,21.897,28.739
		c0,0,15.651-11.695-2.153-26.972C297.881,163.883,290.233,159.05,294.542,151.959z"/>
	<path fill="#016D77" d="M374.618,287.474c0,0,21.012,16.021,18.203,28.34c-2.811,12.316-28.287,36.597-66.757,28.769
		c-38.468-7.829-34.041,2.039-60.625-23.047c-26.586-25.085-27.673-32.941-35.528-38.739c-5.548-4.096,55.373-54.322,66.113-27.482
		c10.741,26.838,9.376,29.619,29.625,31.086C345.897,287.865,370.624,284.103,374.618,287.474z"/>
</g>
<linearGradient id="SVGID_3_" gradientUnits="userSpaceOnUse" x1="546.7822" y1="247.3311" x2="727.7432" y2="247.3311" gradientTransform="matrix(-4.371139e-008 1 -1 -4.371139e-008 503.835 -238.1187)">
	<stop  offset="0" style="stop-color:#FFFFFF"/>
	<stop  offset="1" style="stop-color:#006D77"/>
</linearGradient>
<polygon opacity="0.5" fill="url(#SVGID_3_)" points="216.377,355.195 248.039,355.19 280.803,322.427 334.215,322.427 
	382.473,370.684 382.469,442.715 335.561,489.623 214.689,489.625 130.535,405.471 130.538,347.977 169.849,308.664 "/>
<linearGradient id="SVGID_4_" gradientUnits="userSpaceOnUse" x1="127.6074" y1="271.6465" x2="239.5933" y2="271.6465" gradientTransform="matrix(-4.371139e-008 1 -1 -4.371139e-008 361.165 55.3921)">
	<stop  offset="0" style="stop-color:#FFFFFF"/>
	<stop  offset="1" style="stop-color:#006D77"/>
</linearGradient>
<polygon opacity="0.2" fill="url(#SVGID_4_)" points="167.839,268.931 141.784,294.985 101.357,294.985 69.61,263.236 
	36.95,263.236 11.197,237.484 11.197,207.546 35.744,183 103.476,183 129.203,208.728 167.839,247.363 "/>
</svg>
