<?xml version="1.0" encoding="utf-8"?>
<!-- Generator: Adobe Illustrator 16.0.0, SVG Export Plug-In . SVG Version: 6.00 Build 0)  -->
<!DOCTYPE svg PUBLIC "-//W3C//DTD SVG 1.1//EN" "http://www.w3.org/Graphics/SVG/1.1/DTD/svg11.dtd">
<svg version="1.1" id="Layer_1" xmlns="http://www.w3.org/2000/svg" xmlns:xlink="http://www.w3.org/1999/xlink" x="0px" y="0px"
	 width="630px" height="492px" viewBox="162 282.5 630 492" enable-background="new 162 282.5 630 492" xml:space="preserve">
<path fill="#016D77" d="M765,728c0,6.627-5.373,12-12,12H201c-6.627,0-12-5.373-12-12V326c0-6.627,5.373-12,12-12h552
	c6.627,0,12,5.373,12,12V728z"/>
<path fill="#EDF7F9" d="M344,711.413c0,6.399-4.714,11.587-10.529,11.587H218.529c-5.815,0-10.529-5.188-10.529-11.587V342.586
	c0-6.398,4.714-11.586,10.529-11.586h114.942c5.815,0,10.529,5.188,10.529,11.586V711.413z"/>
<path fill="#EDF7F9" d="M745.75,717.156c0,4.332-5.294,7.844-11.822,7.844H374.323c-6.53,0-11.823-3.512-11.823-7.844V699.51
	c0-4.332,5.293-7.844,11.823-7.844h359.604c6.528,0,11.822,3.512,11.822,7.844L745.75,717.156L745.75,717.156z"/>
<path fill="#E39578" d="M745.375,661.771c0,7.856-5.417,14.229-12.099,14.229H573.974c-6.682,0-12.099-6.37-12.099-14.229V524.229
	c0-7.856,5.417-14.229,12.099-14.229h159.305c6.682,0,12.099,6.37,12.099,14.229L745.375,661.771L745.375,661.771z"/>
<path fill="#83C5BE" d="M546.375,661.771c0,7.856-5.417,14.229-12.099,14.229H374.974c-6.682,0-12.099-6.37-12.099-14.229V524.229
	c0-7.856,5.417-14.229,12.099-14.229h159.305c6.682,0,12.099,6.37,12.099,14.229L546.375,661.771L546.375,661.771z"/>
<path fill="#FDDDD2" d="M745,485.771c0,7.856-5.417,14.229-12.099,14.229H573.599c-6.682,0-12.099-6.371-12.099-14.229V348.229
	c0-7.857,5.417-14.229,12.099-14.229h159.305c6.682,0,12.099,6.371,12.099,14.229L745,485.771L745,485.771z"/>
<path fill="#E39578" d="M546,484.271c0,7.856-5.417,14.229-12.099,14.229H374.599c-6.682,0-12.099-6.371-12.099-14.229V346.729
	c0-7.857,5.417-14.229,12.099-14.229h159.305c6.682,0,12.099,6.371,12.099,14.229L546,484.271L546,484.271z"/>
<g>
	<g transform="translate(0.000000,511.000000) scale(0.100000,-0.100000)">
		<path fill="#016D77" d="M5479.873-1877.676c-18.008-7.676-31.27-18.662-35.186-28.994c-0.879-2.324-1.016-3.623-0.977-9.209
			c0.049-12.1,2.979-25.498,8.887-40.488c8.057-20.381,19.922-38.75,37.09-57.461c30.615-33.32,71.748-55.283,107.061-57.051
			c6.611-0.371,9.688,0.234,14.854,2.93c8.604,4.473,19.219,18.662,25.586,34.209c1.865,4.463,2.002,5.391,1.025,7.256
			c-0.791,1.533-43.73,32.061-46.387,32.988c-1.904,0.605-4.053,0.42-6.104-0.605c-0.693-0.371-4.512-4.648-8.516-9.492
			c-8.135-9.912-9.258-10.801-13.77-10.84c-2.461,0-3.164,0.225-8.887,3.398c-25.771,14.102-36.992,25.313-51.094,51.094
			c-3.164,5.762-3.398,6.416-3.398,8.926c0.049,4.473,1.074,5.771,10.85,13.779c4.746,3.857,8.975,7.725,9.492,8.516
			c0.977,1.719,1.123,5.391,0.273,7.07c-0.322,0.605-7.539,10.928-16.006,22.9c-9.912,14.092-15.82,22.051-16.66,22.471
			C5486.103-1875.303,5485.029-1875.488,5479.873-1877.676z"/>
	</g>
</g>
<g>
	<path fill="#83C5BE" d="M597.537,707.903c2.729,0,4.962-2.234,4.962-4.962c0-2.729-2.232-4.962-4.962-4.962
		c-2.73,0-4.963,2.231-4.963,4.962C592.574,705.669,594.809,707.903,597.537,707.903L597.537,707.903z M597.537,710.385
		c-3.353,0-9.925,1.612-9.925,4.963v2.48h19.849v-2.48C607.461,711.997,600.887,710.385,597.537,710.385L597.537,710.385z"/>
</g>
<g>
	<g transform="translate(0.000000,512.000000) scale(0.100000,-0.100000)">
		<path fill="#E39578" d="M5087.861-1847.119c-8.584-1.631-15.889-5.547-22.217-11.836c-4.619-4.619-7.832-9.59-9.854-15.088
			c-2.637-7.393-2.686-8.096-2.549-44.648c0.127-32.373,0.176-33.203,1.094-36.465c4.492-15.879,15.977-27.139,31.631-31.055
			c4.18-1.055,14.648-1.055,18.828,0c8.008,2.021,14.424,5.635,20.322,11.484c4.355,4.395,7.305,8.799,9.365,13.945
			c3.037,7.559,2.9,5.762,2.9,43.936c0,31.543-0.088,34.795-0.791,37.568c-4.043,15.791-15.566,27.49-31.055,31.533
			C5101.093-1846.553,5092.431-1846.24,5087.861-1847.119z"/>
		<path fill="#E39578" d="M5015.107-1931.533c-1.631-0.742-3.086-2.285-3.701-3.916c-0.264-0.703-0.479-4.004-0.479-7.344
			c0-14.824,2.549-26.572,8.398-38.711c3.037-6.289,4.229-8.311,8.447-14.033c11.787-16.055,30.488-28.105,49.658-32.021
			l3.828-0.742l0.137-19.443c0.127-18.877,0.176-19.492,1.055-20.674c2.246-2.988,2.334-3.037,12.93-3.037
			c10.605,0,10.693,0.049,12.93,3.037c0.879,1.182,0.928,1.797,1.064,20.674l0.127,19.443l3.828,0.742
			c19.131,3.916,37.832,15.967,49.658,32.07c11.748,15.879,17.236,33.555,16.758,53.877c-0.127,6.777-0.391,7.48-3.164,9.551
			c-1.143,0.879-1.807,0.918-10.82,0.918s-9.678-0.039-10.82-0.918c-2.9-2.158-2.988-2.559-3.34-11.973
			c-0.313-9.365-0.928-13.281-3.086-19.434c-4.844-13.682-15.264-25.469-28.281-32.021c-7.881-3.965-15.088-5.547-24.854-5.547
			c-8.047,0-11.924,0.615-18.477,2.9c-13.682,4.844-25.469,15.264-32.021,28.291c-3.867,7.744-5.361,14.424-5.723,25.82
			c-0.352,9.414-0.439,9.805-3.34,11.963c-1.094,0.84-1.895,0.928-10.293,1.016
			C5018.583-1930.957,5016.113-1931.045,5015.107-1931.533z"/>
	</g>
</g>
<line fill="none" stroke="#FFFFFF" stroke-width="4" stroke-miterlimit="10" x1="498.75" y1="717.828" x2="520.253" y2="696.324"/>
<line fill="none" stroke="#E39578" stroke-width="2" stroke-miterlimit="10" x1="498.783" y1="717.828" x2="520.286" y2="696.324"/>
<g>
	<path fill="#83C5BE" d="M228.537,359.077c2.729,0,4.962-2.234,4.962-4.962c0-2.729-2.232-4.963-4.962-4.963
		s-4.963,2.233-4.963,4.963C223.574,356.843,225.809,359.077,228.537,359.077L228.537,359.077z M228.537,361.559
		c-3.351,0-9.925,1.612-9.925,4.963v2.48h19.849v-2.48C238.461,363.171,231.887,361.559,228.537,361.559L228.537,361.559z"/>
</g>
<g>
	<path fill="#E39578" d="M228.537,411.807c2.729,0,4.962-2.233,4.962-4.963c0-2.729-2.232-4.962-4.962-4.962
		s-4.963,2.233-4.963,4.962C223.574,409.57,225.809,411.807,228.537,411.807L228.537,411.807z M228.537,414.287
		c-3.351,0-9.925,1.611-9.925,4.963v2.48h19.849v-2.48C238.461,415.9,231.887,414.287,228.537,414.287L228.537,414.287z"/>
</g>
<g>
	<path fill="#016D77" d="M228.741,467.604c2.729,0,4.962-2.233,4.962-4.963c0-2.729-2.232-4.961-4.962-4.961
		c-2.73,0-4.963,2.232-4.963,4.961C223.778,465.37,226.013,467.604,228.741,467.604L228.741,467.604z M228.741,470.085
		c-3.351,0-9.925,1.612-9.925,4.963v2.479h19.849v-2.479C238.665,471.697,232.091,470.085,228.741,470.085L228.741,470.085z"/>
</g>
<g>
	<path fill="#FDDDD2" d="M228.741,520.332c2.729,0,4.962-2.234,4.962-4.963c0-2.729-2.232-4.961-4.962-4.961
		c-2.73,0-4.963,2.231-4.963,4.961C223.778,518.097,226.013,520.332,228.741,520.332L228.741,520.332z M228.741,522.813
		c-3.351,0-9.925,1.613-9.925,4.965v2.479h19.849v-2.479C238.665,524.426,232.091,522.813,228.741,522.813L228.741,522.813z"/>
</g>
<line fill="none" stroke="#83C5BE" stroke-width="7" stroke-miterlimit="10" x1="250.333" y1="359.078" x2="320.333" y2="359.078"/>
<line fill="none" stroke="#E39578" stroke-width="7" stroke-miterlimit="10" x1="250.333" y1="411.807" x2="320.333" y2="411.807"/>
<line fill="none" stroke="#016D77" stroke-width="7" stroke-miterlimit="10" x1="250.333" y1="467.604" x2="320.333" y2="467.604"/>
<line fill="none" stroke="#FDDDD2" stroke-width="7" stroke-miterlimit="10" x1="250.333" y1="520.332" x2="320.333" y2="520.332"/>
<path fill="#83C5BE" stroke="#016D77" stroke-width="3" stroke-miterlimit="10" d="M446.296,585.146c0,6.628-5.373,12-12,12h-45
	c-6.627,0-12-5.372-12-12v-45c0-6.628,5.373-12,12-12h45c6.627,0,12,5.372,12,12V585.146z"/>
<g>
	<path fill="#83C5BE" d="M653.629,617.653c15.128,0,27.503-12.387,27.503-27.503c0-15.124-12.375-27.504-27.503-27.504
		c-15.135,0-27.51,12.38-27.51,27.504C626.119,605.269,638.504,617.653,653.629,617.653L653.629,617.653z M653.629,631.409
		c-18.572,0-55.014,8.937-55.014,27.509v13.749h110.021v-13.749C708.636,640.346,672.194,631.409,653.629,631.409L653.629,631.409z"
		/>
</g>
<path fill="#016D77" d="M628.479,603.025c0,2.651-2.688,4.805-6.008,4.805l0,0c-3.314,0-6.006-2.151-6.006-4.805v-21.221
	c0-2.651,2.689-4.805,6.006-4.805l0,0c3.317,0,6.008,2.151,6.008,4.805V603.025z"/>
<path fill="#016D77" d="M689.263,603.609c0,2.651-2.688,4.805-6.007,4.805l0,0c-3.314,0-6.006-2.151-6.006-4.805v-21.221
	c0-2.651,2.689-4.805,6.006-4.805l0,0c3.317,0,6.007,2.151,6.007,4.805V603.609z"/>
<path fill="none" stroke="#016D77" stroke-width="7" stroke-miterlimit="10" d="M625.251,583.619c0,0,7.121-20.549,27.158-21
	s28.841,21.854,28.841,21.854"/>
<path fill="#E39578" d="M495.638,603.609c0,2.651-2.688,4.805-6.007,4.805l0,0c-3.314,0-6.006-2.151-6.006-4.805v-21.221
	c0-2.651,2.689-4.805,6.006-4.805l0,0c3.317,0,6.007,2.151,6.007,4.805V603.609z"/>
<g>
	<path fill="#FDDDD2" d="M460.004,617.653c15.128,0,27.503-12.387,27.503-27.503c0-15.124-12.375-27.504-27.503-27.504
		c-15.135,0-27.51,12.38-27.51,27.504C432.494,605.269,444.879,617.653,460.004,617.653L460.004,617.653z M460.004,631.409
		c-18.572,0-55.014,8.937-55.014,27.509v13.749h110.021v-13.749C515.011,640.346,478.569,631.409,460.004,631.409L460.004,631.409z"
		/>
</g>
<path fill="#FDDDD2" d="M454.582,616.252c0,0,1.475,13.314-6.781,18.679c-8.256,5.363,20.029,1.027,22.317,3.78
	c2.289,2.755-6.029-13.189-1.624-22.926"/>
<path fill="#016D77" d="M451.25,552.988c-12.925,1.943-21.218,15.875-22.404,21.262c-1.186,5.387-10.513,44.415,2.154,49.749
	s15.296,0,18.333-4.333s-12.45-1.669-12.583-16.166s4.25-24.501,6.917-33.501s17,2.421,23,3.544s4.916,14.79,8.583,15.457
	s6.767,3.805,4,18.83S475.666,618.667,477,621s1.839,4.463,12.631,3.5c19.619-1.75,9.619-48.956-1.381-60.5
	s-17.793-9.333-25.188-10.667C455.667,551.999,453.826,552.601,451.25,552.988z"/>
<path fill="#E39578" d="M501.645,606.025c0,2.651-2.688,4.805-6.008,4.805l0,0c-3.314,0-6.006-2.151-6.006-4.805v-21.221
	c0-2.651,2.689-4.805,6.006-4.805l0,0c3.317,0,6.008,2.151,6.008,4.805V606.025z"/>
<path fill="none" stroke="#E39578" stroke-width="7" stroke-miterlimit="10" d="M428.501,581.254c0,0,8.538-27.322,32.56-27.921
	c24.022-0.601,34.577,29.058,34.577,29.058"/>
<path fill="#E39578" d="M431.854,603.025c0,2.651-2.688,4.805-6.008,4.805l0,0c-3.314,0-6.006-2.151-6.006-4.805v-21.221
	c0-2.651,2.689-4.805,6.006-4.805l0,0c3.317,0,6.008,2.151,6.008,4.805V603.025z"/>
<path fill="#83C5BE" d="M466.441,436.752c0,0-1.477,13.314,6.779,18.68c8.258,5.362-20.028,1.026-22.316,3.779
	c-2.289,2.755,6.027-13.191,1.624-22.926"/>
<polygon fill="#FDDDD2" points="724.886,552.283 719.688,557.479 719.688,568.235 710.922,577.002 695.08,577.002 683.257,565.179 
	683.257,549.779 703.097,529.94 730.723,529.94 740.16,539.377 740.16,552.283 "/>
<path fill="#83C5BE" d="M647.697,615.081c0,0,1.475,13.313-6.781,18.679c-8.256,5.363,20.029,1.027,22.317,3.78
	c2.289,2.755-6.029-13.191-1.624-22.926"/>
<line fill="none" stroke="#016D77" stroke-width="5" stroke-miterlimit="10" x1="379.535" y1="393" x2="450.498" y2="393"/>
<line fill="none" stroke="#016D77" stroke-width="5" stroke-miterlimit="10" x1="379.535" y1="428.609" x2="450.498" y2="428.609"/>
<g>
	<path fill="#83C5BE" d="M460.004,440.652c15.128,0,27.503-12.386,27.503-27.502c0-15.125-12.375-27.504-27.503-27.504
		c-15.135,0-27.51,12.379-27.51,27.504C432.494,428.27,444.879,440.652,460.004,440.652L460.004,440.652z M460.004,454.409
		c-18.572,0-55.014,8.937-55.014,27.509v13.749h110.021v-13.749C515.011,463.346,478.569,454.409,460.004,454.409L460.004,454.409z"
		/>
</g>
<path fill="#FDDDD2" stroke="#E39578" stroke-width="3" stroke-miterlimit="10" d="M727.313,403.825c0,6.627-5.37,12-12,12h-45
	c-6.628,0-12-5.373-12-12v-45c0-6.627,5.372-12,12-12h45c6.63,0,12,5.373,12,12V403.825z"/>
<path fill="#FDDDD2" d="M441.625,408.25c5,2.25,3.201,17.436-3.375,19.75c-13.5,4.75-4.936-19.504-6.375-29.25
	c-1.935-13.104-2.378-9.105-0.75-11.25c3.104-4.089,3.25-5,10-6s13.5-4,19.75-2.25s17,0.75,20.5,2s7.125,0,8.25,7.25
	c0.982,6.332,0.287,7,0.287,11.5s-1.278,9.506-1.412,15.5s-2.194,5.438-2.444,6.438s0.819-8.688-2.431-14.438s-2.25,2.5-12,2.5
	s-13-9-18-10.5S446.125,402.75,441.625,408.25S438.541,406.861,441.625,408.25z"/>
<path fill="#FDDDD2" stroke="#E39578" stroke-width="3" stroke-miterlimit="10" d="M645.998,436.146c0,6.627-5.372,12-12,12h-45
	c-6.628,0-12-5.373-12-12v-45c0-6.627,5.372-12,12-12h45c6.628,0,12,5.373,12,12V436.146z"/>
<g>
	<path fill="#016D77" d="M656.701,441.35c15.128,0,27.503-12.385,27.503-27.502c0-15.125-12.375-27.505-27.503-27.505
		c-15.135,0-27.51,12.38-27.51,27.505C629.191,428.965,641.576,441.35,656.701,441.35L656.701,441.35z M656.701,455.105
		c-18.572,0-55.014,8.938-55.014,27.51v13.748h110.021v-13.748C711.708,464.042,675.267,455.105,656.701,455.105L656.701,455.105z"
		/>
</g>
<path fill="#016D77" d="M651.279,439.948c0,0,1.475,13.313-6.781,18.679c-8.256,5.363,20.029,1.027,22.317,3.78
	c2.288,2.755-6.029-13.191-1.624-22.927"/>
<path fill="#83C5BE" d="M647.947,376.686c-12.925,1.944-22.472,14.619-25.404,21.064c-2.285,5.021-10.775,35.859-11.043,53.352
	c-0.063,4.099,1.167,26.938,8.966,35.159c3.784,3.989,15.859,3.826,18.284,0.239c12-17.75,4.54-24.031,10.75-47.02
	c1.38-5.107-10.75,0.174-16.053-12.285c-5.678-13.34,1.05-26.172,6.916-33.5c5.887-7.354,15.675-6.818,21.675-5.695
	s10.712,8,12.712,11c2.067,3.102,12.667,22.434,1.197,32.525C659.5,446,659.401,487.751,662.038,488.271
	c31.681,6.25,24.17-21.56,34.962-22.521c19.619-1.75-1.053-66.51-12.053-78.055c-11-11.543-17.793-9.332-25.188-10.666
	C652.364,375.695,650.523,376.297,647.947,376.686z"/>
<path fill="#E39578" d="M628.55,426.723c0,2.652-2.688,4.806-6.007,4.806l0,0c-3.316,0-6.006-2.151-6.006-4.806v-21.22
	c0-2.653,2.688-4.805,6.006-4.805l0,0c3.317,0,6.007,2.15,6.007,4.805V426.723z"/>
<path fill="none" stroke="#E39578" stroke-width="3" stroke-miterlimit="10" d="M654.66,439.293
	c-11.903,2.223-33.869-5.876-26.919-21.553"/>
<line fill="none" stroke="#016D77" stroke-width="5" stroke-miterlimit="10" x1="387.5" y1="405.667" x2="387.5" y2="425.334"/>
<line fill="none" stroke="#83C5BE" stroke-width="5" stroke-miterlimit="10" x1="393.667" y1="405.667" x2="393.667" y2="425.334"/>
<line fill="none" stroke="#FDDDD2" stroke-width="5" stroke-miterlimit="10" x1="399.667" y1="405.667" x2="399.667" y2="425.334"/>
<line fill="none" stroke="#016D77" stroke-width="5" stroke-miterlimit="10" x1="393.583" y1="370.254" x2="393.583" y2="389.921"/>
<line fill="none" stroke="#83C5BE" stroke-width="5" stroke-miterlimit="10" x1="399.75" y1="370.254" x2="399.75" y2="389.921"/>
<line fill="none" stroke="#016D77" stroke-width="5" stroke-miterlimit="10" x1="405.75" y1="370.254" x2="405.75" y2="389.921"/>
</svg>
