<?xml version="1.0" encoding="utf-8"?>
<!-- Generator: Adobe Illustrator 16.0.0, SVG Export Plug-In . SVG Version: 6.00 Build 0)  -->
<!DOCTYPE svg PUBLIC "-//W3C//DTD SVG 1.1//EN" "http://www.w3.org/Graphics/SVG/1.1/DTD/svg11.dtd">
<svg version="1.1" id="Layer_1" xmlns="http://www.w3.org/2000/svg" xmlns:xlink="http://www.w3.org/1999/xlink" x="0px" y="0px"
	 width="792px" height="792px" viewBox="0 0 792 792" enable-background="new 0 0 792 792" xml:space="preserve">
<path fill="#016D77" d="M701,614c0,6.627-5.373,12-12,12H137c-6.627,0-12-5.373-12-12V212c0-6.627,5.373-12,12-12h552
	c6.627,0,12,5.373,12,12V614z"/>
<path fill="#EDF7F9" d="M280,597.413c0,6.399-4.714,11.587-10.529,11.587H154.529c-5.815,0-10.529-5.188-10.529-11.587V228.586
	c0-6.398,4.714-11.586,10.529-11.586h114.942c5.815,0,10.529,5.188,10.529,11.586V597.413z"/>
<path fill="#EDF7F9" d="M681.75,603.156c0,4.332-5.294,7.844-11.822,7.844H310.323c-6.53,0-11.823-3.512-11.823-7.844v-17.645
	c0-4.332,5.293-7.844,11.823-7.844h359.605c6.528,0,11.822,3.512,11.822,7.844V603.156z"/>
<path fill="#E39578" d="M681.375,547.771c0,7.858-5.417,14.229-12.099,14.229H509.974c-6.682,0-12.099-6.37-12.099-14.229V410.229
	c0-7.858,5.417-14.229,12.099-14.229h159.303c6.682,0,12.099,6.37,12.099,14.229V547.771z"/>
<path fill="#83C5BE" d="M482.375,547.771c0,7.858-5.417,14.229-12.099,14.229H310.974c-6.682,0-12.099-6.37-12.099-14.229V410.229
	c0-7.858,5.417-14.229,12.099-14.229h159.303c6.682,0,12.099,6.37,12.099,14.229V547.771z"/>
<path fill="#FDDDD2" d="M681,371.772c0,7.857-5.417,14.228-12.099,14.228H509.599c-6.682,0-12.099-6.371-12.099-14.228V234.228
	c0-7.857,5.417-14.228,12.099-14.228h159.303c6.682,0,12.099,6.371,12.099,14.228V371.772z"/>
<path fill="#E39578" d="M482,370.272c0,7.857-5.417,14.228-12.099,14.228H310.599c-6.682,0-12.099-6.371-12.099-14.228V232.728
	c0-7.857,5.417-14.228,12.099-14.228h159.303c6.682,0,12.099,6.371,12.099,14.228V370.272z"/>
<g>
	<g transform="translate(0.000000,511.000000) scale(0.100000,-0.100000)">
		<path fill="#016D77" d="M4839.873-737.676c-18.008-7.676-31.27-18.662-35.186-28.994c-0.879-2.324-1.016-3.623-0.977-9.209
			c0.049-12.1,2.979-25.498,8.887-40.488c8.057-20.381,19.922-38.75,37.09-57.461c30.615-33.32,71.748-55.283,107.061-57.051
			c6.611-0.371,9.688,0.234,14.854,2.93c8.604,4.473,19.219,18.662,25.586,34.209c1.865,4.463,2.002,5.391,1.025,7.256
			c-0.791,1.533-43.73,32.061-46.387,32.988c-1.904,0.605-4.053,0.42-6.104-0.605c-0.693-0.371-4.512-4.648-8.516-9.492
			c-8.135-9.912-9.258-10.801-13.77-10.84c-2.461,0-3.164,0.225-8.887,3.398c-25.771,14.102-36.992,25.313-51.094,51.094
			c-3.164,5.762-3.398,6.416-3.398,8.926c0.049,4.473,1.074,5.771,10.85,13.779c4.746,3.857,8.975,7.725,9.492,8.516
			c0.977,1.719,1.123,5.391,0.273,7.07c-0.322,0.605-7.539,10.928-16.006,22.9c-9.912,14.092-15.82,22.051-16.66,22.471
			C4846.103-735.303,4845.029-735.488,4839.873-737.676z"/>
	</g>
</g>
<g>
	<path fill="#83C5BE" d="M533.537,593.903c2.729,0,4.962-2.234,4.962-4.962c0-2.729-2.232-4.962-4.962-4.962
		c-2.73,0-4.963,2.233-4.963,4.962C528.574,591.669,530.809,593.903,533.537,593.903L533.537,593.903z M533.537,596.385
		c-3.351,0-9.925,1.612-9.925,4.963v2.48h19.849v-2.48C543.461,597.997,536.887,596.385,533.537,596.385L533.537,596.385z"/>
</g>
<g>
	<g transform="translate(0.000000,512.000000) scale(0.100000,-0.100000)">
		<path fill="#E39578" d="M4447.861-707.12c-8.584-1.631-15.889-5.547-22.217-11.836c-4.619-4.619-7.832-9.59-9.854-15.088
			c-2.637-7.393-2.686-8.096-2.549-44.648c0.127-32.373,0.176-33.203,1.094-36.465c4.492-15.879,15.977-27.139,31.631-31.055
			c4.18-1.055,14.648-1.055,18.828,0c8.008,2.021,14.424,5.635,20.322,11.484c4.355,4.395,7.305,8.799,9.365,13.945
			c3.037,7.559,2.9,5.762,2.9,43.936c0,31.543-0.088,34.795-0.791,37.568c-4.043,15.791-15.566,27.49-31.055,31.533
			C4461.093-706.553,4452.431-706.241,4447.861-707.12z"/>
		<path fill="#E39578" d="M4375.107-791.534c-1.631-0.742-3.086-2.285-3.701-3.916c-0.264-0.703-0.479-4.004-0.479-7.344
			c0-14.824,2.549-26.572,8.398-38.711c3.037-6.289,4.229-8.311,8.447-14.033c11.787-16.055,30.488-28.105,49.658-32.021
			l3.828-0.742l0.137-19.443c0.127-18.877,0.176-19.492,1.055-20.674c2.246-2.988,2.334-3.037,12.93-3.037
			c10.605,0,10.693,0.049,12.93,3.037c0.879,1.182,0.928,1.797,1.064,20.674l0.127,19.443l3.828,0.742
			c19.131,3.916,37.832,15.967,49.658,32.07c11.748,15.879,17.236,33.555,16.758,53.877c-0.127,6.777-0.391,7.48-3.164,9.551
			c-1.143,0.879-1.807,0.918-10.82,0.918s-9.678-0.039-10.82-0.918c-2.9-2.158-2.988-2.559-3.34-11.973
			c-0.313-9.365-0.928-13.281-3.086-19.434c-4.844-13.682-15.264-25.469-28.281-32.021c-7.881-3.965-15.088-5.547-24.854-5.547
			c-8.047,0-11.924,0.615-18.477,2.9c-13.682,4.844-25.469,15.264-32.021,28.291c-3.867,7.744-5.361,14.424-5.723,25.82
			c-0.352,9.414-0.439,9.805-3.34,11.963c-1.094,0.84-1.895,0.928-10.293,1.016C4378.583-790.958,4376.113-791.045,4375.107-791.534
			z"/>
	</g>
</g>
<line fill="#E39578" stroke="#FFFFFF" stroke-width="4" stroke-miterlimit="10" x1="434.75" y1="603.828" x2="456.253" y2="582.324"/>
<line fill="#FFFFFF" stroke="#E39578" stroke-width="2" stroke-miterlimit="10" x1="434.783" y1="603.828" x2="456.286" y2="582.324"/>
<g>
	<path fill="#83C5BE" d="M164.537,245.077c2.729,0,4.962-2.234,4.962-4.962c0-2.729-2.232-4.962-4.962-4.962
		c-2.73,0-4.963,2.233-4.963,4.962C159.574,242.843,161.809,245.077,164.537,245.077L164.537,245.077z M164.537,247.559
		c-3.351,0-9.925,1.612-9.925,4.963v2.48h19.849v-2.48C174.461,249.171,167.887,247.559,164.537,247.559L164.537,247.559z"/>
</g>
<g>
	<path fill="#E39578" d="M164.537,297.806c2.729,0,4.962-2.234,4.962-4.962c0-2.729-2.232-4.962-4.962-4.962
		c-2.73,0-4.963,2.233-4.963,4.962C159.574,295.571,161.809,297.806,164.537,297.806L164.537,297.806z M164.537,300.287
		c-3.351,0-9.925,1.612-9.925,4.963v2.48h19.849v-2.48C174.461,301.9,167.887,300.287,164.537,300.287L164.537,300.287z"/>
</g>
<g>
	<path fill="#016D77" d="M164.741,353.603c2.729,0,4.962-2.234,4.962-4.962c0-2.729-2.232-4.962-4.962-4.962
		c-2.73,0-4.963,2.233-4.963,4.962C159.778,351.369,162.013,353.603,164.741,353.603L164.741,353.603z M164.741,356.085
		c-3.351,0-9.925,1.612-9.925,4.963v2.48h19.849v-2.48C174.665,357.697,168.091,356.085,164.741,356.085L164.741,356.085z"/>
</g>
<g>
	<path fill="#FDDDD2" d="M164.741,406.332c2.729,0,4.962-2.234,4.962-4.963s-2.232-4.961-4.962-4.961
		c-2.73,0-4.963,2.233-4.963,4.961S162.013,406.332,164.741,406.332L164.741,406.332z M164.741,408.813
		c-3.351,0-9.925,1.613-9.925,4.963v2.48h19.849v-2.48C174.665,410.426,168.091,408.813,164.741,408.813L164.741,408.813z"/>
</g>
<line fill="none" stroke="#83C5BE" stroke-width="7" stroke-miterlimit="10" x1="186.333" y1="245.078" x2="256.333" y2="245.078"/>
<line fill="none" stroke="#E39578" stroke-width="7" stroke-miterlimit="10" x1="186.333" y1="297.806" x2="256.333" y2="297.806"/>
<line fill="none" stroke="#016D77" stroke-width="7" stroke-miterlimit="10" x1="186.333" y1="353.604" x2="256.333" y2="353.604"/>
<line fill="none" stroke="#FDDDD2" stroke-width="7" stroke-miterlimit="10" x1="186.333" y1="406.332" x2="256.333" y2="406.332"/>
<polyline fill="#FDDDD2" points="576.419,400.522 564.692,412.248 564.692,456.607 570.743,462.658 571.383,462.658 
	576.368,462.658 581.388,457.638 589.781,457.638 598.038,465.895 598.038,490.941 598.038,513.758 589.553,522.242 
	566.568,522.242 548.83,504.504 548.83,465.895 540.802,457.866 523.335,457.866 506.892,441.422 506.892,406.488 513.035,400.344 
	"/>
<path fill="#83C5BE" stroke="#016D77" stroke-width="3" stroke-miterlimit="10" d="M382.296,471.147c0,6.627-5.373,12-12,12h-45
	c-6.627,0-12-5.373-12-12v-45c0-6.627,5.373-12,12-12h45c6.627,0,12,5.373,12,12V471.147z"/>
<g>
	<path fill="#83C5BE" d="M589.629,503.653c15.128,0,27.503-12.385,27.503-27.503c0-15.124-12.375-27.504-27.503-27.504
		c-15.135,0-27.51,12.38-27.51,27.504C562.119,491.269,574.504,503.653,589.629,503.653L589.629,503.653z M589.629,517.409
		c-18.572,0-55.014,8.937-55.014,27.509v13.749h110.021v-13.749C644.636,526.346,608.194,517.409,589.629,517.409L589.629,517.409z"
		/>
</g>
<path fill="#016D77" d="M564.478,489.025c0,2.653-2.689,4.805-6.007,4.805l0,0c-3.316,0-6.006-2.151-6.006-4.805v-21.219
	c0-2.653,2.689-4.805,6.006-4.805l0,0c3.317,0,6.007,2.151,6.007,4.805V489.025z"/>
<path fill="#016D77" d="M625.263,489.609c0,2.653-2.689,4.805-6.007,4.805l0,0c-3.316,0-6.006-2.151-6.006-4.805v-21.219
	c0-2.653,2.689-4.805,6.006-4.805l0,0c3.317,0,6.007,2.151,6.007,4.805V489.609z"/>
<path fill="none" stroke="#016D77" stroke-width="7" stroke-miterlimit="10" d="M561.251,469.619c0,0,7.121-20.549,27.158-21
	s28.841,21.854,28.841,21.854"/>
<path fill="#E39578" d="M431.638,489.609c0,2.653-2.689,4.805-6.007,4.805l0,0c-3.316,0-6.006-2.151-6.006-4.805v-21.219
	c0-2.653,2.689-4.805,6.006-4.805l0,0c3.317,0,6.007,2.151,6.007,4.805V489.609z"/>
<g>
	<path fill="#FDDDD2" d="M396.004,503.653c15.128,0,27.503-12.385,27.503-27.503c0-15.124-12.375-27.504-27.503-27.504
		c-15.135,0-27.51,12.38-27.51,27.504C368.494,491.269,380.879,503.653,396.004,503.653L396.004,503.653z M396.004,517.409
		c-18.572,0-55.014,8.937-55.014,27.509v13.749h110.021v-13.749C451.011,526.346,414.569,517.409,396.004,517.409L396.004,517.409z"
		/>
</g>
<path fill="#FDDDD2" d="M390.582,502.252c0,0,1.475,13.314-6.781,18.679c-8.256,5.363,20.029,1.027,22.317,3.78
	c2.289,2.755-6.029-13.191-1.624-22.926"/>
<path fill="#016D77" d="M387.25,438.988c-12.925,1.945-21.218,15.875-22.404,21.262s-10.513,44.415,2.154,49.749
	c12.667,5.334,15.296,0,18.333-4.333s-12.45-1.669-12.583-16.166s4.25-24.501,6.917-33.501s17,2.421,23,3.544
	s4.916,14.79,8.583,15.457s6.767,3.805,4,18.83S411.666,504.667,413,507s1.839,4.463,12.631,3.5
	c19.619-1.75,9.619-48.956-1.381-60.5s-17.793-9.333-25.188-10.667C391.667,437.999,389.826,438.601,387.25,438.988z"/>
<path fill="#E39578" d="M437.644,492.025c0,2.653-2.689,4.805-6.007,4.805l0,0c-3.316,0-6.006-2.151-6.006-4.805v-21.219
	c0-2.653,2.689-4.805,6.006-4.805l0,0c3.317,0,6.007,2.151,6.007,4.805V492.025z"/>
<path fill="none" stroke="#E39578" stroke-width="7" stroke-miterlimit="10" d="M364.501,467.254c0,0,8.538-27.322,32.56-27.921
	c24.022-0.601,34.577,29.058,34.577,29.058"/>
<path fill="#E39578" d="M367.853,489.025c0,2.653-2.689,4.805-6.007,4.805l0,0c-3.316,0-6.006-2.151-6.006-4.805v-21.219
	c0-2.653,2.689-4.805,6.006-4.805l0,0c3.317,0,6.007,2.151,6.007,4.805V489.025z"/>
<path fill="#83C5BE" d="M402.441,322.752c0,0-1.475,13.314,6.781,18.679c8.256,5.363-20.03,1.027-22.318,3.78
	c-2.289,2.755,6.029-13.191,1.624-22.926"/>
<polygon fill="#FDDDD2" points="660.886,438.283 655.688,443.479 655.688,454.235 646.922,463.002 631.08,463.002 619.257,451.179 
	619.257,435.779 639.097,415.94 666.723,415.94 676.16,425.377 676.16,438.283 "/>
<path fill="#83C5BE" d="M583.697,501.081c0,0,1.475,13.314-6.781,18.679c-8.256,5.363,20.029,1.027,22.317,3.78
	c2.289,2.755-6.029-13.191-1.624-22.926"/>
<line fill="none" stroke="#016D77" stroke-width="5" stroke-miterlimit="10" x1="315.535" y1="279" x2="386.498" y2="279"/>
<line fill="none" stroke="#016D77" stroke-width="5" stroke-miterlimit="10" x1="315.535" y1="314.61" x2="386.498" y2="314.61"/>
<line fill="none" stroke="#016D77" stroke-width="5" stroke-miterlimit="10" x1="315.535" y1="245.078" x2="386.498" y2="245.078"/>
<g>
	<path fill="#83C5BE" d="M396.004,326.653c15.128,0,27.503-12.385,27.503-27.503c0-15.124-12.375-27.504-27.503-27.504
		c-15.135,0-27.51,12.38-27.51,27.504C368.494,314.269,380.879,326.653,396.004,326.653L396.004,326.653z M396.004,340.409
		c-18.572,0-55.014,8.937-55.014,27.509v13.749h110.021v-13.749C451.011,349.346,414.569,340.409,396.004,340.409L396.004,340.409z"
		/>
</g>
<path fill="#FDDDD2" stroke="#E39578" stroke-width="3" stroke-miterlimit="10" d="M663.313,289.825c0,6.627-5.372,12-12,12h-45
	c-6.628,0-12-5.373-12-12v-45c0-6.627,5.372-12,12-12h45c6.628,0,12,5.373,12,12V289.825z"/>
<path fill="#FDDDD2" d="M377.625,294.25c5,2.25,3.201,17.436-3.375,19.75c-13.5,4.75-4.936-19.504-6.375-29.25
	c-1.935-13.104-2.378-9.105-0.75-11.25c3.103-4.089,3.25-5,10-6s13.5-4,19.75-2.25s17,0.75,20.5,2s7.125,0,8.25,7.25
	c0.982,6.332,0.287,7,0.287,11.5s-1.278,9.506-1.412,15.5s-2.194,5.438-2.444,6.438s0.819-8.688-2.431-14.438s-2.25,2.5-12,2.5
	s-13-9-18-10.5S382.125,288.75,377.625,294.25S374.541,292.862,377.625,294.25z"/>
<path fill="#FDDDD2" stroke="#E39578" stroke-width="3" stroke-miterlimit="10" d="M581.998,322.146c0,6.627-5.372,12-12,12h-45
	c-6.628,0-12-5.373-12-12v-45c0-6.627,5.372-12,12-12h45c6.628,0,12,5.373,12,12V322.146z"/>
<g>
	<path fill="#016D77" d="M592.701,327.35c15.128,0,27.503-12.385,27.503-27.503c0-15.124-12.375-27.504-27.503-27.504
		c-15.135,0-27.51,12.38-27.51,27.504C565.191,314.965,577.576,327.35,592.701,327.35L592.701,327.35z M592.701,341.106
		c-18.572,0-55.014,8.937-55.014,27.509v13.749h110.021v-13.749C647.708,350.042,611.267,341.106,592.701,341.106L592.701,341.106z"
		/>
</g>
<path fill="#016D77" d="M587.279,325.948c0,0,1.475,13.314-6.781,18.679c-8.256,5.363,20.029,1.027,22.317,3.78
	c2.289,2.755-6.029-13.191-1.624-22.926"/>
<path fill="#83C5BE" d="M583.947,262.685c-12.925,1.945-22.47,14.619-25.404,21.065c-2.285,5.021-10.775,35.86-11.043,53.352
	c-0.063,4.097,1.167,26.938,8.966,35.159c3.784,3.989,15.859,3.826,18.284,0.239c12-17.75,4.54-24.031,10.75-47.019
	c1.38-5.108-10.75,0.174-16.053-12.285c-5.678-13.34,1.05-26.173,6.916-33.501c5.887-7.353,15.675-6.818,21.675-5.695
	s10.712,8,12.712,11c2.067,3.101,12.667,22.433,1.197,32.526C595.5,332,595.401,373.751,598.038,374.271
	c31.681,6.25,24.17-21.558,34.962-22.521c19.619-1.75-1.053-66.51-12.053-78.054s-17.793-9.333-25.188-10.667
	S586.523,262.297,583.947,262.685z"/>
<path fill="#E39578" d="M564.55,312.722c0,2.653-2.689,4.805-6.007,4.805l0,0c-3.316,0-6.006-2.151-6.006-4.805v-21.219
	c0-2.653,2.689-4.805,6.006-4.805l0,0c3.317,0,6.007,2.151,6.007,4.805V312.722z"/>
<path fill="none" stroke="#E39578" stroke-width="3" stroke-miterlimit="10" d="M590.66,325.293
	c-11.903,2.222-33.869-5.876-26.919-21.553"/>
<line fill="none" stroke="#016D77" stroke-width="5" stroke-miterlimit="10" x1="323.5" y1="291.667" x2="323.5" y2="311.334"/>
<line fill="none" stroke="#83C5BE" stroke-width="5" stroke-miterlimit="10" x1="329.667" y1="291.667" x2="329.667" y2="311.334"/>
<line fill="#FDDDD2" stroke="#FDDDD2" stroke-width="5" stroke-miterlimit="10" x1="335.667" y1="291.667" x2="335.667" y2="311.334"/>
<line fill="none" stroke="#FDDDD2" stroke-width="5" stroke-miterlimit="10" x1="347.796" y1="256.254" x2="347.796" y2="275.921"/>
<line fill="none" stroke="#016D77" stroke-width="5" stroke-miterlimit="10" x1="354.333" y1="256.254" x2="354.333" y2="275.921"/>
<line fill="none" stroke="#016D77" stroke-width="5" stroke-miterlimit="10" x1="341.712" y1="291.667" x2="341.712" y2="311.334"/>
<line fill="none" stroke="#83C5BE" stroke-width="5" stroke-miterlimit="10" x1="347.879" y1="291.667" x2="347.879" y2="311.334"/>
<line fill="#FDDDD2" stroke="#016D77" stroke-width="5" stroke-miterlimit="10" x1="353.879" y1="291.667" x2="353.879" y2="311.334"/>
<line fill="none" stroke="#016D77" stroke-width="5" stroke-miterlimit="10" x1="329.583" y1="256.254" x2="329.583" y2="275.921"/>
<line fill="none" stroke="#83C5BE" stroke-width="5" stroke-miterlimit="10" x1="335.75" y1="256.254" x2="335.75" y2="275.921"/>
<line fill="#FDDDD2" stroke="#016D77" stroke-width="5" stroke-miterlimit="10" x1="341.75" y1="256.254" x2="341.75" y2="275.921"/>
<line fill="none" stroke="#83C5BE" stroke-width="5" stroke-miterlimit="10" x1="370.464" y1="222.325" x2="370.464" y2="241.992"/>
<line fill="none" stroke="#FDDDD2" stroke-width="5" stroke-miterlimit="10" x1="376.63" y1="222.325" x2="376.63" y2="241.992"/>
<line fill="#FDDDD2" stroke="#016D77" stroke-width="5" stroke-miterlimit="10" x1="382.63" y1="222.325" x2="382.63" y2="241.992"/>
</svg>
